<svg width="889" height="357" xmlns="http://www.w3.org/2000/svg"><g fill="none" fill-rule="evenodd"><path fill="#FFF" d="M0 0h889v357H0z"/><path d="M377.94 212.1v-40.86c.6-.24 1.905-.51 3.915-.81 2.01-.3 4.395-.45 7.155-.45 2.58 0 4.725.315 6.435.945 1.71.63 3.09 1.665 4.14 3.105 1.05 1.44 1.8 3.3 2.25 5.58.45 2.28.675 5.07.675 8.37v24.12h5.85v-26.01c0-3.18-.3-6.09-.9-8.73-.6-2.64-1.605-4.905-3.015-6.795-1.41-1.89-3.3-3.345-5.67-4.365s-5.325-1.53-8.865-1.53c-4.26 0-7.86.3-10.8.9-2.94.6-5.28 1.14-7.02 1.62v44.91h5.85Zm65.13.99c3.12 0 5.835-.33 8.145-.99 2.31-.66 3.885-1.23 4.725-1.71l-1.08-5.04c-.84.42-2.19.93-4.05 1.53-1.86.6-4.38.9-7.56.9-5.76 0-9.96-1.53-12.6-4.59-2.64-3.06-4.05-7.44-4.23-13.14h32.67c.06-.42.105-.87.135-1.35.03-.48.045-.96.045-1.44 0-7.74-1.695-13.47-5.085-17.19-3.39-3.72-7.935-5.58-13.635-5.58-2.58 0-5.085.495-7.515 1.485-2.43.99-4.59 2.505-6.48 4.545-1.89 2.04-3.42 4.575-4.59 7.605-1.17 3.03-1.755 6.585-1.755 10.665 0 3.54.42 6.795 1.26 9.765.84 2.97 2.19 5.535 4.05 7.695 1.86 2.16 4.23 3.84 7.11 5.04 2.88 1.2 6.36 1.8 10.44 1.8Zm10.17-27.99H426.6c.12-2.04.525-3.99 1.215-5.85.69-1.86 1.65-3.495 2.88-4.905a14.287 14.287 0 0 1 4.32-3.375c1.65-.84 3.525-1.26 5.625-1.26 3.96 0 7.02 1.35 9.18 4.05 2.16 2.7 3.3 6.48 3.42 11.34Zm19.59 27c.72-1.32 1.59-2.835 2.61-4.545 1.02-1.71 2.145-3.495 3.375-5.355 1.23-1.86 2.505-3.75 3.825-5.67 1.32-1.92 2.64-3.75 3.96-5.49 1.26 1.74 2.565 3.57 3.915 5.49 1.35 1.92 2.64 3.81 3.87 5.67 1.23 1.86 2.355 3.645 3.375 5.355 1.02 1.71 1.89 3.225 2.61 4.545h6.3c-1.14-2.22-2.385-4.47-3.735-6.75a130.734 130.734 0 0 0-4.185-6.615 219.43 219.43 0 0 0-4.32-6.165c-1.44-1.98-2.79-3.81-4.05-5.49l14.85-21.51h-6.39l-12.24 17.82-12.06-17.82h-6.84l15.12 21.87c-2.82 3.84-5.58 7.755-8.28 11.745-2.7 3.99-5.28 8.295-7.74 12.915h6.03Zm58.56.99c2.46 0 4.74-.345 6.84-1.035 2.1-.69 3.57-1.305 4.41-1.845l-1.44-4.86c-.84.48-2.01 1.005-3.51 1.575-1.5.57-3.48.855-5.94.855-1.44 0-2.76-.15-3.96-.45-1.2-.3-2.22-.9-3.06-1.8-.84-.9-1.485-2.175-1.935-3.825-.45-1.65-.675-3.795-.675-6.435v-24.75h18.54v-4.95h-18.54v-14.76l-5.85 1.08v42.84c0 3.12.24 5.82.72 8.1.48 2.28 1.305 4.185 2.475 5.715 1.17 1.53 2.73 2.67 4.68 3.42 1.95.75 4.365 1.125 7.245 1.125Zm32.37-24.21v-5.67h-20.34v5.67h20.34Zm12.84-32.85c1.2 0 2.22-.405 3.06-1.215.84-.81 1.26-1.905 1.26-3.285 0-1.38-.42-2.475-1.26-3.285-.84-.81-1.86-1.215-3.06-1.215s-2.22.405-3.06 1.215c-.84.81-1.26 1.905-1.26 3.285 0 1.38.42 2.475 1.26 3.285.84.81 1.86 1.215 3.06 1.215Zm2.97 56.07v-46.53h-5.85v46.53h5.85Zm21.03 0v-40.86c.6-.24 1.905-.51 3.915-.81 2.01-.3 4.395-.45 7.155-.45 2.58 0 4.725.315 6.435.945 1.71.63 3.09 1.665 4.14 3.105 1.05 1.44 1.8 3.3 2.25 5.58.45 2.28.675 5.07.675 8.37v24.12h5.85v-26.01c0-3.18-.3-6.09-.9-8.73-.6-2.64-1.605-4.905-3.015-6.795-1.41-1.89-3.3-3.345-5.67-4.365s-5.325-1.53-8.865-1.53c-4.26 0-7.86.3-10.8.9-2.94.6-5.28 1.14-7.02 1.62v44.91h5.85Zm59.82.99c2.46 0 4.74-.345 6.84-1.035 2.1-.69 3.57-1.305 4.41-1.845l-1.44-4.86c-.84.48-2.01 1.005-3.51 1.575-1.5.57-3.48.855-5.94.855-1.44 0-2.76-.15-3.96-.45-1.2-.3-2.22-.9-3.06-1.8-.84-.9-1.485-2.175-1.935-3.825-.45-1.65-.675-3.795-.675-6.435v-24.75h18.54v-4.95h-18.54v-14.76l-5.85 1.08v42.84c0 3.12.24 5.82.72 8.1.48 2.28 1.305 4.185 2.475 5.715 1.17 1.53 2.73 2.67 4.68 3.42 1.95.75 4.365 1.125 7.245 1.125Zm31.56-.18.81-4.86c-1.2-.18-2.235-.39-3.105-.63-.87-.24-1.575-.615-2.115-1.125-.54-.51-.945-1.2-1.215-2.07-.27-.87-.405-2.025-.405-3.465v-58.5l-5.85 1.08v57.6c0 2.22.255 4.065.765 5.535.51 1.47 1.26 2.67 2.25 3.6.99.93 2.22 1.62 3.69 2.07 1.47.45 3.195.705 5.175.765Z" fill="#24292F" fill-rule="nonzero"/><g transform="translate(193.8 118.65)"><path d="M59.85 2.7c15.782 0 30.069 6.397 40.411 16.739C110.603 29.78 117 44.069 117 59.85c0 12.19-3.816 23.49-10.32 32.768a57.471 57.471 0 0 1-11.38 12.061A56.904 56.904 0 0 1 59.85 117c-15.782 0-30.069-6.397-40.411-16.739C9.097 89.92 2.7 75.631 2.7 59.85c0-15.782 6.397-30.069 16.739-40.411C29.78 9.097 44.069 2.7 59.85 2.7Z" stroke="#008FD6" stroke-width="5.4"/><path fill="#FFF" d="M96.9 94.05h12.6v9.6H96.9z"/><circle fill="#0090D6" cx="98.61" cy="101.85" r="2.7"/><path stroke="#008FD6" stroke-width="5.4" stroke-linecap="square" d="m11.85 31.5 94.05.15"/><ellipse stroke="#0090D6" stroke-width="5.4" cx="60.45" cy="59.85" rx="28.05" ry="57.15"/><path stroke="#008FD6" stroke-width="5.4" stroke-linecap="square" d="M14.7 91.35h91.2M2.55 61.8h114"/></g></g></svg>