<svg width="1962" height="691" xmlns="http://www.w3.org/2000/svg"><title>logo copy 5</title><g fill="none" fill-rule="evenodd"><path fill="#FFF" d="M0 0h1962v691H0z"/><path d="M759.8 457V320.8c2-.8 6.35-1.7 13.05-2.7 6.7-1 14.65-1.5 23.85-1.5 8.6 0 15.75 1.05 21.45 3.15 5.7 2.1 10.3 5.55 13.8 10.35s6 11 7.5 18.6c1.5 7.6 2.25 16.9 2.25 27.9V457h19.5v-86.7c0-10.6-1-20.3-3-29.1s-5.35-16.35-10.05-22.65c-4.7-6.3-11-11.15-18.9-14.55-7.9-3.4-17.75-5.1-29.55-5.1-14.2 0-26.2 1-36 3s-17.6 3.8-23.4 5.4V457h19.5Zm217.1 3.3c10.4 0 19.45-1.1 27.15-3.3 7.7-2.2 12.95-4.1 15.75-5.7l-3.6-16.8c-2.8 1.4-7.3 3.1-13.5 5.1-6.2 2-14.6 3-25.2 3-19.2 0-33.2-5.1-42-15.3-8.8-10.2-13.5-24.8-14.1-43.8h108.9c.2-1.4.35-2.9.45-4.5.1-1.6.15-3.2.15-4.8 0-25.8-5.65-44.9-16.95-57.3-11.3-12.4-26.45-18.6-45.45-18.6-8.6 0-16.95 1.65-25.05 4.95-8.1 3.3-15.3 8.35-21.6 15.15-6.3 6.8-11.4 15.25-15.3 25.35-3.9 10.1-5.85 21.95-5.85 35.55 0 11.8 1.4 22.65 4.2 32.55 2.8 9.9 7.3 18.45 13.5 25.65 6.2 7.2 14.1 12.8 23.7 16.8s21.2 6 34.8 6Zm33.9-93.3H922c.4-6.8 1.75-13.3 4.05-19.5 2.3-6.2 5.5-11.65 9.6-16.35 4.1-4.7 8.9-8.45 14.4-11.25 5.5-2.8 11.75-4.2 18.75-4.2 13.2 0 23.4 4.5 30.6 13.5 7.2 9 11 21.6 11.4 37.8Zm65.3 90c2.4-4.4 5.3-9.45 8.7-15.15 3.4-5.7 7.15-11.65 11.25-17.85 4.1-6.2 8.35-12.5 12.75-18.9 4.4-6.4 8.8-12.5 13.2-18.3 4.2 5.8 8.55 11.9 13.05 18.3s8.8 12.7 12.9 18.9c4.1 6.2 7.85 12.15 11.25 17.85 3.4 5.7 6.3 10.75 8.7 15.15h21c-3.8-7.4-7.95-14.9-12.45-22.5-4.5-7.6-9.15-14.95-13.95-22.05-4.8-7.1-9.6-13.95-14.4-20.55-4.8-6.6-9.3-12.7-13.5-18.3l49.5-71.7h-21.3l-40.8 59.4-40.2-59.4H1059l50.4 72.9c-9.4 12.8-18.6 25.85-27.6 39.15-9 13.3-17.6 27.65-25.8 43.05h20.1Zm195.2 3.3c8.2 0 15.8-1.15 22.8-3.45 7-2.3 11.9-4.35 14.7-6.15l-4.8-16.2c-2.8 1.6-6.7 3.35-11.7 5.25-5 1.9-11.6 2.85-19.8 2.85-4.8 0-9.2-.5-13.2-1.5s-7.4-3-10.2-6c-2.8-3-4.95-7.25-6.45-12.75s-2.25-12.65-2.25-21.45v-82.5h61.8v-16.5h-61.8v-49.2l-19.5 3.6v142.8c0 10.4.8 19.4 2.4 27 1.6 7.6 4.35 13.95 8.25 19.05 3.9 5.1 9.1 8.9 15.6 11.4s14.55 3.75 24.15 3.75Zm107.9-80.7v-18.9h-67.8v18.9h67.8Zm42.8-109.5c4 0 7.4-1.35 10.2-4.05 2.8-2.7 4.2-6.35 4.2-10.95s-1.4-8.25-4.2-10.95c-2.8-2.7-6.2-4.05-10.2-4.05-4 0-7.4 1.35-10.2 4.05-2.8 2.7-4.2 6.35-4.2 10.95s1.4 8.25 4.2 10.95c2.8 2.7 6.2 4.05 10.2 4.05Zm9.9 186.9V301.9h-19.5V457h19.5Zm70.1 0V320.8c2-.8 6.35-1.7 13.05-2.7 6.7-1 14.65-1.5 23.85-1.5 8.6 0 15.75 1.05 21.45 3.15 5.7 2.1 10.3 5.55 13.8 10.35s6 11 7.5 18.6c1.5 7.6 2.25 16.9 2.25 27.9V457h19.5v-86.7c0-10.6-1-20.3-3-29.1s-5.35-16.35-10.05-22.65c-4.7-6.3-11-11.15-18.9-14.55-7.9-3.4-17.75-5.1-29.55-5.1-14.2 0-26.2 1-36 3s-17.6 3.8-23.4 5.4V457h19.5Zm199.4 3.3c8.2 0 15.8-1.15 22.8-3.45 7-2.3 11.9-4.35 14.7-6.15l-4.8-16.2c-2.8 1.6-6.7 3.35-11.7 5.25-5 1.9-11.6 2.85-19.8 2.85-4.8 0-9.2-.5-13.2-1.5s-7.4-3-10.2-6c-2.8-3-4.95-7.25-6.45-12.75s-2.25-12.65-2.25-21.45v-82.5h61.8v-16.5h-61.8v-49.2l-19.5 3.6v142.8c0 10.4.8 19.4 2.4 27 1.6 7.6 4.35 13.95 8.25 19.05 3.9 5.1 9.1 8.9 15.6 11.4s14.55 3.75 24.15 3.75Zm105.2-.6 2.7-16.2c-4-.6-7.45-1.3-10.35-2.1-2.9-.8-5.25-2.05-7.05-3.75-1.8-1.7-3.15-4-4.05-6.9-.9-2.9-1.35-6.75-1.35-11.55v-195l-19.5 3.6v192c0 7.4.85 13.55 2.55 18.45 1.7 4.9 4.2 8.9 7.5 12 3.3 3.1 7.4 5.4 12.3 6.9s10.65 2.35 17.25 2.55Z" fill="#24292F" fill-rule="nonzero"/><g transform="translate(146 145.5)"><path d="M199.5 9c52.605 0 100.23 21.322 134.704 55.796C368.678 99.27 390 146.895 390 199.5c0 40.636-12.721 78.301-34.403 109.227a191.571 191.571 0 0 1-37.93 40.204C285.195 374.647 244.14 390 199.5 390c-52.605 0-100.23-21.322-134.704-55.796C30.322 299.73 9 252.105 9 199.5 9 146.895 30.322 99.27 64.796 64.796 99.27 30.322 146.895 9 199.5 9Z" stroke="#5FC3E7" stroke-width="18"/><path fill="#FFF" d="M323 313.5h42v32h-42z"/><circle fill="#5FC3E7" cx="328.7" cy="339.5" r="9"/><path stroke="#5FC3E7" stroke-width="18" stroke-linecap="square" d="m39.5 105 313.5.5"/><ellipse stroke="#5FC3E7" stroke-width="18" cx="201.5" cy="199.5" rx="93.5" ry="190.5"/><path stroke="#5FC3E7" stroke-width="18" stroke-linecap="square" d="M49 304.5h304M8.5 206h380"/></g></g></svg>