<?xml version="1.0" encoding="UTF-8"?>
<svg width="1962px" height="691px" viewBox="0 0 1962 691" version="1.1" xmlns="http://www.w3.org/2000/svg" xmlns:xlink="http://www.w3.org/1999/xlink">
    <title>logo copy 4</title>
    <defs>
        <path d="M0,0 L519,0 L519,256 L458.5,256 L458.5,315 L378,315 L378,337 L395,337 L395,468 L0,468 L0,0 Z" id="path-1"></path>
    </defs>
    <g id="logo-copy-4" stroke="none" stroke-width="1" fill="none" fill-rule="evenodd">
        <rect fill="#FFFFFF" x="0" y="0" width="1962" height="691"></rect>
        <g id="Group-2" transform="translate(81.000000, 145.000000)">
            <mask id="mask-2" fill="white">
                <use xlink:href="#path-1"></use>
            </mask>
            <g id="Combined-Shape"></g>
            <g id="Group" mask="url(#mask-2)" fill="#5FC3E7" fill-rule="nonzero">
                <g transform="translate(64.000000, 0.000000)">
                    <path d="M202.5,0 C203.378985,0 204.255386,0.021588429 205.129071,0.0645083704 C313.21625,2.7859336 400,91.2582513 400,200 C400,308.741749 313.21625,397.214066 205.130218,399.935483 C204.255386,399.978412 203.378985,400 202.5,400 L201.654777,399.993297 C201.103713,399.997763 200.552118,400 200,400 C89.54305,400 0,310.45695 0,200 C0,89.54305 89.54305,0 200,0 L201.65267,0.00669135078 C201.934843,0.0022332997 202.217288,0 202.5,0 Z M201.603766,20.0069961 L201.37414,20.0197102 C182.963407,20.6633673 163.522847,37.0611881 147.82022,67.7004596 C130.247991,101.987736 120,149.263778 120,200 C120,250.736222 130.247991,298.012264 147.82022,332.29954 C163.591436,363.072644 183.133311,379.479612 201.615334,379.987822 L200,380 C201.488989,380 202.973756,379.98192 204.454093,379.945969 C222.617183,378.843024 241.71197,362.480634 257.17978,332.29954 C274.752009,298.012264 285,250.736222 285,200 C285,149.263778 274.752009,101.987736 257.17978,67.7004596 C241.71197,37.5193661 222.617183,21.1569763 204.452475,20.0591497 C203.505784,20.0310003 202.555656,20.0153039 201.603766,20.0069961 Z M151.341909,26.6528234 L151.235629,26.6835867 C75.5175865,47.9441438 20,117.488658 20,200 C20,282.550078 75.5697261,352.121151 151.342284,373.346325 C120.653911,338.791832 100,274.102237 100,200 C100,125.897763 120.653911,61.2081679 151.341909,26.6528234 Z M255.434872,28.6977647 L256.492626,29.9645961 C285.611131,65.2420878 305,128.202983 305,200 C305,272.663225 285.140468,336.275832 255.434478,371.300117 C327.720775,347.926989 380,280.068728 380,200 C380,119.931272 327.720775,52.0730105 255.434872,28.6977647 Z" id="Combined-Shape"></path>
                    <polygon id="Line" points="400.5 195.5 400.5 215.5 0.5 215.5 0.5 195.5"></polygon>
                    <polygon id="Line-Copy" points="360 95 360 115 39 115 39 95"></polygon>
                    <polygon id="Line-Copy-2" points="360 295 360 315 39 315 39 295"></polygon>
                </g>
            </g>
        </g>
        <circle id="Oval-Copy" fill="#5FC3E7" cx="469" cy="489" r="10"></circle>
        <path d="M759.8,457 L759.8,320.8 C761.8,320 766.15,319.1 772.85,318.1 C779.55,317.1 787.5,316.6 796.7,316.6 C805.3,316.6 812.45,317.65 818.15,319.75 C823.85,321.85 828.45,325.3 831.95,330.1 C835.45,334.9 837.95,341.1 839.45,348.7 C840.95,356.3 841.7,365.6 841.7,376.6 L841.7,376.6 L841.7,457 L861.2,457 L861.2,370.3 C861.2,359.7 860.2,350 858.2,341.2 C856.2,332.4 852.85,324.85 848.15,318.55 C843.45,312.25 837.15,307.4 829.25,304 C821.35,300.6 811.5,298.9 799.7,298.9 C785.5,298.9 773.5,299.9 763.7,301.9 C753.9,303.9 746.1,305.7 740.3,307.3 L740.3,307.3 L740.3,457 L759.8,457 Z M976.9,460.3 C987.3,460.3 996.35,459.2 1004.05,457 C1011.75,454.8 1017,452.9 1019.8,451.3 L1019.8,451.3 L1016.2,434.5 C1013.4,435.9 1008.9,437.6 1002.7,439.6 C996.5,441.6 988.1,442.6 977.5,442.6 C958.3,442.6 944.3,437.5 935.5,427.3 C926.7,417.1 922,402.5 921.4,383.5 L921.4,383.5 L1030.3,383.5 C1030.5,382.1 1030.65,380.6 1030.75,379 C1030.85,377.4 1030.9,375.8 1030.9,374.2 C1030.9,348.4 1025.25,329.3 1013.95,316.9 C1002.65,304.5 987.5,298.3 968.5,298.3 C959.9,298.3 951.55,299.95 943.45,303.25 C935.35,306.55 928.15,311.6 921.85,318.4 C915.55,325.2 910.45,333.65 906.55,343.75 C902.65,353.85 900.7,365.7 900.7,379.3 C900.7,391.1 902.1,401.95 904.9,411.85 C907.7,421.75 912.2,430.3 918.4,437.5 C924.6,444.7 932.5,450.3 942.1,454.3 C951.7,458.3 963.3,460.3 976.9,460.3 Z M1010.8,367 L922,367 C922.4,360.2 923.75,353.7 926.05,347.5 C928.35,341.3 931.55,335.85 935.65,331.15 C939.75,326.45 944.55,322.7 950.05,319.9 C955.55,317.1 961.8,315.7 968.8,315.7 C982,315.7 992.2,320.2 999.4,329.2 C1006.6,338.2 1010.4,350.8 1010.8,367 L1010.8,367 Z M1076.1,457 C1078.5,452.6 1081.4,447.55 1084.8,441.85 C1088.2,436.15 1091.95,430.2 1096.05,424 C1100.15,417.8 1104.4,411.5 1108.8,405.1 C1113.2,398.7 1117.6,392.6 1122,386.8 C1126.2,392.6 1130.55,398.7 1135.05,405.1 C1139.55,411.5 1143.85,417.8 1147.95,424 C1152.05,430.2 1155.8,436.15 1159.2,441.85 C1162.6,447.55 1165.5,452.6 1167.9,457 L1167.9,457 L1188.9,457 C1185.1,449.6 1180.95,442.1 1176.45,434.5 C1171.95,426.9 1167.3,419.55 1162.5,412.45 C1157.7,405.35 1152.9,398.5 1148.1,391.9 C1143.3,385.3 1138.8,379.2 1134.6,373.6 L1134.6,373.6 L1184.1,301.9 L1162.8,301.9 L1122,361.3 L1081.8,301.9 L1059,301.9 L1109.4,374.8 C1100,387.6 1090.8,400.65 1081.8,413.95 C1072.8,427.25 1064.2,441.6 1056,457 L1056,457 L1076.1,457 Z M1271.3,460.3 C1279.5,460.3 1287.1,459.15 1294.1,456.85 C1301.1,454.55 1306,452.5 1308.8,450.7 L1308.8,450.7 L1304,434.5 C1301.2,436.1 1297.3,437.85 1292.3,439.75 C1287.3,441.65 1280.7,442.6 1272.5,442.6 C1267.7,442.6 1263.3,442.1 1259.3,441.1 C1255.3,440.1 1251.9,438.1 1249.1,435.1 C1246.3,432.1 1244.15,427.85 1242.65,422.35 C1241.15,416.85 1240.4,409.7 1240.4,400.9 L1240.4,400.9 L1240.4,318.4 L1302.2,318.4 L1302.2,301.9 L1240.4,301.9 L1240.4,252.7 L1220.9,256.3 L1220.9,399.1 C1220.9,409.5 1221.7,418.5 1223.3,426.1 C1224.9,433.7 1227.65,440.05 1231.55,445.15 C1235.45,450.25 1240.65,454.05 1247.15,456.55 C1253.65,459.05 1261.7,460.3 1271.3,460.3 Z M1379.2,379.6 L1379.2,360.7 L1311.4,360.7 L1311.4,379.6 L1379.2,379.6 Z M1422,270.1 C1426,270.1 1429.4,268.75 1432.2,266.05 C1435,263.35 1436.4,259.7 1436.4,255.1 C1436.4,250.5 1435,246.85 1432.2,244.15 C1429.4,241.45 1426,240.1 1422,240.1 C1418,240.1 1414.6,241.45 1411.8,244.15 C1409,246.85 1407.6,250.5 1407.6,255.1 C1407.6,259.7 1409,263.35 1411.8,266.05 C1414.6,268.75 1418,270.1 1422,270.1 Z M1431.9,457 L1431.9,301.9 L1412.4,301.9 L1412.4,457 L1431.9,457 Z M1502,457 L1502,320.8 C1504,320 1508.35,319.1 1515.05,318.1 C1521.75,317.1 1529.7,316.6 1538.9,316.6 C1547.5,316.6 1554.65,317.65 1560.35,319.75 C1566.05,321.85 1570.65,325.3 1574.15,330.1 C1577.65,334.9 1580.15,341.1 1581.65,348.7 C1583.15,356.3 1583.9,365.6 1583.9,376.6 L1583.9,376.6 L1583.9,457 L1603.4,457 L1603.4,370.3 C1603.4,359.7 1602.4,350 1600.4,341.2 C1598.4,332.4 1595.05,324.85 1590.35,318.55 C1585.65,312.25 1579.35,307.4 1571.45,304 C1563.55,300.6 1553.7,298.9 1541.9,298.9 C1527.7,298.9 1515.7,299.9 1505.9,301.9 C1496.1,303.9 1488.3,305.7 1482.5,307.3 L1482.5,307.3 L1482.5,457 L1502,457 Z M1701.4,460.3 C1709.6,460.3 1717.2,459.15 1724.2,456.85 C1731.2,454.55 1736.1,452.5 1738.9,450.7 L1738.9,450.7 L1734.1,434.5 C1731.3,436.1 1727.4,437.85 1722.4,439.75 C1717.4,441.65 1710.8,442.6 1702.6,442.6 C1697.8,442.6 1693.4,442.1 1689.4,441.1 C1685.4,440.1 1682,438.1 1679.2,435.1 C1676.4,432.1 1674.25,427.85 1672.75,422.35 C1671.25,416.85 1670.5,409.7 1670.5,400.9 L1670.5,400.9 L1670.5,318.4 L1732.3,318.4 L1732.3,301.9 L1670.5,301.9 L1670.5,252.7 L1651,256.3 L1651,399.1 C1651,409.5 1651.8,418.5 1653.4,426.1 C1655,433.7 1657.75,440.05 1661.65,445.15 C1665.55,450.25 1670.75,454.05 1677.25,456.55 C1683.75,459.05 1691.8,460.3 1701.4,460.3 Z M1806.6,459.7 L1809.3,443.5 C1805.3,442.9 1801.85,442.2 1798.95,441.4 C1796.05,440.6 1793.7,439.35 1791.9,437.65 C1790.1,435.95 1788.75,433.65 1787.85,430.75 C1786.95,427.85 1786.5,424 1786.5,419.2 L1786.5,419.2 L1786.5,224.2 L1767,227.8 L1767,419.8 C1767,427.2 1767.85,433.35 1769.55,438.25 C1771.25,443.15 1773.75,447.15 1777.05,450.25 C1780.35,453.35 1784.45,455.65 1789.35,457.15 C1794.25,458.65 1800,459.5 1806.6,459.7 L1806.6,459.7 Z" id="next-intl" fill="#24292F" fill-rule="nonzero"></path>
    </g>
</svg>