<?xml version="1.0" encoding="UTF-8"?>
<svg width="889px" height="357px" viewBox="0 0 889 357" version="1.1" xmlns="http://www.w3.org/2000/svg" xmlns:xlink="http://www.w3.org/1999/xlink">
    <title>logo-bright-padding@4x</title>
    <g id="logo-bright-padding" stroke="none" stroke-width="1" fill="none" fill-rule="evenodd">
        <path d="M377.94,212.1 L377.94,171.24 C378.54,171 379.845,170.73 381.855,170.43 C383.865,170.13 386.25,169.98 389.01,169.98 C391.59,169.98 393.735,170.295 395.445,170.925 C397.155,171.555 398.535,172.59 399.585,174.03 C400.635,175.47 401.385,177.33 401.835,179.61 C402.285,181.89 402.51,184.68 402.51,187.98 L402.51,187.98 L402.51,212.1 L408.36,212.1 L408.36,186.09 C408.36,182.91 408.06,180 407.46,177.36 C406.86,174.72 405.855,172.455 404.445,170.565 C403.035,168.675 401.145,167.22 398.775,166.2 C396.405,165.18 393.45,164.67 389.91,164.67 C385.65,164.67 382.05,164.97 379.11,165.57 C376.17,166.17 373.83,166.71 372.09,167.19 L372.09,167.19 L372.09,212.1 L377.94,212.1 Z M443.07,213.09 C446.19,213.09 448.905,212.76 451.215,212.1 C453.525,211.44 455.1,210.87 455.94,210.39 L455.94,210.39 L454.86,205.35 C454.02,205.77 452.67,206.28 450.81,206.88 C448.95,207.48 446.43,207.78 443.25,207.78 C437.49,207.78 433.29,206.25 430.65,203.19 C428.01,200.13 426.6,195.75 426.42,190.05 L426.42,190.05 L459.09,190.05 C459.15,189.63 459.195,189.18 459.225,188.7 C459.255,188.22 459.27,187.74 459.27,187.26 C459.27,179.52 457.575,173.79 454.185,170.07 C450.795,166.35 446.25,164.49 440.55,164.49 C437.97,164.49 435.465,164.985 433.035,165.975 C430.605,166.965 428.445,168.48 426.555,170.52 C424.665,172.56 423.135,175.095 421.965,178.125 C420.795,181.155 420.21,184.71 420.21,188.79 C420.21,192.33 420.63,195.585 421.47,198.555 C422.31,201.525 423.66,204.09 425.52,206.25 C427.38,208.41 429.75,210.09 432.63,211.29 C435.51,212.49 438.99,213.09 443.07,213.09 Z M453.24,185.1 L426.6,185.1 C426.72,183.06 427.125,181.11 427.815,179.25 C428.505,177.39 429.465,175.755 430.695,174.345 C431.925,172.935 433.365,171.81 435.015,170.97 C436.665,170.13 438.54,169.71 440.64,169.71 C444.6,169.71 447.66,171.06 449.82,173.76 C451.98,176.46 453.12,180.24 453.24,185.1 L453.24,185.1 Z M472.83,212.1 C473.55,210.78 474.42,209.265 475.44,207.555 C476.46,205.845 477.585,204.06 478.815,202.2 C480.045,200.34 481.32,198.45 482.64,196.53 C483.96,194.61 485.28,192.78 486.6,191.04 C487.86,192.78 489.165,194.61 490.515,196.53 C491.865,198.45 493.155,200.34 494.385,202.2 C495.615,204.06 496.74,205.845 497.76,207.555 C498.78,209.265 499.65,210.78 500.37,212.1 L500.37,212.1 L506.67,212.1 C505.53,209.88 504.285,207.63 502.935,205.35 C501.585,203.07 500.19,200.865 498.75,198.735 C497.31,196.605 495.87,194.55 494.43,192.57 C492.99,190.59 491.64,188.76 490.38,187.08 L490.38,187.08 L505.23,165.57 L498.84,165.57 L486.6,183.39 L474.54,165.57 L467.7,165.57 L482.82,187.44 C480,191.28 477.24,195.195 474.54,199.185 C471.84,203.175 469.26,207.48 466.8,212.1 L466.8,212.1 L472.83,212.1 Z M531.39,213.09 C533.85,213.09 536.13,212.745 538.23,212.055 C540.33,211.365 541.8,210.75 542.64,210.21 L542.64,210.21 L541.2,205.35 C540.36,205.83 539.19,206.355 537.69,206.925 C536.19,207.495 534.21,207.78 531.75,207.78 C530.31,207.78 528.99,207.63 527.79,207.33 C526.59,207.03 525.57,206.43 524.73,205.53 C523.89,204.63 523.245,203.355 522.795,201.705 C522.345,200.055 522.12,197.91 522.12,195.27 L522.12,195.27 L522.12,170.52 L540.66,170.52 L540.66,165.57 L522.12,165.57 L522.12,150.81 L516.27,151.89 L516.27,194.73 C516.27,197.85 516.51,200.55 516.99,202.83 C517.47,205.11 518.295,207.015 519.465,208.545 C520.635,210.075 522.195,211.215 524.145,211.965 C526.095,212.715 528.51,213.09 531.39,213.09 Z M563.76,188.88 L563.76,183.21 L543.42,183.21 L543.42,188.88 L563.76,188.88 Z M576.6,156.03 C577.8,156.03 578.82,155.625 579.66,154.815 C580.5,154.005 580.92,152.91 580.92,151.53 C580.92,150.15 580.5,149.055 579.66,148.245 C578.82,147.435 577.8,147.03 576.6,147.03 C575.4,147.03 574.38,147.435 573.54,148.245 C572.7,149.055 572.28,150.15 572.28,151.53 C572.28,152.91 572.7,154.005 573.54,154.815 C574.38,155.625 575.4,156.03 576.6,156.03 Z M579.57,212.1 L579.57,165.57 L573.72,165.57 L573.72,212.1 L579.57,212.1 Z M600.6,212.1 L600.6,171.24 C601.2,171 602.505,170.73 604.515,170.43 C606.525,170.13 608.91,169.98 611.67,169.98 C614.25,169.98 616.395,170.295 618.105,170.925 C619.815,171.555 621.195,172.59 622.245,174.03 C623.295,175.47 624.045,177.33 624.495,179.61 C624.945,181.89 625.17,184.68 625.17,187.98 L625.17,187.98 L625.17,212.1 L631.02,212.1 L631.02,186.09 C631.02,182.91 630.72,180 630.12,177.36 C629.52,174.72 628.515,172.455 627.105,170.565 C625.695,168.675 623.805,167.22 621.435,166.2 C619.065,165.18 616.11,164.67 612.57,164.67 C608.31,164.67 604.71,164.97 601.77,165.57 C598.83,166.17 596.49,166.71 594.75,167.19 L594.75,167.19 L594.75,212.1 L600.6,212.1 Z M660.42,213.09 C662.88,213.09 665.16,212.745 667.26,212.055 C669.36,211.365 670.83,210.75 671.67,210.21 L671.67,210.21 L670.23,205.35 C669.39,205.83 668.22,206.355 666.72,206.925 C665.22,207.495 663.24,207.78 660.78,207.78 C659.34,207.78 658.02,207.63 656.82,207.33 C655.62,207.03 654.6,206.43 653.76,205.53 C652.92,204.63 652.275,203.355 651.825,201.705 C651.375,200.055 651.15,197.91 651.15,195.27 L651.15,195.27 L651.15,170.52 L669.69,170.52 L669.69,165.57 L651.15,165.57 L651.15,150.81 L645.3,151.89 L645.3,194.73 C645.3,197.85 645.54,200.55 646.02,202.83 C646.5,205.11 647.325,207.015 648.495,208.545 C649.665,210.075 651.225,211.215 653.175,211.965 C655.125,212.715 657.54,213.09 660.42,213.09 Z M691.98,212.91 L692.79,208.05 C691.59,207.87 690.555,207.66 689.685,207.42 C688.815,207.18 688.11,206.805 687.57,206.295 C687.03,205.785 686.625,205.095 686.355,204.225 C686.085,203.355 685.95,202.2 685.95,200.76 L685.95,200.76 L685.95,142.26 L680.1,143.34 L680.1,200.94 C680.1,203.16 680.355,205.005 680.865,206.475 C681.375,207.945 682.125,209.145 683.115,210.075 C684.105,211.005 685.335,211.695 686.805,212.145 C688.275,212.595 690,212.85 691.98,212.91 L691.98,212.91 Z" id="next-intl" fill="#24292F" fill-rule="nonzero"></path>
        <g id="logo-bright" transform="translate(197.015188, 121.380343)">
            <path d="M96.1902606,98.4976762 C94.9309296,99.6970391 93.6116304,100.836434 92.2323631,101.91586 C68.7874393,120.392399 35.0560484,117.639113 14.9177477,95.6051445 C-5.22055291,73.5711761 -4.93635887,39.7287981 15.5691396,18.0361392 C36.074638,-3.65651965 69.8475104,-5.842933 92.9788334,13.0247329 C116.110156,31.8923987 120.79856,64.9173228 103.669354,89.3639427" id="Path" stroke="#008FD6" stroke-width="5.4"></path>
            <circle id="Oval" fill="#008FD6" fill-rule="nonzero" cx="95.5605951" cy="99.0973577" r="2.69856647"></circle>
            <path d="M8.84665914,28.784709 C25.094786,26.8106231 41.1652556,25.8362538 57.058068,25.8616012 C72.9508804,25.8869486 88.2137659,26.9112913 102.846725,28.9346294" id="Path" stroke="#008FD6" stroke-width="5.4" stroke-linecap="square"></path>
            <ellipse id="Oval" stroke="#008FD6" stroke-width="5.4" cx="57.4208556" cy="57.119657" rx="28.0351072" ry="57.119657"></ellipse>
            <path d="M11.695146,88.6029325 C26.6289078,90.6029325 41.7034884,91.6029325 56.9188878,91.6029325 C72.1342872,91.6029325 87.4435661,90.6029325 102.846725,88.6029325" id="Path" stroke="#008FD6" stroke-width="5.4" stroke-linecap="square"></path>
            <line x1="1.00911317" y1="59.0686217" x2="113.49107" y2="59.0686217" id="Path" stroke="#008FD6" stroke-width="5.4" stroke-linecap="square"></line>
        </g>
    </g>
</svg>