<?xml version="1.0" encoding="UTF-8"?>
<svg width="889px" height="357px" viewBox="0 0 889 357" version="1.1" xmlns="http://www.w3.org/2000/svg" xmlns:xlink="http://www.w3.org/1999/xlink">
    <title>logo-bright@4x</title>
    <g id="logo-bright" stroke="none" stroke-width="1" fill="none" fill-rule="evenodd">
        <rect fill="#FFFFFF" x="0" y="0" width="889" height="357"></rect>
        <g id="Group" transform="translate(193.800000, 118.650000)">
            <path d="M184.14,93.45 L184.14,52.59 C184.74,52.35 186.045,52.08 188.055,51.78 C190.065,51.48 192.45,51.33 195.21,51.33 C197.79,51.33 199.935,51.645 201.645,52.275 C203.355,52.905 204.735,53.94 205.785,55.38 C206.835,56.82 207.585,58.68 208.035,60.96 C208.485,63.24 208.71,66.03 208.71,69.33 L208.71,69.33 L208.71,93.45 L214.56,93.45 L214.56,67.44 C214.56,64.26 214.26,61.35 213.66,58.71 C213.06,56.07 212.055,53.805 210.645,51.915 C209.235,50.025 207.345,48.57 204.975,47.55 C202.605,46.53 199.65,46.02 196.11,46.02 C191.85,46.02 188.25,46.32 185.31,46.92 C182.37,47.52 180.03,48.06 178.29,48.54 L178.29,48.54 L178.29,93.45 L184.14,93.45 Z M249.27,94.44 C252.39,94.44 255.105,94.11 257.415,93.45 C259.725,92.79 261.3,92.22 262.14,91.74 L262.14,91.74 L261.06,86.7 C260.22,87.12 258.87,87.63 257.01,88.23 C255.15,88.83 252.63,89.13 249.45,89.13 C243.69,89.13 239.49,87.6 236.85,84.54 C234.21,81.48 232.8,77.1 232.62,71.4 L232.62,71.4 L265.29,71.4 C265.35,70.98 265.395,70.53 265.425,70.05 C265.455,69.57 265.47,69.09 265.47,68.61 C265.47,60.87 263.775,55.14 260.385,51.42 C256.995,47.7 252.45,45.84 246.75,45.84 C244.17,45.84 241.665,46.335 239.235,47.325 C236.805,48.315 234.645,49.83 232.755,51.87 C230.865,53.91 229.335,56.445 228.165,59.475 C226.995,62.505 226.41,66.06 226.41,70.14 C226.41,73.68 226.83,76.935 227.67,79.905 C228.51,82.875 229.86,85.44 231.72,87.6 C233.58,89.76 235.95,91.44 238.83,92.64 C241.71,93.84 245.19,94.44 249.27,94.44 Z M259.44,66.45 L232.8,66.45 C232.92,64.41 233.325,62.46 234.015,60.6 C234.705,58.74 235.665,57.105 236.895,55.695 C238.125,54.285 239.565,53.16 241.215,52.32 C242.865,51.48 244.74,51.06 246.84,51.06 C250.8,51.06 253.86,52.41 256.02,55.11 C258.18,57.81 259.32,61.59 259.44,66.45 L259.44,66.45 Z M279.03,93.45 C279.75,92.13 280.62,90.615 281.64,88.905 C282.66,87.195 283.785,85.41 285.015,83.55 C286.245,81.69 287.52,79.8 288.84,77.88 C290.16,75.96 291.48,74.13 292.8,72.39 C294.06,74.13 295.365,75.96 296.715,77.88 C298.065,79.8 299.355,81.69 300.585,83.55 C301.815,85.41 302.94,87.195 303.96,88.905 C304.98,90.615 305.85,92.13 306.57,93.45 L306.57,93.45 L312.87,93.45 C311.73,91.23 310.485,88.98 309.135,86.7 C307.785,84.42 306.39,82.215 304.95,80.085 C303.51,77.955 302.07,75.9 300.63,73.92 C299.19,71.94 297.84,70.11 296.58,68.43 L296.58,68.43 L311.43,46.92 L305.04,46.92 L292.8,64.74 L280.74,46.92 L273.9,46.92 L289.02,68.79 C286.2,72.63 283.44,76.545 280.74,80.535 C278.04,84.525 275.46,88.83 273,93.45 L273,93.45 L279.03,93.45 Z M337.59,94.44 C340.05,94.44 342.33,94.095 344.43,93.405 C346.53,92.715 348,92.1 348.84,91.56 L348.84,91.56 L347.4,86.7 C346.56,87.18 345.39,87.705 343.89,88.275 C342.39,88.845 340.41,89.13 337.95,89.13 C336.51,89.13 335.19,88.98 333.99,88.68 C332.79,88.38 331.77,87.78 330.93,86.88 C330.09,85.98 329.445,84.705 328.995,83.055 C328.545,81.405 328.32,79.26 328.32,76.62 L328.32,76.62 L328.32,51.87 L346.86,51.87 L346.86,46.92 L328.32,46.92 L328.32,32.16 L322.47,33.24 L322.47,76.08 C322.47,79.2 322.71,81.9 323.19,84.18 C323.67,86.46 324.495,88.365 325.665,89.895 C326.835,91.425 328.395,92.565 330.345,93.315 C332.295,94.065 334.71,94.44 337.59,94.44 Z M369.96,70.23 L369.96,64.56 L349.62,64.56 L349.62,70.23 L369.96,70.23 Z M382.8,37.38 C384,37.38 385.02,36.975 385.86,36.165 C386.7,35.355 387.12,34.26 387.12,32.88 C387.12,31.5 386.7,30.405 385.86,29.595 C385.02,28.785 384,28.38 382.8,28.38 C381.6,28.38 380.58,28.785 379.74,29.595 C378.9,30.405 378.48,31.5 378.48,32.88 C378.48,34.26 378.9,35.355 379.74,36.165 C380.58,36.975 381.6,37.38 382.8,37.38 Z M385.77,93.45 L385.77,46.92 L379.92,46.92 L379.92,93.45 L385.77,93.45 Z M406.8,93.45 L406.8,52.59 C407.4,52.35 408.705,52.08 410.715,51.78 C412.725,51.48 415.11,51.33 417.87,51.33 C420.45,51.33 422.595,51.645 424.305,52.275 C426.015,52.905 427.395,53.94 428.445,55.38 C429.495,56.82 430.245,58.68 430.695,60.96 C431.145,63.24 431.37,66.03 431.37,69.33 L431.37,69.33 L431.37,93.45 L437.22,93.45 L437.22,67.44 C437.22,64.26 436.92,61.35 436.32,58.71 C435.72,56.07 434.715,53.805 433.305,51.915 C431.895,50.025 430.005,48.57 427.635,47.55 C425.265,46.53 422.31,46.02 418.77,46.02 C414.51,46.02 410.91,46.32 407.97,46.92 C405.03,47.52 402.69,48.06 400.95,48.54 L400.95,48.54 L400.95,93.45 L406.8,93.45 Z M466.62,94.44 C469.08,94.44 471.36,94.095 473.46,93.405 C475.56,92.715 477.03,92.1 477.87,91.56 L477.87,91.56 L476.43,86.7 C475.59,87.18 474.42,87.705 472.92,88.275 C471.42,88.845 469.44,89.13 466.98,89.13 C465.54,89.13 464.22,88.98 463.02,88.68 C461.82,88.38 460.8,87.78 459.96,86.88 C459.12,85.98 458.475,84.705 458.025,83.055 C457.575,81.405 457.35,79.26 457.35,76.62 L457.35,76.62 L457.35,51.87 L475.89,51.87 L475.89,46.92 L457.35,46.92 L457.35,32.16 L451.5,33.24 L451.5,76.08 C451.5,79.2 451.74,81.9 452.22,84.18 C452.7,86.46 453.525,88.365 454.695,89.895 C455.865,91.425 457.425,92.565 459.375,93.315 C461.325,94.065 463.74,94.44 466.62,94.44 Z M498.18,94.26 L498.99,89.4 C497.79,89.22 496.755,89.01 495.885,88.77 C495.015,88.53 494.31,88.155 493.77,87.645 C493.23,87.135 492.825,86.445 492.555,85.575 C492.285,84.705 492.15,83.55 492.15,82.11 L492.15,82.11 L492.15,23.61 L486.3,24.69 L486.3,82.29 C486.3,84.51 486.555,86.355 487.065,87.825 C487.575,89.295 488.325,90.495 489.315,91.425 C490.305,92.355 491.535,93.045 493.005,93.495 C494.475,93.945 496.2,94.2 498.18,94.26 L498.18,94.26 Z" id="next-intl" fill="#24292F" fill-rule="nonzero"></path>
            <g id="Oval-2">
                <path d="M59.85,2.7 C75.6315367,2.7 89.9190367,9.09673164 100.261153,19.4388475 C110.603268,29.7809633 117,44.0684633 117,59.85 C117,72.040757 113.183645,83.3403451 106.679094,92.6180357 C104.49284,95.7363742 102.003074,98.626367 99.252732,101.245171 C97.988912,102.448547 96.6700681,103.59466 95.3003573,104.679344 C85.5581813,112.394246 73.2418706,117 59.85,117 C44.0684633,117 29.7809633,110.603268 19.4388475,100.261153 C9.09673164,89.9190367 2.7,75.6315367 2.7,59.85 C2.7,44.0684633 9.09673164,29.7809633 19.4388475,19.4388475 C29.7809633,9.09673164 44.0684633,2.7 59.85,2.7 L59.85,2.7 Z" id="Oval" stroke="#008FD6" stroke-width="5.4"></path>
                <rect id="Rectangle" fill="#FFFFFF" x="96.9" y="94.05" width="12.6" height="9.6"></rect>
                <circle id="Oval" fill="#0090D6" cx="98.61" cy="101.85" r="2.7"></circle>
                <line x1="11.85" y1="31.5" x2="105.9" y2="31.65" id="Line-3" stroke="#008FD6" stroke-width="5.4" stroke-linecap="square"></line>
                <ellipse id="Oval" stroke="#0090D6" stroke-width="5.4" cx="60.45" cy="59.85" rx="28.05" ry="57.15"></ellipse>
                <line x1="14.7" y1="91.35" x2="105.9" y2="91.35" id="Line-3-Copy" stroke="#008FD6" stroke-width="5.4" stroke-linecap="square"></line>
                <line x1="2.55" y1="61.8" x2="116.55" y2="61.8" id="Line-2" stroke="#008FD6" stroke-width="5.4" stroke-linecap="square"></line>
            </g>
        </g>
    </g>
</svg>