<?xml version="1.0" encoding="UTF-8"?>
<svg width="1962px" height="691px" viewBox="0 0 1962 691" version="1.1" xmlns="http://www.w3.org/2000/svg" xmlns:xlink="http://www.w3.org/1999/xlink">
    <title>logo</title>
    <defs>
        <path d="M0,0 L519,0 L519,215 L378,215 L378,242 L458.5,242 L458.5,315 L378,315 L378,337 L395,337 L395,468 L0,468 L0,0 Z" id="path-1"></path>
    </defs>
    <g id="logo" stroke="none" stroke-width="1" fill="none" fill-rule="evenodd">
        <rect fill="#FFFFFF" x="0" y="0" width="1962" height="691"></rect>
        <g id="Group-2" transform="translate(81.000000, 145.000000)">
            <mask id="mask-2" fill="white">
                <use xlink:href="#path-1"></use>
            </mask>
            <g id="Combined-Shape"></g>
            <g id="Group" mask="url(#mask-2)">
                <g transform="translate(64.000000, 0.000000)">
                    <path d="M200,0 C310.45695,0 400,89.54305 400,200 C400,310.45695 310.45695,400 200,400 C89.54305,400 0,310.45695 0,200 C0,89.54305 89.54305,0 200,0 Z M200,20 C100.588745,20 20,100.588745 20,200 C20,299.411255 100.588745,380 200,380 C299.411255,380 380,299.411255 380,200 C380,100.588745 299.411255,20 200,20 Z" id="Oval" stroke="none" fill="#71BBDD" fill-rule="nonzero"></path>
                    <ellipse id="Oval" stroke="#71BBDD" stroke-width="20" fill="none" cx="202.5" cy="200" rx="92.5" ry="190"></ellipse>
                    <line x1="0.5" y1="205.5" x2="400.5" y2="205.5" id="Line" stroke="#71BBDD" stroke-width="20" fill="none"></line>
                    <line x1="39" y1="105" x2="360" y2="105" id="Line-Copy" stroke="#71BBDD" stroke-width="20" fill="none"></line>
                    <line x1="39" y1="305" x2="360" y2="305" id="Line-Copy-2" stroke="#71BBDD" stroke-width="20" fill="none"></line>
                </g>
            </g>
        </g>
        <circle id="Oval" fill="#71BBDD" cx="530" cy="389" r="10"></circle>
        <circle id="Oval-Copy" fill="#71BBDD" cx="469" cy="489" r="10"></circle>
        <path d="M714.8,457 L714.8,325.3 C715.8,325.1 717.45,324.8 719.75,324.4 C722.05,324 724.65,323.65 727.55,323.35 C730.45,323.05 733.5,322.8 736.7,322.6 C739.9,322.4 743,322.3 746,322.3 C753.4,322.3 759.6,323.25 764.6,325.15 C769.6,327.05 773.6,330.1 776.6,334.3 C779.6,338.5 781.75,344 783.05,350.8 C784.35,357.6 785,365.8 785,375.4 L785,375.4 L785,457 L812.9,457 L812.9,369.4 C812.9,358.8 811.9,349.1 809.9,340.3 C807.9,331.5 804.45,323.95 799.55,317.65 C794.65,311.35 788.1,306.45 779.9,302.95 C771.7,299.45 761.4,297.7 749,297.7 C735.2,297.7 723,298.6 712.4,300.4 C701.8,302.2 693.3,303.9 686.9,305.5 L686.9,305.5 L686.9,457 L714.8,457 Z M929,460.6 C939.8,460.6 949.45,459.6 957.95,457.6 C966.45,455.6 972.4,453.7 975.8,451.9 L975.8,451.9 L971.9,428.5 C968.5,430.1 963.45,431.75 956.75,433.45 C950.05,435.15 941.8,436 932,436 C914.6,436 901.8,431.8 893.6,423.4 C885.4,415 880.7,402.7 879.5,386.5 L879.5,386.5 L986.3,386.5 C986.5,384.9 986.6,383.15 986.6,381.25 L986.6,381.25 L986.6,376.6 C986.6,349.8 981,329.85 969.8,316.75 C958.6,303.65 942.5,297.1 921.5,297.1 C912.5,297.1 903.7,298.8 895.1,302.2 C886.5,305.6 878.9,310.7 872.3,317.5 C865.7,324.3 860.4,332.85 856.4,343.15 C852.4,353.45 850.4,365.5 850.4,379.3 C850.4,391.1 851.95,401.95 855.05,411.85 C858.15,421.75 862.9,430.3 869.3,437.5 C875.7,444.7 883.85,450.35 893.75,454.45 C903.65,458.55 915.4,460.6 929,460.6 Z M957.5,364 L880.1,364 C880.7,358.6 881.95,353.3 883.85,348.1 C885.75,342.9 888.4,338.3 891.8,334.3 C895.2,330.3 899.35,327.05 904.25,324.55 C909.15,322.05 914.8,320.8 921.2,320.8 C932.6,320.8 941.55,324.85 948.05,332.95 C954.55,341.05 957.7,351.4 957.5,364 L957.5,364 Z M1036.4,457 C1038.6,452.8 1041.3,448 1044.5,442.6 C1047.7,437.2 1051.15,431.65 1054.85,425.95 C1058.55,420.25 1062.4,414.55 1066.4,408.85 C1070.4,403.15 1074.3,397.8 1078.1,392.8 C1081.9,397.8 1085.8,403.1 1089.8,408.7 C1093.8,414.3 1097.7,419.95 1101.5,425.65 C1105.3,431.35 1108.8,436.9 1112,442.3 C1115.2,447.7 1117.9,452.6 1120.1,457 L1120.1,457 L1150.7,457 C1143.7,443.2 1135.15,429.05 1125.05,414.55 C1114.95,400.05 1105.1,386.3 1095.5,373.3 L1095.5,373.3 L1145.9,301 L1116.2,301 L1078.7,355.6 L1041.5,301 L1010,301 L1061.6,375.1 C1052,387.9 1042.35,401.35 1032.65,415.45 C1022.95,429.55 1014.6,443.4 1007.6,457 L1007.6,457 L1036.4,457 Z M1232.6,460.3 C1241.6,460.3 1249.6,459.25 1256.6,457.15 C1263.6,455.05 1268.5,453.3 1271.3,451.9 L1271.3,451.9 L1265.9,428.8 L1265.9,428.8 L1265.47933,428.967333 C1263.41978,429.782444 1260.01,431.076667 1255.25,432.85 C1250.15,434.75 1243.4,435.7 1235,435.7 C1230.2,435.7 1226,435.1 1222.4,433.9 C1218.8,432.7 1215.8,430.65 1213.4,427.75 C1211,424.85 1209.2,420.85 1208,415.75 C1206.8,410.65 1206.2,404.2 1206.2,396.4 L1206.2,396.4 L1206.2,324.4 L1265.3,324.4 L1265.3,301 L1206.2,301 L1206.2,252.7 L1178.3,257.5 L1178.3,396.7 C1178.3,407.1 1179.15,416.25 1180.85,424.15 C1182.55,432.05 1185.5,438.7 1189.7,444.1 C1193.9,449.5 1199.45,453.55 1206.35,456.25 C1213.25,458.95 1222,460.3 1232.6,460.3 Z M1358.6,380.2 L1358.6,354.1 L1284.5,354.1 L1284.5,380.2 L1358.6,380.2 Z M1404.2,272.8 C1409.2,272.8 1413.45,271.15 1416.95,267.85 C1420.45,264.55 1422.2,260.1 1422.2,254.5 C1422.2,248.9 1420.45,244.45 1416.95,241.15 C1413.45,237.85 1409.2,236.2 1404.2,236.2 C1399.2,236.2 1394.95,237.85 1391.45,241.15 C1387.95,244.45 1386.2,248.9 1386.2,254.5 C1386.2,260.1 1387.95,264.55 1391.45,267.85 C1394.95,271.15 1399.2,272.8 1404.2,272.8 Z M1418.3,457 L1418.3,301 L1390.4,301 L1390.4,457 L1418.3,457 Z M1494.2,457 L1494.2,325.3 C1495.2,325.1 1496.85,324.8 1499.15,324.4 C1501.45,324 1504.05,323.65 1506.95,323.35 C1509.85,323.05 1512.9,322.8 1516.1,322.6 C1519.3,322.4 1522.4,322.3 1525.4,322.3 C1532.8,322.3 1539,323.25 1544,325.15 C1549,327.05 1553,330.1 1556,334.3 C1559,338.5 1561.15,344 1562.45,350.8 C1563.75,357.6 1564.4,365.8 1564.4,375.4 L1564.4,375.4 L1564.4,457 L1592.3,457 L1592.3,369.4 C1592.3,358.8 1591.3,349.1 1589.3,340.3 C1587.3,331.5 1583.85,323.95 1578.95,317.65 C1574.05,311.35 1567.5,306.45 1559.3,302.95 C1551.1,299.45 1540.8,297.7 1528.4,297.7 C1514.6,297.7 1502.4,298.6 1491.8,300.4 C1481.2,302.2 1472.7,303.9 1466.3,305.5 L1466.3,305.5 L1466.3,457 L1494.2,457 Z M1691,460.3 C1700,460.3 1708,459.25 1715,457.15 C1722,455.05 1726.9,453.3 1729.7,451.9 L1729.7,451.9 L1724.3,428.8 L1724.3,428.8 L1723.87933,428.967333 C1721.81978,429.782444 1718.41,431.076667 1713.65,432.85 C1708.55,434.75 1701.8,435.7 1693.4,435.7 C1688.6,435.7 1684.4,435.1 1680.8,433.9 C1677.2,432.7 1674.2,430.65 1671.8,427.75 C1669.4,424.85 1667.6,420.85 1666.4,415.75 C1665.2,410.65 1664.6,404.2 1664.6,396.4 L1664.6,396.4 L1664.6,324.4 L1723.7,324.4 L1723.7,301 L1664.6,301 L1664.6,252.7 L1636.7,257.5 L1636.7,396.7 C1636.7,407.1 1637.55,416.25 1639.25,424.15 C1640.95,432.05 1643.9,438.7 1648.1,444.1 C1652.3,449.5 1657.85,453.55 1664.75,456.25 C1671.65,458.95 1680.4,460.3 1691,460.3 Z M1805.9,460 L1809.8,436.6 C1805.4,436 1801.7,435.25 1798.7,434.35 C1795.7,433.45 1793.3,432.1 1791.5,430.3 C1789.7,428.5 1788.4,426.1 1787.6,423.1 C1786.8,420.1 1786.4,416.3 1786.4,411.7 L1786.4,411.7 L1786.4,224.2 L1758.5,229 L1758.5,416.2 C1758.5,431 1762.1,441.9 1769.3,448.9 C1776.5,455.9 1788.7,459.6 1805.9,460 L1805.9,460 Z" id="next-intl" fill="#24292F" fill-rule="nonzero"></path>
    </g>
</svg>