<?xml version="1.0" encoding="UTF-8"?>
<svg width="2962px" height="1191px" viewBox="0 0 2962 1191" version="1.1" xmlns="http://www.w3.org/2000/svg" xmlns:xlink="http://www.w3.org/1999/xlink">
    <title>logo</title>
    <g id="logo" stroke="none" stroke-width="1" fill="none" fill-rule="evenodd">
        <g id="Group" transform="translate(646.000000, 395.500000)">
            <path d="M613.8,311.5 L613.8,175.3 C615.8,174.5 620.15,173.6 626.85,172.6 C633.55,171.6 641.5,171.1 650.7,171.1 C659.3,171.1 666.45,172.15 672.15,174.25 C677.85,176.35 682.45,179.8 685.95,184.6 C689.45,189.4 691.95,195.6 693.45,203.2 C694.95,210.8 695.7,220.1 695.7,231.1 L695.7,231.1 L695.7,311.5 L715.2,311.5 L715.2,224.8 C715.2,214.2 714.2,204.5 712.2,195.7 C710.2,186.9 706.85,179.35 702.15,173.05 C697.45,166.75 691.15,161.9 683.25,158.5 C675.35,155.1 665.5,153.4 653.7,153.4 C639.5,153.4 627.5,154.4 617.7,156.4 C607.9,158.4 600.1,160.2 594.3,161.8 L594.3,161.8 L594.3,311.5 L613.8,311.5 Z M830.9,314.8 C841.3,314.8 850.35,313.7 858.05,311.5 C865.75,309.3 871,307.4 873.8,305.8 L873.8,305.8 L870.2,289 C867.4,290.4 862.9,292.1 856.7,294.1 C850.5,296.1 842.1,297.1 831.5,297.1 C812.3,297.1 798.3,292 789.5,281.8 C780.7,271.6 776,257 775.4,238 L775.4,238 L884.3,238 C884.5,236.6 884.65,235.1 884.75,233.5 C884.85,231.9 884.9,230.3 884.9,228.7 C884.9,202.9 879.25,183.8 867.95,171.4 C856.65,159 841.5,152.8 822.5,152.8 C813.9,152.8 805.55,154.45 797.45,157.75 C789.35,161.05 782.15,166.1 775.85,172.9 C769.55,179.7 764.45,188.15 760.55,198.25 C756.65,208.35 754.7,220.2 754.7,233.8 C754.7,245.6 756.1,256.45 758.9,266.35 C761.7,276.25 766.2,284.8 772.4,292 C778.6,299.2 786.5,304.8 796.1,308.8 C805.7,312.8 817.3,314.8 830.9,314.8 Z M864.8,221.5 L776,221.5 C776.4,214.7 777.75,208.2 780.05,202 C782.35,195.8 785.55,190.35 789.65,185.65 C793.75,180.95 798.55,177.2 804.05,174.4 C809.55,171.6 815.8,170.2 822.8,170.2 C836,170.2 846.2,174.7 853.4,183.7 C860.6,192.7 864.4,205.3 864.8,221.5 L864.8,221.5 Z M930.1,311.5 C932.5,307.1 935.4,302.05 938.8,296.35 C942.2,290.65 945.95,284.7 950.05,278.5 C954.15,272.3 958.4,266 962.8,259.6 C967.2,253.2 971.6,247.1 976,241.3 C980.2,247.1 984.55,253.2 989.05,259.6 C993.55,266 997.85,272.3 1001.95,278.5 C1006.05,284.7 1009.8,290.65 1013.2,296.35 C1016.6,302.05 1019.5,307.1 1021.9,311.5 L1021.9,311.5 L1042.9,311.5 C1039.1,304.1 1034.95,296.6 1030.45,289 C1025.95,281.4 1021.3,274.05 1016.5,266.95 C1011.7,259.85 1006.9,253 1002.1,246.4 C997.3,239.8 992.8,233.7 988.6,228.1 L988.6,228.1 L1038.1,156.4 L1016.8,156.4 L976,215.8 L935.8,156.4 L913,156.4 L963.4,229.3 C954,242.1 944.8,255.15 935.8,268.45 C926.8,281.75 918.2,296.1 910,311.5 L910,311.5 L930.1,311.5 Z M1125.3,314.8 C1133.5,314.8 1141.1,313.65 1148.1,311.35 C1155.1,309.05 1160,307 1162.8,305.2 L1162.8,305.2 L1158,289 C1155.2,290.6 1151.3,292.35 1146.3,294.25 C1141.3,296.15 1134.7,297.1 1126.5,297.1 C1121.7,297.1 1117.3,296.6 1113.3,295.6 C1109.3,294.6 1105.9,292.6 1103.1,289.6 C1100.3,286.6 1098.15,282.35 1096.65,276.85 C1095.15,271.35 1094.4,264.2 1094.4,255.4 L1094.4,255.4 L1094.4,172.9 L1156.2,172.9 L1156.2,156.4 L1094.4,156.4 L1094.4,107.2 L1074.9,110.8 L1074.9,253.6 C1074.9,264 1075.7,273 1077.3,280.6 C1078.9,288.2 1081.65,294.55 1085.55,299.65 C1089.45,304.75 1094.65,308.55 1101.15,311.05 C1107.65,313.55 1115.7,314.8 1125.3,314.8 Z M1233.2,234.1 L1233.2,215.2 L1165.4,215.2 L1165.4,234.1 L1233.2,234.1 Z M1276,124.6 C1280,124.6 1283.4,123.25 1286.2,120.55 C1289,117.85 1290.4,114.2 1290.4,109.6 C1290.4,105 1289,101.35 1286.2,98.65 C1283.4,95.95 1280,94.6 1276,94.6 C1272,94.6 1268.6,95.95 1265.8,98.65 C1263,101.35 1261.6,105 1261.6,109.6 C1261.6,114.2 1263,117.85 1265.8,120.55 C1268.6,123.25 1272,124.6 1276,124.6 Z M1285.9,311.5 L1285.9,156.4 L1266.4,156.4 L1266.4,311.5 L1285.9,311.5 Z M1356,311.5 L1356,175.3 C1358,174.5 1362.35,173.6 1369.05,172.6 C1375.75,171.6 1383.7,171.1 1392.9,171.1 C1401.5,171.1 1408.65,172.15 1414.35,174.25 C1420.05,176.35 1424.65,179.8 1428.15,184.6 C1431.65,189.4 1434.15,195.6 1435.65,203.2 C1437.15,210.8 1437.9,220.1 1437.9,231.1 L1437.9,231.1 L1437.9,311.5 L1457.4,311.5 L1457.4,224.8 C1457.4,214.2 1456.4,204.5 1454.4,195.7 C1452.4,186.9 1449.05,179.35 1444.35,173.05 C1439.65,166.75 1433.35,161.9 1425.45,158.5 C1417.55,155.1 1407.7,153.4 1395.9,153.4 C1381.7,153.4 1369.7,154.4 1359.9,156.4 C1350.1,158.4 1342.3,160.2 1336.5,161.8 L1336.5,161.8 L1336.5,311.5 L1356,311.5 Z M1555.4,314.8 C1563.6,314.8 1571.2,313.65 1578.2,311.35 C1585.2,309.05 1590.1,307 1592.9,305.2 L1592.9,305.2 L1588.1,289 C1585.3,290.6 1581.4,292.35 1576.4,294.25 C1571.4,296.15 1564.8,297.1 1556.6,297.1 C1551.8,297.1 1547.4,296.6 1543.4,295.6 C1539.4,294.6 1536,292.6 1533.2,289.6 C1530.4,286.6 1528.25,282.35 1526.75,276.85 C1525.25,271.35 1524.5,264.2 1524.5,255.4 L1524.5,255.4 L1524.5,172.9 L1586.3,172.9 L1586.3,156.4 L1524.5,156.4 L1524.5,107.2 L1505,110.8 L1505,253.6 C1505,264 1505.8,273 1507.4,280.6 C1509,288.2 1511.75,294.55 1515.65,299.65 C1519.55,304.75 1524.75,308.55 1531.25,311.05 C1537.75,313.55 1545.8,314.8 1555.4,314.8 Z M1660.6,314.2 L1663.3,298 C1659.3,297.4 1655.85,296.7 1652.95,295.9 C1650.05,295.1 1647.7,293.85 1645.9,292.15 C1644.1,290.45 1642.75,288.15 1641.85,285.25 C1640.95,282.35 1640.5,278.5 1640.5,273.7 L1640.5,273.7 L1640.5,78.7 L1621,82.3 L1621,274.3 C1621,281.7 1621.85,287.85 1623.55,292.75 C1625.25,297.65 1627.75,301.65 1631.05,304.75 C1634.35,307.85 1638.45,310.15 1643.35,311.65 C1648.25,313.15 1654,314 1660.6,314.2 L1660.6,314.2 Z" id="next-intl" fill="#24292F" fill-rule="nonzero"></path>
            <g id="Oval-2">
                <path d="M199.5,9 C252.105122,9 299.730122,30.3224388 334.203842,64.7961582 C368.677561,99.2698776 390,146.894878 390,199.5 C390,240.135857 377.278818,277.80115 355.596981,308.726786 C348.309466,319.121247 340.010248,328.754557 330.84244,337.483903 C326.629707,341.495156 322.23356,345.315533 317.667858,348.931147 C285.193938,374.647487 244.139569,390 199.5,390 C146.894878,390 99.2698776,368.677561 64.7961582,334.203842 C30.3224388,299.730122 9,252.105122 9,199.5 C9,146.894878 30.3224388,99.2698776 64.7961582,64.7961582 C99.2698776,30.3224388 146.894878,9 199.5,9 L199.5,9 Z" id="Oval" stroke="#5FC3E7" stroke-width="18"></path>
                <rect id="Rectangle" fill="#FFFFFF" x="323" y="313.5" width="42" height="32"></rect>
                <circle id="Oval" fill="#5FC3E7" cx="328.7" cy="339.5" r="9"></circle>
                <line x1="39.5" y1="105" x2="353" y2="105.5" id="Line-3" stroke="#5FC3E7" stroke-width="18" stroke-linecap="square"></line>
                <ellipse id="Oval" stroke="#5FC3E7" stroke-width="18" cx="201.5" cy="199.5" rx="93.5" ry="190.5"></ellipse>
                <line x1="49" y1="304.5" x2="353" y2="304.5" id="Line-3-Copy" stroke="#5FC3E7" stroke-width="18" stroke-linecap="square"></line>
                <line x1="8.5" y1="206" x2="388.5" y2="206" id="Line-2" stroke="#5FC3E7" stroke-width="18" stroke-linecap="square"></line>
            </g>
        </g>
    </g>
</svg>