<?xml version="1.0" encoding="UTF-8"?>
<svg width="1250px" height="558px" viewBox="0 0 1250 558" version="1.1" xmlns="http://www.w3.org/2000/svg" xmlns:xlink="http://www.w3.org/1999/xlink">
    <title>partner</title>
    <g id="partner" stroke="none" stroke-width="1" fill="none" fill-rule="evenodd">
        <rect fill="#FFFFFF" x="0" y="0" width="1250" height="558"></rect>
        <g id="Group" transform="translate(268.000000, 95.000000)" fill-rule="nonzero">
            <g id="crowdin-core-logo-cDark" transform="translate(8.677749, 128.469305)" fill="#263238">
                <path d="M175.147025,78.4189665 C171.284749,78.4189665 169.353379,77.7612718 169.353379,74.7258647 C169.353379,73.9856684 169.567976,73.0971548 170.06901,72.0607874 L182.647248,45.0316199 L219.962501,45.0316199 C225.376548,45.0316199 224.984434,50.1010141 223.095242,54.2900521 L222.136741,56.2543299 L237.80137,56.2543299 L238.807147,54.2900521 C242.734776,46.4343312 240.776987,39.1398061 230.69048,39.1398061 L169.808064,39.1398061 L153.68875,73.8378146 C153.330934,74.8737185 153.188179,75.8363908 153.188179,76.7985996 C153.188179,79.8340067 154.833111,82.276608 158.052061,84.0536352 C160.627221,85.4603325 163.559733,86.2000652 166.849597,86.2000652 L223.89013,86.2746874 L227.792267,78.4189665 L175.147025,78.4189665 Z M300.483988,39.1398061 L253.349199,39.1398061 L233.710129,86.2000652 L249.42157,86.2000652 L267.096826,45.0316199 L289.771304,45.0316199 C296.494714,45.0316199 296.556359,50.9232483 292.628267,56.8151548 L308.364737,56.8151548 L310.303986,52.8875262 C312.827235,45.6008341 308.62661,39.1398061 300.483988,39.1398061 Z M384.93403,39.1398061 L322.087799,39.1398061 C316.195893,54.8513405 312.267801,62.7070614 308.340172,74.4908744 C306.375894,82.3465952 311.21382,86.2000652 320.63568,86.2000652 L378.573069,86.2000652 L393.65787,53.2930814 C396.06571,45.8402739 393.29542,39.1398061 384.93403,39.1398061 Z M367.25831,78.4189665 L329.3382,78.4189665 C325.545447,78.4189665 323.282681,77.6871132 323.282681,74.7258647 C323.282681,73.8378146 323.496814,72.949301 323.92508,72.0607874 L335.835427,45.0316199 L373.150217,45.0316199 C380.592039,45.0316199 379.389278,50.0449316 376.991172,55.3658163 L367.25831,78.4189665 Z M405.610394,86.2746874 L487.797206,86.2746874 L508.663603,39.1398061 L492.951234,39.0658328 L474.777724,79.1679691 L448.313739,79.1679691 L465.739636,39.1398061 L449.575827,39.213733 L432.147612,79.1679691 L414.052432,79.1679691 C410.190156,79.1679691 408.257859,77.6871132 408.257859,74.7258647 C408.257859,73.8378146 408.471992,72.949301 408.903039,72.0607874 L424.213097,39.1398061 L408.501192,39.1398061 L392.305865,74.0593636 C391.950367,75.0961945 391.805294,76.0584033 391.805294,77.0206121 C391.805294,80.0560192 393.523921,82.499084 396.885627,84.201489 C399.388018,85.6081863 402.393762,86.2746874 405.610394,86.2746874 Z M601.315594,19.5003186 L583.290402,23.4282254 L577.399422,39.1398061 L535.842756,39.1398061 C521.68772,38.9179326 516.519787,43.0676665 512.589377,50.9232483 L500.807418,76.4546887 C498.842214,82.3465952 501.080879,86.2746874 508.663603,86.2746874 L571.508443,86.2746874 L601.315594,19.5003186 Z M522.410767,78.2794555 C516.519787,78.2794555 514.554582,74.7258647 516.519787,70.5627822 L524.375971,54.8513405 C528.301746,46.9956197 530.266951,45.0316199 538.123135,45.0316199 L575.438852,45.0316199 L559.323246,78.2794555 L522.410767,78.2794555 Z M597.167343,86.2746874 L618.645549,35.2118993 L601.315594,39.1398061 L580.926594,86.2746874 L597.167343,86.2746874 Z M620.606119,29.3200392 L624.536528,19.5003186 L606.858955,23.4282254 L602.93318,33.247946 L620.606119,29.3200392 Z M685.416163,39.1398061 L626.714939,39.1398061 L605.964416,86.2746874 L622.131006,86.2746874 L640.248897,45.0316199 L673.634204,45.0316199 C683.455593,45.0316199 679.525184,53.0265737 677.559979,56.9546659 L663.812815,86.4137349 L679.525184,86.4137349 L693.272347,54.9908515 C697.782122,44.7575109 696.577043,39.1398061 685.416163,39.1398061 Z" id="Shape"></path>
                <path d="M130.076629,38.8934139 C125.646575,38.3497382 121.289753,38.0740069 117.111375,38.0841065 C103.548681,38.117946 80.370388,42.4132626 80.370388,60.4415139 L84.698937,61.2822879 C84.6410006,62.0632714 84.6410006,62.8479628 84.698937,63.6294098 C84.698937,65.07365 84.698937,66.4580997 84.698937,67.7220416 L80.370388,67.4156736 C81.5189205,83.6884037 91.0561892,88.1847367 100.038658,88.4252889 C104.33569,88.4252889 108.382899,87.9650416 112.34529,86.1384208 C112.48063,86.0749225 112.590477,85.9646114 112.655829,85.8269544 C112.721182,85.6888339 112.737868,85.5321737 112.703569,85.3829294 C112.668807,85.233685 112.585379,85.1011264 112.466725,85.0084281 C112.348534,84.9157297 112.202535,84.8684536 112.053754,84.874479 C103.771621,86.0781669 95.2966748,79.3547563 95.2966748,65.0907992 C95.2966748,47.0354799 109.6626,40.0971019 130.251365,40.0971019 C130.718101,40.1573094 130.776501,39.0137827 130.076629,38.8934139 Z M84.9631273,70.9025216 C87.2592652,70.9025216 89.1901716,70.9025216 91.8520045,70.9025216 C92.4156104,75.7455464 94.3562501,81.3774341 97.8222411,84.6941807 C94.5912404,84.2839905 91.5929126,82.747979 89.3231937,80.3401397 C87.0534749,77.9327638 85.2708858,74.2466143 84.9631273,70.9025216 Z M92.631134,55.6851621 C92.631134,56.2867743 92.1643979,57.3699544 91.9312615,58.453598 L89.1901716,58.453598 C87.7236839,58.3850012 86.262758,58.2241696 84.8152734,57.9720301 C84.8361306,57.8325191 84.8361306,57.6902272 84.8152734,57.5507162 C86.6238181,47.8609587 95.89736,43.8285809 104.879829,42.1433714 C101.988568,43.3149394 99.387916,45.13915 97.268832,47.4822859 C95.1492844,49.8252365 93.5646063,52.6279708 92.631134,55.6851621 Z" id="Shape"></path>
                <path d="M139.436843,24.4682544 C121.271677,19.1954801 44.7788603,12.8027245 44.7788603,56.9713516 C47.3540202,57.3486338 49.1421711,57.9275349 50.5196685,58.1161761 C50.3361258,61.4792718 50.5196685,65.1640309 50.5196685,68.5771838 L43.6306986,67.4147466 C43.6306986,92.9865107 61.6212217,101.043387 75.8138011,101.043387 C78.1572152,101.032263 80.4973848,100.864479 82.8204052,100.540498 C88.6668895,99.869826 94.3377105,98.0343988 99.5288175,95.1324773 C99.6419095,95.0490488 99.727192,94.9299314 99.7726141,94.7927379 C99.8180363,94.6555443 99.8208173,94.5067635 99.7814205,94.3672525 C99.7415602,94.228205 99.6609126,94.1058432 99.5510651,94.0173163 C99.4412176,93.9287894 99.307732,93.8787323 99.1691479,93.8745608 C87.1920589,96.3899303 70.7835257,92.9943901 70.7835257,63.3133085 C70.7835257,23.8227495 124.106392,26.4176541 139.616678,25.7887886 C139.748773,25.7283956 139.858621,25.6240173 139.929072,25.4917831 C139.999522,25.3595026 140.026405,25.206643 140.006011,25.0566571 C139.985618,24.9066712 139.918875,24.7678554 139.81598,24.6615304 C139.713085,24.5552518 139.580062,24.4873503 139.436843,24.4682544 Z M75.8735915,97.7108816 C68.9851779,98.1697384 62.1959514,95.8045403 56.9348571,91.1130773 C51.6742263,86.4216143 48.3519178,79.7695814 47.667804,72.557187 C52.2188291,73.1861452 58.0277706,73.6890337 62.8786747,73.9407097 C63.1196904,78.9070233 64.6024003,83.7189942 67.1784872,87.8922734 C69.7541106,92.0650892 73.331803,95.4518231 77.5505045,97.7108816 L75.8735915,97.7108816 Z M64.734959,49.9823602 C64.3757529,51.3654194 63.8367121,53.8182175 63.3579251,55.9563047 L56.1714863,55.2017402 L48.925257,54.2580711 C48.925257,31.1659876 84.9640543,23.2461195 98.7422721,23.2461195 C80.0579946,27.836634 67.7893693,37.2797676 64.734959,49.7937191 L64.734959,49.9823602 Z" id="Shape"></path>
                <path d="M148.783154,11.4064557 C126.649571,3.56131637 101.539445,-0.29401038 78.0742501,0.0174725438 C44.1515242,0.0174725438 1.14815237,10.478499 0,46.5108073 L9.18524679,48.8356817 C8.03708515,53.484967 8.03708515,62.7835375 8.03708515,62.7835375 C8.03708515,62.7835375 2.80026854,61.1784657 0,60.4591266 C0,103.078116 24.0821018,113.908899 47.2585409,113.908899 C56.6187558,113.937726 65.905739,112.251543 74.6657322,108.933406 C74.8038527,108.869908 74.9160177,108.76006 74.9827605,108.622867 C75.0490398,108.485673 75.0666525,108.329013 75.0314271,108.180696 C74.9962017,108.031915 74.9109193,107.900283 74.7894844,107.808048 C74.6685131,107.71535 74.5192688,107.668537 74.367707,107.674563 C67.1585571,107.674563 61.4390695,110.072205 49.9996308,101.680225 C27.7760843,85.5553483 30.5167571,43.5956763 55.9573531,25.3131534 C82.1729073,6.01164405 138.833377,12.0058895 148.544919,12.6053233 C148.623249,12.6210821 148.703897,12.6211284 148.782227,12.6055551 C148.860557,12.5899818 148.934715,12.5590669 149.000995,12.5145253 C149.067738,12.4699838 149.124747,12.4127425 149.168779,12.3460461 C149.213274,12.2793496 149.244328,12.2044957 149.260087,12.1257948 C149.275382,12.0470476 149.275845,11.9660292 149.260087,11.887282 C149.244791,11.8084884 149.213737,11.7335882 149.169706,11.666799 C149.125674,11.6000098 149.068665,11.5426296 149.002385,11.497949 C148.936106,11.4533147 148.861484,11.4222144 148.783154,11.4064557 Z M47.4972391,110.311831 C19.9710695,110.311831 5.9034011,94.840014 4.59261876,65.1084119 C12.0672845,67.0587849 19.1167616,69.0063771 26.7632159,70.0904842 C26.3024588,81.742202 30.2886265,93.1297297 37.9046758,101.91985 C41.7992575,105.836355 46.5850874,108.737813 51.8466452,110.372084 L47.4972391,110.311831 Z M109.87766,6.7908663 C76.3319848,6.7908663 37.4698279,11.0015957 29.8520173,48.8356817 C29.8520173,48.8356817 9.18524679,45.3486019 4.59261876,44.1862574 C10.3334084,-3.46953756 89.5558666,0.126089692 121.704114,6.7908663 L109.87766,6.7908663 Z" id="Shape"></path>
            </g>
            <g id="PRESENTED-BY" transform="translate(155.581392, 0.000000)" fill="#64748B">
                <path d="M0,30.469305 L0,0.410954017 L10.156435,0.410954017 C12.5145283,0.410954017 14.4445445,0.834138809 15.9464836,1.68050839 C17.4484227,2.52687798 18.5614231,3.6692323 19.285485,5.10757136 C20.0095468,6.54591042 20.3715777,8.15058801 20.3715777,9.92160413 C20.3715777,11.6926203 20.011993,13.3021902 19.2928234,14.7503138 C18.5736539,16.1984375 17.4655457,17.3505765 15.968499,18.2067307 C14.4714522,19.0628849 12.5536668,19.490962 10.2151427,19.490962 L2.93538584,19.490962 L2.93538584,16.2620375 L10.0977273,16.2620375 C11.7121895,16.2620375 13.0086516,15.9831759 13.9871135,15.4254526 C14.9655755,14.8677293 15.6774065,14.1118674 16.1226067,13.157867 C16.5678069,12.2038666 16.790407,11.1251123 16.790407,9.92160413 C16.790407,8.71809594 16.5678069,7.6417878 16.1226067,6.69267971 C15.6774065,5.74357162 14.9606832,4.99749439 13.9724366,4.45444801 C12.98419,3.91140163 11.673051,3.63987844 10.0390196,3.63987844 L3.63987844,3.63987844 L3.63987844,30.469305 L0,30.469305 Z" id="Path"></path>
                <path d="M34.9056395,30.469305 L34.9056395,0.410954017 L45.0620745,0.410954017 C47.4103831,0.410954017 49.3379532,0.80967726 50.8447846,1.60712375 C52.351616,2.40457023 53.4670626,3.49800146 54.1911244,4.88741742 C54.9151863,6.27683338 55.2772172,7.85704943 55.2772172,9.62806555 C55.2772172,11.3990817 54.9151863,12.9695131 54.1911244,14.3393598 C53.4670626,15.7092065 52.3565083,16.7830685 50.8594615,17.5609458 C49.3624147,18.338823 47.4495216,18.7277616 45.1207822,18.7277616 L36.9017018,18.7277616 L36.9017018,15.4401295 L45.0033667,15.4401295 C46.6080443,15.4401295 47.9020603,15.2052986 48.8854145,14.7356369 C49.8687688,14.2659752 50.583046,13.5981749 51.0282462,12.7322361 C51.4734464,11.8662973 51.6960465,10.8315737 51.6960465,9.62806555 C51.6960465,8.42455736 51.4710002,7.37271076 51.0209077,6.47252577 C50.5708152,5.57234078 49.8516457,4.87518665 48.8633991,4.38106336 C47.8751526,3.88694008 46.5689059,3.63987844 44.944659,3.63987844 L38.5455179,3.63987844 L38.5455179,30.469305 L34.9056395,30.469305 Z M49.0541992,16.9665301 L56.4513715,30.469305 L52.2244159,30.469305 L44.944659,16.9665301 L49.0541992,16.9665301 Z" id="Shape"></path>
                <polygon id="Path" points="69.9874021 30.469305 69.9874021 0.410954017 88.1280865 0.410954017 88.1280865 3.63987844 73.6272805 3.63987844 73.6272805 13.7963134 87.1887631 13.7963134 87.1887631 17.0252379 73.6272805 17.0252379 73.6272805 27.2403806 88.3629174 27.2403806 88.3629174 30.469305"></polygon>
                <path d="M119.804802,7.92554176 C119.628678,6.4382796 118.914401,5.28369451 117.66197,4.46178647 C116.409539,3.63987844 114.873353,3.22892442 113.053414,3.22892442 C111.722706,3.22892442 110.560782,3.44418605 109.567643,3.87470931 C108.574505,4.30523256 107.80152,4.89720204 107.248689,5.65061774 C106.695858,6.40403344 106.419442,7.26018764 106.419442,8.21908035 C106.419442,9.02141914 106.612688,9.70878866 106.999181,10.2811889 C107.385673,10.8535891 107.882243,11.3281432 108.488889,11.704851 C109.095536,12.0815589 109.731536,12.3897744 110.39689,12.6294976 C111.062244,12.8692207 111.673783,13.062467 112.231506,13.2092363 L115.284307,14.0311443 C116.067077,14.2366213 116.940354,14.5203753 117.904139,14.8824062 C118.867924,15.2444371 119.792571,15.7361142 120.678079,16.3574376 C121.563587,16.9787609 122.294987,17.7737612 122.87228,18.7424386 C123.449572,19.7111159 123.738219,20.8999472 123.738219,22.3089324 C123.738219,23.9331792 123.315034,25.4008721 122.468664,26.7120111 C121.622295,28.0231501 120.389433,29.0652121 118.770078,29.838197 C117.150724,30.611182 115.186461,30.9976745 112.877291,30.9976745 C110.724675,30.9976745 108.863151,30.6503205 107.292719,29.9556125 C105.722288,29.2609045 104.489426,28.2922272 103.594133,27.0495805 C102.698841,25.8069338 102.192487,24.3637025 102.075071,22.7198864 L105.832365,22.7198864 C105.930211,23.8549022 106.314257,24.7917796 106.984504,25.5305183 C107.65475,26.2692571 108.506012,26.8171958 109.53829,27.1743344 C110.570567,27.531473 111.683567,27.7100423 112.877291,27.7100423 C114.266707,27.7100423 115.514246,27.4825499 116.619908,27.0275651 C117.72557,26.5725803 118.601293,25.93658 119.247078,25.1195643 C119.892863,24.3025486 120.215756,23.346102 120.215756,22.2502247 C120.215756,21.2521935 119.936894,20.4400701 119.379171,19.8138544 C118.821447,19.1876388 118.087601,18.6788385 117.177631,18.2874538 C116.267662,17.896069 115.284307,17.5536073 114.227568,17.2600687 L110.528982,16.2033298 C108.180674,15.5281911 106.321596,14.5644061 104.951749,13.3119748 C103.581903,12.0595435 102.896979,10.4206197 102.896979,8.3952035 C102.896979,6.71224895 103.35441,5.24210988 104.269272,3.98478628 C105.184134,2.72746267 106.416996,1.74900073 107.967858,1.04940044 C109.51872,0.349800146 111.253044,0 113.17083,0 C115.108184,0 116.830277,0.344907836 118.337109,1.03472351 C119.84394,1.72453918 121.04011,2.6663088 121.925618,3.86003238 C122.811126,5.05375595 123.278341,6.40892575 123.327265,7.92554176 L119.804802,7.92554176 Z" id="Path"></path>
                <polygon id="Path" points="138.389696 30.469305 138.389696 0.410954017 156.53038 0.410954017 156.53038 3.63987844 142.029574 3.63987844 142.029574 13.7963134 155.591057 13.7963134 155.591057 17.0252379 142.029574 17.0252379 142.029574 27.2403806 156.765211 27.2403806 156.765211 30.469305"></polygon>
                <polygon id="Path" points="195.604268 0.410954017 195.604268 30.469305 192.081805 30.469305 175.702352 6.86880286 175.408813 6.86880286 175.408813 30.469305 171.768935 30.469305 171.768935 0.410954017 175.291398 0.410954017 191.729558 24.0701639 192.023097 24.0701639 192.023097 0.410954017"></polygon>
                <polygon id="Path" points="209.903498 3.63987844 209.903498 0.410954017 232.447262 0.410954017 232.447262 3.63987844 222.995319 3.63987844 222.995319 30.469305 219.355441 30.469305 219.355441 3.63987844"></polygon>
                <polygon id="Path" points="246.746493 30.469305 246.746493 0.410954017 264.887177 0.410954017 264.887177 3.63987844 250.386371 3.63987844 250.386371 13.7963134 263.947854 13.7963134 263.947854 17.0252379 250.386371 17.0252379 250.386371 27.2403806 265.122008 27.2403806 265.122008 30.469305"></polygon>
                <path d="M289.401551,30.469305 L280.125731,30.469305 L280.125731,0.410954017 L289.812505,0.410954017 C292.728321,0.410954017 295.223399,1.01026196 297.297739,2.20887784 C299.372078,3.40749373 300.962079,5.12469444 302.067741,7.36047999 C303.173403,9.59626554 303.726234,12.2699128 303.726234,15.3814218 C303.726234,18.5125 303.16851,21.2057165 302.053064,23.4610713 C300.937617,25.7164261 299.31337,27.4483037 297.180323,28.6567042 C295.047276,29.8651047 292.454352,30.469305 289.401551,30.469305 Z M283.76561,27.2403806 L289.16672,27.2403806 C291.652013,27.2403806 293.711676,26.7609342 295.345707,25.8020415 C296.979738,24.8431488 298.197924,23.4781944 299.000262,21.7071783 C299.802601,19.9361622 300.203771,17.8275767 300.203771,15.3814218 C300.203771,12.9548362 299.807493,10.8633738 299.014939,9.10703456 C298.222385,7.35069537 297.038446,6.00041788 295.463122,5.05620211 C293.887799,4.11198633 291.925982,3.63987844 289.577674,3.63987844 L283.76561,3.63987844 L283.76561,27.2403806 Z" id="Shape"></path>
                <path d="M338.782544,30.469305 L338.782544,0.410954017 L349.291225,0.410954017 C351.385134,0.410954017 353.112119,0.770538782 354.472181,1.48970831 C355.832244,2.20887784 356.844952,3.17266286 357.510306,4.38106336 C358.17566,5.58946387 358.508337,6.92751058 358.508337,8.3952035 C358.508337,9.68677327 358.280845,10.7532968 357.82586,11.5947741 C357.370875,12.4362513 356.774013,13.1016055 356.035274,13.5908364 C355.296536,14.0800674 354.496643,14.4420983 353.635596,14.6769292 L353.635596,14.9704678 C354.555351,15.0291755 355.479997,15.3520679 356.409536,15.9391451 C357.339075,16.5262223 358.116952,17.3676995 358.743168,18.4635769 C359.369383,19.5594543 359.682491,20.8999472 359.682491,22.4850555 C359.682491,23.9918869 359.34003,25.3470567 358.655106,26.5505649 C357.970183,27.7540731 356.888982,28.7080735 355.411505,29.4125661 C353.934027,30.1170587 352.01135,30.469305 349.643472,30.469305 L338.782544,30.469305 Z M342.422423,27.2403806 L349.643472,27.2403806 C352.021134,27.2403806 353.711427,26.7780573 354.714351,25.8534108 C355.717274,24.9287642 356.218736,23.8059791 356.218736,22.4850555 C356.218736,21.4674551 355.959444,20.5256855 355.440859,19.6597467 C354.922274,18.7938078 354.183535,18.0990998 353.224642,17.5756227 C352.26575,17.0521456 351.130734,16.790407 349.819595,16.790407 L342.422423,16.790407 L342.422423,27.2403806 Z M342.422423,13.6201903 L349.17381,13.6201903 C350.269687,13.6201903 351.26038,13.4049287 352.145888,12.9744054 C353.031396,12.5438821 353.735889,11.9372357 354.259366,11.1544662 C354.782843,10.3716966 355.044582,9.4519424 355.044582,8.3952035 C355.044582,7.07427987 354.584705,5.95149479 353.66495,5.02684825 C352.745196,4.10220171 351.287288,3.63987844 349.291225,3.63987844 L342.422423,3.63987844 L342.422423,13.6201903 Z" id="Shape"></path>
                <polygon id="Path" points="371.750829 0.410954017 375.919077 0.410954017 384.255573 14.4420983 384.607819 14.4420983 392.944315 0.410954017 397.112563 0.410954017 386.251635 18.0819768 386.251635 30.469305 382.611757 30.469305 382.611757 18.0819768"></polygon>
            </g>
            <g id="Agile-localization-f" transform="translate(0.000000, 322.001969)" fill="#334155">
                <path d="M3.81600159,31.4673362 L0,31.4673362 L11.0370508,1.4089852 L14.7943446,1.4089852 L25.8313954,31.4673362 L22.0153938,31.4673362 L13.0331131,6.16431026 L12.7982823,6.16431026 L3.81600159,31.4673362 Z M5.22498679,19.7257928 L20.6064086,19.7257928 L20.6064086,22.9547173 L5.22498679,22.9547173 L5.22498679,19.7257928 Z" id="Shape"></path>
                <path d="M39.1580471,40.3909091 C37.4848772,40.3909091 36.0465381,40.1780937 34.8430299,39.7524627 C33.6395217,39.3268318 32.6390444,38.7691085 31.8415979,38.0792928 C31.0441514,37.3894771 30.4105973,36.6531845 29.9409355,35.8704149 L32.7001982,33.9330603 C33.0133061,34.3440143 33.4095831,34.8161222 33.8890295,35.349384 C34.3684759,35.8826457 35.0264915,36.3474151 35.8630765,36.7436922 C36.6996614,37.1399693 37.797985,37.3381079 39.1580471,37.3381079 C40.9779863,37.3381079 42.4799254,36.8978 43.6638643,36.0171842 C44.8478033,35.1365685 45.4397728,33.7569371 45.4397728,31.8782902 L45.4397728,27.2990883 L45.1462342,27.2990883 C44.8918341,27.7100423 44.5322493,28.2163964 44.0674799,28.8181505 C43.6027105,29.4199046 42.9373563,29.9531663 42.0714175,30.4179357 C41.2054787,30.8827052 40.0386628,31.1150899 38.5709699,31.1150899 C36.7510307,31.1150899 35.1194454,30.6845666 33.676214,29.8235201 C32.2329827,28.9624736 31.0930745,27.7100423 30.2564895,26.0662262 C29.4199046,24.4224102 29.0016121,22.4263478 29.0016121,20.0780391 C29.0016121,17.7688689 29.4076738,15.7556835 30.2197972,14.0384828 C31.0319206,12.3212821 32.1620442,10.9905738 33.6101678,10.046358 C35.0582915,9.10214225 36.7314615,8.63003436 38.6296776,8.63003436 C40.0973705,8.63003436 41.2641864,8.8722037 42.1301252,9.35654236 C42.9960641,9.84088102 43.6614182,10.3888197 44.1261876,11.0003584 C44.590957,11.6118971 44.9505418,12.1133589 45.2049419,12.5047437 L45.5571882,12.5047437 L45.5571882,8.92357295 L48.9035281,8.92357295 L48.9035281,32.1131211 C48.9035281,34.0504757 48.4656663,35.6282456 47.5899429,36.8464307 C46.7142195,38.0646159 45.5400651,38.9599085 44.0674799,39.5323088 C42.5948947,40.104709 40.9584171,40.3909091 39.1580471,40.3909091 Z M39.0406316,28.0035809 C40.4300476,28.0035809 41.6042019,27.6855808 42.5630947,27.0495805 C43.5219874,26.4135802 44.2509415,25.4987183 44.7499571,24.3049947 C45.2489727,23.1112712 45.4984805,21.6827167 45.4984805,20.0193314 C45.4984805,18.3950846 45.253865,16.9616378 44.764634,15.7189912 C44.2754031,14.4763445 43.5513412,13.5027749 42.5924485,12.7982823 C41.6335558,12.0937897 40.4496168,11.7415434 39.0406316,11.7415434 C37.5729387,11.7415434 36.3523074,12.1133589 35.3787378,12.85699 C34.4051682,13.600621 33.676214,14.5986522 33.1918754,15.8510835 C32.7075367,17.1035148 32.4653674,18.4929308 32.4653674,20.0193314 C32.4653674,21.5848705 32.712429,22.966948 33.2065523,24.1655639 C33.7006756,25.3641798 34.434522,26.3035033 35.4080917,26.9835343 C36.3816613,27.6635654 37.592508,28.0035809 39.0406316,28.0035809 Z" id="Shape"></path>
                <path d="M55.2439615,31.4673362 L55.2439615,8.92357295 L58.7077168,8.92357295 L58.7077168,31.4673362 L55.2439615,31.4673362 Z M57.005193,5.16627908 C56.3300542,5.16627908 55.7503155,4.93634052 55.2659769,4.4764634 C54.7816382,4.01658629 54.5394689,3.46375529 54.5394689,2.8179704 C54.5394689,2.17218552 54.7816382,1.61935452 55.2659769,1.15947741 C55.7503155,0.699600291 56.3300542,0.469661734 57.005193,0.469661734 C57.6803317,0.469661734 58.2600704,0.699600291 58.7444091,1.15947741 C59.2287477,1.61935452 59.4709171,2.17218552 59.4709171,2.8179704 C59.4709171,3.46375529 59.2287477,4.01658629 58.7444091,4.4764634 C58.2600704,4.93634052 57.6803317,5.16627908 57.005193,5.16627908 Z" id="Shape"></path>
                <polygon id="Path" points="68.5119055 1.4089852 68.5119055 31.4673362 65.0481502 31.4673362 65.0481502 1.4089852"></polygon>
                <path d="M84.3042813,31.9369979 C82.1320957,31.9369979 80.2607873,31.4551054 78.6903559,30.4913204 C77.1199244,29.5275354 75.9115239,28.1772579 75.0651543,26.4404879 C74.2187848,24.703718 73.7956,22.6807479 73.7956,20.3715777 C73.7956,18.0624075 74.2187848,16.0247605 75.0651543,14.2586367 C75.9115239,12.4925129 77.0954629,11.1128816 78.6169712,10.1197427 C80.1384795,9.1266038 81.9168341,8.63003436 83.952035,8.63003436 C85.1261893,8.63003436 86.2856667,8.82572675 87.4304672,9.21711153 C88.5752677,9.60849631 89.6173296,10.2420504 90.5566531,11.1177739 C91.4959766,11.9934973 92.2445,13.1505286 92.8022233,14.5888676 C93.3599466,16.0272067 93.6388082,17.7982228 93.6388082,19.901916 L93.6388082,21.3696089 L76.2613241,21.3696089 L76.2613241,18.3755153 L90.1163452,18.3755153 C90.1163452,17.1035148 89.8643913,15.968499 89.3604834,14.9704678 C88.8565755,13.9724366 88.1422983,13.1847747 87.2176517,12.6074822 C86.2930052,12.0301896 85.2044663,11.7415434 83.952035,11.7415434 C82.5724036,11.7415434 81.3811262,12.0815589 80.3782027,12.7615899 C79.3752792,13.441621 78.6047404,14.3246829 78.0665864,15.4107756 C77.5284323,16.4968684 77.2593553,17.6612381 77.2593553,18.9038848 L77.2593553,20.8999472 C77.2593553,22.602471 77.55534,24.0432562 78.1473095,25.2223028 C78.739279,26.4013495 79.5636331,27.2966421 80.620372,27.9081809 C81.6771109,28.5197196 82.9050807,28.8254889 84.3042813,28.8254889 C85.2142509,28.8254889 86.0386051,28.6958427 86.7773438,28.4365503 C87.5160826,28.1772579 88.154529,27.7858731 88.6926831,27.262396 C89.2308372,26.7389188 89.6466835,26.0857955 89.9402221,25.3030259 L93.2865619,26.2423494 C92.9343156,27.3773652 92.3423462,28.3729503 91.5106535,29.2291045 C90.6789608,30.0852587 89.6515758,30.7506128 88.4284984,31.2251669 C87.2054209,31.6997209 85.8306819,31.9369979 84.3042813,31.9369979 Z" id="Path"></path>
                <polygon id="Path" points="114.010386 1.4089852 114.010386 31.4673362 110.546631 31.4673362 110.546631 1.4089852"></polygon>
                <path d="M129.509223,31.9369979 C127.474022,31.9369979 125.690775,31.4526593 124.159482,30.4839819 C122.62819,29.5153046 121.434466,28.1601348 120.578312,26.4184725 C119.722158,24.6768103 119.29408,22.6416094 119.29408,20.31287 C119.29408,17.9645613 119.722158,15.9146836 120.578312,14.1632367 C121.434466,12.4117898 122.62819,11.0517277 124.159482,10.0830504 C125.690775,9.11437303 127.474022,8.63003436 129.509223,8.63003436 C131.544424,8.63003436 133.327671,9.11437303 134.858964,10.0830504 C136.390257,11.0517277 137.58398,12.4117898 138.440135,14.1632367 C139.296289,15.9146836 139.724366,17.9645613 139.724366,20.31287 C139.724366,22.6416094 139.296289,24.6768103 138.440135,26.4184725 C137.58398,28.1601348 136.390257,29.5153046 134.858964,30.4839819 C133.327671,31.4526593 131.544424,31.9369979 129.509223,31.9369979 Z M129.509223,28.8254889 C131.055193,28.8254889 132.327194,28.4292118 133.325225,27.6366577 C134.323256,26.8441035 135.061995,25.8020415 135.541441,24.5104717 C136.020887,23.218902 136.260611,21.8197014 136.260611,20.31287 C136.260611,18.8060386 136.020887,17.4019457 135.541441,16.1005913 C135.061995,14.7992369 134.323256,13.7473903 133.325225,12.9450515 C132.327194,12.1427128 131.055193,11.7415434 129.509223,11.7415434 C127.963253,11.7415434 126.691253,12.1427128 125.693222,12.9450515 C124.69519,13.7473903 123.956452,14.7992369 123.477005,16.1005913 C122.997559,17.4019457 122.757836,18.8060386 122.757836,20.31287 C122.757836,21.8197014 122.997559,23.218902 123.477005,24.5104717 C123.956452,25.8020415 124.69519,26.8441035 125.693222,27.6366577 C126.691253,28.4292118 127.963253,28.8254889 129.509223,28.8254889 Z" id="Shape"></path>
                <path d="M154.166464,31.9369979 C152.052986,31.9369979 150.233047,31.4379823 148.706647,30.4399511 C147.180246,29.44192 146.006092,28.0671809 145.184184,26.315734 C144.362276,24.5642872 143.951321,22.5633325 143.951321,20.31287 C143.951321,18.023269 144.374506,16.000299 145.220876,14.2439598 C146.067245,12.4876206 147.251184,11.1128816 148.772693,10.1197427 C150.294201,9.1266038 152.072556,8.63003436 154.107756,8.63003436 C155.692865,8.63003436 157.121419,8.92357295 158.39342,9.51065012 C159.66542,10.0977273 160.707482,10.9196353 161.519606,11.9763742 C162.331729,13.0331131 162.835637,14.2659752 163.031329,15.6749604 L159.567574,15.6749604 C159.303389,14.6475753 158.718758,13.7351596 157.813681,12.9377131 C156.908604,12.1402666 155.692865,11.7415434 154.166464,11.7415434 C152.816187,11.7415434 151.634694,12.0913435 150.621986,12.7909438 C149.609278,13.4905441 148.821616,14.4738983 148.259,15.7410066 C147.696385,17.0081148 147.415077,18.4929308 147.415077,20.1954546 C147.415077,21.9371168 147.691492,23.4537328 148.244323,24.7453026 C148.797154,26.0368724 149.579924,27.0397959 150.592632,27.7540731 C151.60534,28.4683503 152.796617,28.8254889 154.166464,28.8254889 C155.066649,28.8254889 155.883665,28.668935 156.617511,28.3558272 C157.351358,28.0427194 157.972681,27.5926269 158.481481,27.0055497 C158.990282,26.4184725 159.352313,25.7139799 159.567574,24.8920719 L163.031329,24.8920719 C162.835637,26.2227802 162.353745,27.4189499 161.585652,28.4805811 C160.817559,29.5422123 159.804851,30.3836896 158.547528,31.0050129 C157.290204,31.6263363 155.82985,31.9369979 154.166464,31.9369979 Z" id="Path"></path>
                <path d="M174.714165,31.9957056 C173.285611,31.9957056 171.989149,31.7241824 170.824779,31.1811361 C169.660409,30.6380897 168.735763,29.8504278 168.050839,28.8181505 C167.365916,27.7858731 167.023454,26.535888 167.023454,25.0681951 C167.023454,23.7766253 167.277854,22.7272249 167.786655,21.9199937 C168.295455,21.1127626 168.975486,20.4792085 169.826748,20.0193314 C170.67801,19.5594543 171.619779,19.2145465 172.652057,18.9846079 C173.684334,18.7546694 174.72395,18.5712077 175.770904,18.4342231 C177.140751,18.2580999 178.253751,18.1235614 179.109905,18.0306075 C179.96606,17.9376536 180.592275,17.7786536 180.988552,17.5536073 C181.384829,17.3285611 181.582968,16.9371763 181.582968,16.379453 L181.582968,16.2620375 C181.582968,14.8139139 181.189137,13.6886826 180.401475,12.8863438 C179.613813,12.084005 178.422536,11.6828356 176.827643,11.6828356 C175.174042,11.6828356 173.87758,12.0448666 172.938257,12.7689284 C171.998933,13.4929902 171.338471,14.2659752 170.956871,15.0878832 L167.669239,13.9137289 C168.256316,12.5438821 169.041532,11.4749125 170.024886,10.7068198 C171.00824,9.93872722 172.084549,9.40057315 173.253811,9.09235763 C174.423073,8.78414212 175.575212,8.63003436 176.710227,8.63003436 C177.434289,8.63003436 178.268428,8.71564978 179.212644,8.88688062 C180.15686,9.05811147 181.071722,9.40791161 181.95723,9.93628106 C182.842738,10.4646505 183.57903,11.262097 184.166107,12.3286205 C184.753185,13.395144 185.046723,14.8236985 185.046723,16.6142838 L185.046723,31.4673362 L181.582968,31.4673362 L181.582968,28.4145349 L181.406845,28.4145349 C181.172014,28.9037659 180.780629,29.427243 180.23269,29.9849663 C179.684752,30.5426896 178.955798,31.0172437 178.045828,31.4086285 C177.135858,31.8000132 176.025304,31.9957056 174.714165,31.9957056 Z M175.242535,28.8841966 C176.612381,28.8841966 177.769413,28.6151196 178.713628,28.0769655 C179.657844,27.5388115 180.372121,26.8441035 180.85646,25.9928416 C181.340799,25.1415797 181.582968,24.246287 181.582968,23.3069636 L181.582968,20.1367468 C181.436199,20.31287 181.115752,20.4718701 180.621629,20.613747 C180.127506,20.755624 179.559998,20.8779318 178.919105,20.9806703 C178.278213,21.0834088 177.656889,21.1714704 177.055135,21.244855 C176.453381,21.3182396 175.966596,21.3793935 175.594781,21.4283166 C174.694596,21.5457321 173.855565,21.734086 173.077687,21.9933784 C172.29981,22.2526708 171.673595,22.6391633 171.199041,23.1528558 C170.724486,23.6665483 170.487209,24.3637025 170.487209,25.2443182 C170.487209,26.4478264 170.934856,27.3553499 171.830148,27.9668886 C172.725441,28.5784273 173.862903,28.8841966 175.242535,28.8841966 Z" id="Shape"></path>
                <polygon id="Path" points="194.850912 1.4089852 194.850912 31.4673362 191.387157 31.4673362 191.387157 1.4089852"></polygon>
                <path d="M201.191345,31.4673362 L201.191345,8.92357295 L204.655101,8.92357295 L204.655101,31.4673362 L201.191345,31.4673362 Z M202.952577,5.16627908 C202.277438,5.16627908 201.697699,4.93634052 201.213361,4.4764634 C200.729022,4.01658629 200.486853,3.46375529 200.486853,2.8179704 C200.486853,2.17218552 200.729022,1.61935452 201.213361,1.15947741 C201.697699,0.699600291 202.277438,0.469661734 202.952577,0.469661734 C203.627716,0.469661734 204.207454,0.699600291 204.691793,1.15947741 C205.176132,1.61935452 205.418301,2.17218552 205.418301,2.8179704 C205.418301,3.46375529 205.176132,4.01658629 204.691793,4.4764634 C204.207454,4.93634052 203.627716,5.16627908 202.952577,5.16627908 Z" id="Shape"></path>
                <polygon id="Path" points="210.349749 31.4673362 210.349749 28.8254889 223.148031 12.3873282 223.148031 12.1524974 210.760703 12.1524974 210.760703 8.92357295 227.609818 8.92357295 227.609818 11.6828356 215.163782 28.0035809 215.163782 28.2384118 228.020772 28.2384118 228.020772 31.4673362"></polygon>
                <path d="M239.997146,31.9957056 C238.568592,31.9957056 237.27213,31.7241824 236.10776,31.1811361 C234.94339,30.6380897 234.018744,29.8504278 233.33382,28.8181505 C232.648897,27.7858731 232.306435,26.535888 232.306435,25.0681951 C232.306435,23.7766253 232.560835,22.7272249 233.069636,21.9199937 C233.578436,21.1127626 234.258467,20.4792085 235.109729,20.0193314 C235.960991,19.5594543 236.90276,19.2145465 237.935038,18.9846079 C238.967315,18.7546694 240.006931,18.5712077 241.053885,18.4342231 C242.423732,18.2580999 243.536732,18.1235614 244.392886,18.0306075 C245.249041,17.9376536 245.875256,17.7786536 246.271533,17.5536073 C246.66781,17.3285611 246.865949,16.9371763 246.865949,16.379453 L246.865949,16.2620375 C246.865949,14.8139139 246.472118,13.6886826 245.684456,12.8863438 C244.896794,12.084005 243.705517,11.6828356 242.110624,11.6828356 C240.457023,11.6828356 239.160561,12.0448666 238.221238,12.7689284 C237.281914,13.4929902 236.621452,14.2659752 236.239852,15.0878832 L232.95222,13.9137289 C233.539297,12.5438821 234.324513,11.4749125 235.307867,10.7068198 C236.291221,9.93872722 237.36753,9.40057315 238.536792,9.09235763 C239.706054,8.78414212 240.858193,8.63003436 241.993208,8.63003436 C242.71727,8.63003436 243.551409,8.71564978 244.495625,8.88688062 C245.439841,9.05811147 246.354703,9.40791161 247.240211,9.93628106 C248.125719,10.4646505 248.862011,11.262097 249.449089,12.3286205 C250.036166,13.395144 250.329704,14.8236985 250.329704,16.6142838 L250.329704,31.4673362 L246.865949,31.4673362 L246.865949,28.4145349 L246.689826,28.4145349 C246.454995,28.9037659 246.06361,29.427243 245.515671,29.9849663 C244.967733,30.5426896 244.238779,31.0172437 243.328809,31.4086285 C242.418839,31.8000132 241.308285,31.9957056 239.997146,31.9957056 Z M240.525516,28.8841966 C241.895362,28.8841966 243.052394,28.6151196 243.996609,28.0769655 C244.940825,27.5388115 245.655102,26.8441035 246.139441,25.9928416 C246.62378,25.1415797 246.865949,24.246287 246.865949,23.3069636 L246.865949,20.1367468 C246.71918,20.31287 246.398733,20.4718701 245.90461,20.613747 C245.410487,20.755624 244.842979,20.8779318 244.202086,20.9806703 C243.561194,21.0834088 242.93987,21.1714704 242.338116,21.244855 C241.736362,21.3182396 241.249577,21.3793935 240.877762,21.4283166 C239.977577,21.5457321 239.138546,21.734086 238.360669,21.9933784 C237.582791,22.2526708 236.956576,22.6391633 236.482022,23.1528558 C236.007468,23.6665483 235.770191,24.3637025 235.770191,25.2443182 C235.770191,26.4478264 236.217837,27.3553499 237.11313,27.9668886 C238.008422,28.5784273 239.145884,28.8841966 240.525516,28.8841966 Z" id="Shape"></path>
                <path d="M266.474326,8.92357295 L266.474326,11.8589588 L254.791491,11.8589588 L254.791491,8.92357295 L266.474326,8.92357295 Z M258.196538,3.52246301 L261.660294,3.52246301 L261.660294,25.0094873 C261.660294,25.9879493 261.804617,26.7193496 262.093263,27.2036883 C262.381909,27.6880269 262.753725,28.0109194 263.20871,28.1723656 C263.663694,28.3338118 264.145587,28.4145349 264.654387,28.4145349 C265.035987,28.4145349 265.349095,28.3925195 265.593711,28.3484887 C265.838326,28.3044579 266.034019,28.2677656 266.180788,28.2384118 L266.88528,31.3499208 C266.65045,31.4379823 266.322665,31.5284901 265.901926,31.6214439 C265.481188,31.7143978 264.947926,31.7608748 264.302141,31.7608748 C263.323679,31.7608748 262.367232,31.5505054 261.432801,31.1297668 C260.49837,30.7090282 259.725385,30.0681356 259.113846,29.2070891 C258.502308,28.3460426 258.196538,27.2599498 258.196538,25.9488108 L258.196538,3.52246301 Z" id="Shape"></path>
                <path d="M271.699313,31.4673362 L271.699313,8.92357295 L275.163068,8.92357295 L275.163068,31.4673362 L271.699313,31.4673362 Z M273.460545,5.16627908 C272.785406,5.16627908 272.205667,4.93634052 271.721329,4.4764634 C271.23699,4.01658629 270.994821,3.46375529 270.994821,2.8179704 C270.994821,2.17218552 271.23699,1.61935452 271.721329,1.15947741 C272.205667,0.699600291 272.785406,0.469661734 273.460545,0.469661734 C274.135683,0.469661734 274.715422,0.699600291 275.199761,1.15947741 C275.684099,1.61935452 275.926269,2.17218552 275.926269,2.8179704 C275.926269,3.46375529 275.684099,4.01658629 275.199761,4.4764634 C274.715422,4.93634052 274.135683,5.16627908 273.460545,5.16627908 Z" id="Shape"></path>
                <path d="M290.661906,31.9369979 C288.626705,31.9369979 286.843458,31.4526593 285.312165,30.4839819 C283.780872,29.5153046 282.587148,28.1601348 281.730994,26.4184725 C280.87484,24.6768103 280.446763,22.6416094 280.446763,20.31287 C280.446763,17.9645613 280.87484,15.9146836 281.730994,14.1632367 C282.587148,12.4117898 283.780872,11.0517277 285.312165,10.0830504 C286.843458,9.11437303 288.626705,8.63003436 290.661906,8.63003436 C292.697107,8.63003436 294.480353,9.11437303 296.011646,10.0830504 C297.542939,11.0517277 298.736663,12.4117898 299.592817,14.1632367 C300.448971,15.9146836 300.877048,17.9645613 300.877048,20.31287 C300.877048,22.6416094 300.448971,24.6768103 299.592817,26.4184725 C298.736663,28.1601348 297.542939,29.5153046 296.011646,30.4839819 C294.480353,31.4526593 292.697107,31.9369979 290.661906,31.9369979 Z M290.661906,28.8254889 C292.207876,28.8254889 293.479876,28.4292118 294.477907,27.6366577 C295.475938,26.8441035 296.214677,25.8020415 296.694124,24.5104717 C297.17357,23.218902 297.413293,21.8197014 297.413293,20.31287 C297.413293,18.8060386 297.17357,17.4019457 296.694124,16.1005913 C296.214677,14.7992369 295.475938,13.7473903 294.477907,12.9450515 C293.479876,12.1427128 292.207876,11.7415434 290.661906,11.7415434 C289.115936,11.7415434 287.843935,12.1427128 286.845904,12.9450515 C285.847873,13.7473903 285.109134,14.7992369 284.629688,16.1005913 C284.150241,17.4019457 283.910518,18.8060386 283.910518,20.31287 C283.910518,21.8197014 284.150241,23.218902 284.629688,24.5104717 C285.109134,25.8020415 285.847873,26.8441035 286.845904,27.6366577 C287.843935,28.4292118 289.115936,28.8254889 290.661906,28.8254889 Z" id="Shape"></path>
                <path d="M309.624498,17.9058536 L309.624498,31.4673362 L306.160743,31.4673362 L306.160743,8.92357295 L309.507083,8.92357295 L309.507083,12.446036 L309.800621,12.446036 C310.328991,11.3012355 311.13133,10.3790351 312.207638,9.6794348 C313.283946,8.97983451 314.673362,8.63003436 316.375886,8.63003436 C317.902286,8.63003436 319.237887,8.94069603 320.382687,9.56201937 C321.527488,10.1833427 322.417888,11.1226662 323.053888,12.3799898 C323.689889,13.6373134 324.007889,15.2248679 324.007889,17.1426533 L324.007889,31.4673362 L320.544134,31.4673362 L320.544134,17.3774842 C320.544134,15.606468 320.084256,14.2243905 319.164502,13.2312517 C318.244748,12.2381128 316.982532,11.7415434 315.377854,11.7415434 C314.272192,11.7415434 313.286392,11.9812665 312.420453,12.4607129 C311.554514,12.9401592 310.872037,13.6397595 310.373022,14.5595138 C309.874006,15.479268 309.624498,16.5947146 309.624498,17.9058536 Z" id="Path"></path>
                <path d="M352.01147,8.92357295 L352.01147,11.8589588 L339.858972,11.8589588 L339.858972,8.92357295 L352.01147,8.92357295 Z M343.498851,31.4673362 L343.498851,5.81206396 C343.498851,4.52049419 343.802174,3.44418605 344.40882,2.58313954 C345.015467,1.72209303 345.803129,1.07630814 346.771806,0.645784884 C347.740483,0.215261628 348.762976,5.68434189e-14 349.839284,5.68434189e-14 C350.690546,5.68434189e-14 351.385254,0.0684923362 351.923408,0.205477009 C352.461562,0.342461681 352.862732,0.469661734 353.126916,0.587077168 L352.128885,3.58117072 C351.952762,3.52246301 351.710593,3.44907836 351.402377,3.36101678 C351.094162,3.27295521 350.690546,3.22892442 350.19153,3.22892442 C349.04673,3.22892442 348.222376,3.5175707 347.718468,4.09486324 C347.21456,4.67215579 346.962606,5.51852538 346.962606,6.63397199 L346.962606,31.4673362 L343.498851,31.4673362 Z" id="Shape"></path>
                <path d="M366.042614,31.9369979 C364.007413,31.9369979 362.224166,31.4526593 360.692873,30.4839819 C359.16158,29.5153046 357.967857,28.1601348 357.111703,26.4184725 C356.255548,24.6768103 355.827471,22.6416094 355.827471,20.31287 C355.827471,17.9645613 356.255548,15.9146836 357.111703,14.1632367 C357.967857,12.4117898 359.16158,11.0517277 360.692873,10.0830504 C362.224166,9.11437303 364.007413,8.63003436 366.042614,8.63003436 C368.077815,8.63003436 369.861062,9.11437303 371.392355,10.0830504 C372.923648,11.0517277 374.117371,12.4117898 374.973525,14.1632367 C375.82968,15.9146836 376.257757,17.9645613 376.257757,20.31287 C376.257757,22.6416094 375.82968,24.6768103 374.973525,26.4184725 C374.117371,28.1601348 372.923648,29.5153046 371.392355,30.4839819 C369.861062,31.4526593 368.077815,31.9369979 366.042614,31.9369979 Z M366.042614,28.8254889 C367.588584,28.8254889 368.860584,28.4292118 369.858616,27.6366577 C370.856647,26.8441035 371.595386,25.8020415 372.074832,24.5104717 C372.554278,23.218902 372.794001,21.8197014 372.794001,20.31287 C372.794001,18.8060386 372.554278,17.4019457 372.074832,16.1005913 C371.595386,14.7992369 370.856647,13.7473903 369.858616,12.9450515 C368.860584,12.1427128 367.588584,11.7415434 366.042614,11.7415434 C364.496644,11.7415434 363.224644,12.1427128 362.226612,12.9450515 C361.228581,13.7473903 360.489842,14.7992369 360.010396,16.1005913 C359.53095,17.4019457 359.291227,18.8060386 359.291227,20.31287 C359.291227,21.8197014 359.53095,23.218902 360.010396,24.5104717 C360.489842,25.8020415 361.228581,26.8441035 362.226612,27.6366577 C363.224644,28.4292118 364.496644,28.8254889 366.042614,28.8254889 Z" id="Shape"></path>
                <path d="M381.541451,31.4673362 L381.541451,8.92357295 L384.887791,8.92357295 L384.887791,12.3286205 L385.122622,12.3286205 C385.533576,11.2131739 386.277207,10.3080966 387.353515,9.61338862 C388.429823,8.91868064 389.643116,8.57132665 390.993394,8.57132665 C391.247794,8.57132665 391.565794,8.57621896 391.947394,8.58600358 C392.328994,8.5957882 392.61764,8.61046513 392.813333,8.63003436 L392.813333,12.1524974 C392.695917,12.1231435 392.429287,12.0766666 392.01344,12.0130665 C391.597594,11.9494665 391.159732,11.9176665 390.699855,11.9176665 C389.603978,11.9176665 388.627962,12.1451589 387.771808,12.6001437 C386.915653,13.0551285 386.240515,13.6813442 385.746391,14.4787906 C385.252268,15.2762371 385.005207,16.1837606 385.005207,17.201361 L385.005207,31.4673362 L381.541451,31.4673362 Z" id="Path"></path>
                <path d="M418.35119,8.92357295 L418.35119,11.8589588 L406.668354,11.8589588 L406.668354,8.92357295 L418.35119,8.92357295 Z M410.073402,3.52246301 L413.537157,3.52246301 L413.537157,25.0094873 C413.537157,25.9879493 413.68148,26.7193496 413.970126,27.2036883 C414.258773,27.6880269 414.630588,28.0109194 415.085573,28.1723656 C415.540558,28.3338118 416.02245,28.4145349 416.53125,28.4145349 C416.912851,28.4145349 417.225958,28.3925195 417.470574,28.3484887 C417.715189,28.3044579 417.910882,28.2677656 418.057651,28.2384118 L418.762144,31.3499208 C418.527313,31.4379823 418.199528,31.5284901 417.778789,31.6214439 C417.358051,31.7143978 416.824789,31.7608748 416.179004,31.7608748 C415.200542,31.7608748 414.244096,31.5505054 413.309664,31.1297668 C412.375233,30.7090282 411.602248,30.0681356 410.99071,29.2070891 C410.379171,28.3460426 410.073402,27.2599498 410.073402,25.9488108 L410.073402,3.52246301 Z" id="Shape"></path>
                <path d="M433.028119,31.9369979 C430.855933,31.9369979 428.984625,31.4551054 427.414193,30.4913204 C425.843762,29.5275354 424.635361,28.1772579 423.788992,26.4404879 C422.942622,24.703718 422.519438,22.6807479 422.519438,20.3715777 C422.519438,18.0624075 422.942622,16.0247605 423.788992,14.2586367 C424.635361,12.4925129 425.8193,11.1128816 427.340809,10.1197427 C428.862317,9.1266038 430.640672,8.63003436 432.675873,8.63003436 C433.850027,8.63003436 435.009504,8.82572675 436.154305,9.21711153 C437.299105,9.60849631 438.341167,10.2420504 439.280491,11.1177739 C440.219814,11.9934973 440.968338,13.1505286 441.526061,14.5888676 C442.083784,16.0272067 442.362646,17.7982228 442.362646,19.901916 L442.362646,21.3696089 L424.985162,21.3696089 L424.985162,18.3755153 L438.840183,18.3755153 C438.840183,17.1035148 438.588229,15.968499 438.084321,14.9704678 C437.580413,13.9724366 436.866136,13.1847747 435.941489,12.6074822 C435.016843,12.0301896 433.928304,11.7415434 432.675873,11.7415434 C431.296241,11.7415434 430.104964,12.0815589 429.10204,12.7615899 C428.099117,13.441621 427.328578,14.3246829 426.790424,15.4107756 C426.25227,16.4968684 425.983193,17.6612381 425.983193,18.9038848 L425.983193,20.8999472 C425.983193,22.602471 426.279178,24.0432562 426.871147,25.2223028 C427.463117,26.4013495 428.287471,27.2966421 429.34421,27.9081809 C430.400949,28.5197196 431.628918,28.8254889 433.028119,28.8254889 C433.938088,28.8254889 434.762443,28.6958427 435.501181,28.4365503 C436.23992,28.1772579 436.878367,27.7858731 437.416521,27.262396 C437.954675,26.7389188 438.370521,26.0857955 438.66406,25.3030259 L442.010399,26.2423494 C441.658153,27.3773652 441.066184,28.3729503 440.234491,29.2291045 C439.402798,30.0852587 438.375413,30.7506128 437.152336,31.2251669 C435.929259,31.6997209 434.554519,31.9369979 433.028119,31.9369979 Z" id="Path"></path>
                <path d="M456.804744,31.9369979 C454.691266,31.9369979 452.871327,31.4379823 451.344926,30.4399511 C449.818526,29.44192 448.644371,28.0671809 447.822463,26.315734 C447.000555,24.5642872 446.589601,22.5633325 446.589601,20.31287 C446.589601,18.023269 447.012786,16.000299 447.859156,14.2439598 C448.705525,12.4876206 449.889464,11.1128816 451.410973,10.1197427 C452.932481,9.1266038 454.710836,8.63003436 456.746036,8.63003436 C458.331145,8.63003436 459.759699,8.92357295 461.0317,9.51065012 C462.3037,10.0977273 463.345762,10.9196353 464.157886,11.9763742 C464.970009,13.0331131 465.473917,14.2659752 465.669609,15.6749604 L462.205854,15.6749604 C461.941669,14.6475753 461.357038,13.7351596 460.451961,12.9377131 C459.546884,12.1402666 458.331145,11.7415434 456.804744,11.7415434 C455.454467,11.7415434 454.272974,12.0913435 453.260266,12.7909438 C452.247558,13.4905441 451.459896,14.4738983 450.89728,15.7410066 C450.334665,17.0081148 450.053357,18.4929308 450.053357,20.1954546 C450.053357,21.9371168 450.329772,23.4537328 450.882603,24.7453026 C451.435434,26.0368724 452.218204,27.0397959 453.230912,27.7540731 C454.24362,28.4683503 455.434897,28.8254889 456.804744,28.8254889 C457.704929,28.8254889 458.521945,28.668935 459.255791,28.3558272 C459.989638,28.0427194 460.610961,27.5926269 461.119761,27.0055497 C461.628562,26.4184725 461.990592,25.7139799 462.205854,24.8920719 L465.669609,24.8920719 C465.473917,26.2227802 464.992024,27.4189499 464.223932,28.4805811 C463.455839,29.5422123 462.443131,30.3836896 461.185807,31.0050129 C459.928484,31.6263363 458.468129,31.9369979 456.804744,31.9369979 Z" id="Path"></path>
                <path d="M474.182228,17.9058536 L474.182228,31.4673362 L470.718473,31.4673362 L470.718473,1.4089852 L474.182228,1.4089852 L474.182228,12.446036 L474.475767,12.446036 C475.004136,11.2816662 475.799137,10.3545735 476.860768,9.66475787 C477.922399,8.9749422 479.338723,8.63003436 481.109739,8.63003436 C482.645924,8.63003436 483.991309,8.93580372 485.145894,9.54734244 C486.300479,10.1588812 487.198218,11.0933123 487.839111,12.3506359 C488.480003,13.6079595 488.80045,15.2052986 488.80045,17.1426533 L488.80045,31.4673362 L485.336694,31.4673362 L485.336694,17.3774842 C485.336694,15.5868988 484.874371,14.199929 483.949725,13.2165747 C483.025078,12.2332205 481.745739,11.7415434 480.111708,11.7415434 C478.976692,11.7415434 477.961538,11.9812665 477.066245,12.4607129 C476.170952,12.9401592 475.46646,13.6397595 474.952767,14.5595138 C474.439075,15.479268 474.182228,16.5947146 474.182228,17.9058536 Z" id="Path"></path>
                <path d="M515.923415,31.9369979 C513.809937,31.9369979 511.989998,31.4379823 510.463597,30.4399511 C508.937197,29.44192 507.763042,28.0671809 506.941134,26.315734 C506.119226,24.5642872 505.708272,22.5633325 505.708272,20.31287 C505.708272,18.023269 506.131457,16.000299 506.977827,14.2439598 C507.824196,12.4876206 509.008135,11.1128816 510.529643,10.1197427 C512.051152,9.1266038 513.829506,8.63003436 515.864707,8.63003436 C517.449816,8.63003436 518.87837,8.92357295 520.150371,9.51065012 C521.422371,10.0977273 522.464433,10.9196353 523.276556,11.9763742 C524.08868,13.0331131 524.592588,14.2659752 524.78828,15.6749604 L521.324525,15.6749604 C521.06034,14.6475753 520.475709,13.7351596 519.570632,12.9377131 C518.665555,12.1402666 517.449816,11.7415434 515.923415,11.7415434 C514.573137,11.7415434 513.391645,12.0913435 512.378936,12.7909438 C511.366228,13.4905441 510.578567,14.4738983 510.015951,15.7410066 C509.453335,17.0081148 509.172027,18.4929308 509.172027,20.1954546 C509.172027,21.9371168 509.448443,23.4537328 510.001274,24.7453026 C510.554105,26.0368724 511.336875,27.0397959 512.349583,27.7540731 C513.362291,28.4683503 514.553568,28.8254889 515.923415,28.8254889 C516.8236,28.8254889 517.640616,28.668935 518.374462,28.3558272 C519.108309,28.0427194 519.729632,27.5926269 520.238432,27.0055497 C520.747232,26.4184725 521.109263,25.7139799 521.324525,24.8920719 L524.78828,24.8920719 C524.592588,26.2227802 524.110695,27.4189499 523.342603,28.4805811 C522.57451,29.5422123 521.561802,30.3836896 520.304478,31.0050129 C519.047155,31.6263363 517.5868,31.9369979 515.923415,31.9369979 Z" id="Path"></path>
                <path d="M538.995548,31.9369979 C536.960347,31.9369979 535.1771,31.4526593 533.645807,30.4839819 C532.114514,29.5153046 530.92079,28.1601348 530.064636,26.4184725 C529.208482,24.6768103 528.780405,22.6416094 528.780405,20.31287 C528.780405,17.9645613 529.208482,15.9146836 530.064636,14.1632367 C530.92079,12.4117898 532.114514,11.0517277 533.645807,10.0830504 C535.1771,9.11437303 536.960347,8.63003436 538.995548,8.63003436 C541.030748,8.63003436 542.813995,9.11437303 544.345288,10.0830504 C545.876581,11.0517277 547.070305,12.4117898 547.926459,14.1632367 C548.782613,15.9146836 549.21069,17.9645613 549.21069,20.31287 C549.21069,22.6416094 548.782613,24.6768103 547.926459,26.4184725 C547.070305,28.1601348 545.876581,29.5153046 544.345288,30.4839819 C542.813995,31.4526593 541.030748,31.9369979 538.995548,31.9369979 Z M538.995548,28.8254889 C540.541517,28.8254889 541.813518,28.4292118 542.811549,27.6366577 C543.80958,26.8441035 544.548319,25.8020415 545.027765,24.5104717 C545.507212,23.218902 545.746935,21.8197014 545.746935,20.31287 C545.746935,18.8060386 545.507212,17.4019457 545.027765,16.1005913 C544.548319,14.7992369 543.80958,13.7473903 542.811549,12.9450515 C541.813518,12.1427128 540.541517,11.7415434 538.995548,11.7415434 C537.449578,11.7415434 536.177577,12.1427128 535.179546,12.9450515 C534.181515,13.7473903 533.442776,14.7992369 532.96333,16.1005913 C532.483883,17.4019457 532.24416,18.8060386 532.24416,20.31287 C532.24416,21.8197014 532.483883,23.218902 532.96333,24.5104717 C533.442776,25.8020415 534.181515,26.8441035 535.179546,27.6366577 C536.177577,28.4292118 537.449578,28.8254889 538.995548,28.8254889 Z" id="Shape"></path>
                <path d="M554.494385,31.4673362 L554.494385,8.92357295 L557.840725,8.92357295 L557.840725,12.446036 L558.134263,12.446036 C558.603925,11.2425278 559.362233,10.3056504 560.409187,9.63540401 C561.456142,8.96515758 562.713465,8.63003436 564.181158,8.63003436 C565.66842,8.63003436 566.908621,8.96515758 567.90176,9.63540401 C568.894899,10.3056504 569.67033,11.2425278 570.228053,12.446036 L570.462884,12.446036 C571.040176,11.2816662 571.906115,10.3545735 573.0607,9.66475787 C574.215285,8.9749422 575.599809,8.63003436 577.214271,8.63003436 C579.229903,8.63003436 580.878611,9.25869616 582.160396,10.5160198 C583.442181,11.7733434 584.083074,13.7278211 584.083074,16.379453 L584.083074,31.4673362 L580.619319,31.4673362 L580.619319,16.379453 C580.619319,14.7160677 580.164334,13.5272364 579.254364,12.8129592 C578.344395,12.098682 577.272979,11.7415434 576.040117,11.7415434 C574.455009,11.7415434 573.227039,12.2185436 572.356208,13.1725439 C571.485377,14.1265443 571.049961,15.3324987 571.049961,16.790407 L571.049961,31.4673362 L567.527498,31.4673362 L567.527498,16.0272067 C567.527498,14.7454215 567.111652,13.710698 566.279959,12.9230362 C565.448266,12.1353743 564.37685,11.7415434 563.065711,11.7415434 C562.165526,11.7415434 561.326495,11.9812665 560.548618,12.4607129 C559.770741,12.9401592 559.144525,13.6030672 558.669971,14.4494368 C558.195417,15.2958064 557.95814,16.2718222 557.95814,17.3774842 L557.95814,31.4673362 L554.494385,31.4673362 Z" id="Path"></path>
                <path d="M590.423507,39.9212474 L590.423507,8.92357295 L593.769847,8.92357295 L593.769847,12.5047437 L594.180801,12.5047437 C594.435201,12.1133589 594.789894,11.6118971 595.244879,11.0003584 C595.699864,10.3888197 596.355433,9.84088102 597.211587,9.35654236 C598.067741,8.8722037 599.229665,8.63003436 600.697358,8.63003436 C602.595574,8.63003436 604.268744,9.10458841 605.716868,10.0536965 C607.164991,11.0028046 608.295115,12.3481898 609.107238,14.089852 C609.919362,15.8315143 610.325423,17.8862844 610.325423,20.2541623 C610.325423,22.6416094 609.919362,24.7086103 609.107238,26.4551649 C608.295115,28.2017194 607.169884,29.5519969 605.731545,30.5059973 C604.293206,31.4599977 602.634713,31.9369979 600.756066,31.9369979 C599.307942,31.9369979 598.148465,31.6948286 597.277633,31.2104899 C596.406802,30.7261513 595.736556,30.1733203 595.266894,29.5519969 C594.797232,28.9306736 594.435201,28.4145349 594.180801,28.0035809 L593.887263,28.0035809 L593.887263,39.9212474 L590.423507,39.9212474 Z M593.828555,20.1954546 C593.828555,21.8979784 594.078063,23.3974713 594.577078,24.6939334 C595.076094,25.9903954 595.805048,27.0031036 596.763941,27.7320577 C597.722834,28.4610119 598.896988,28.8254889 600.286404,28.8254889 C601.734528,28.8254889 602.945374,28.4414426 603.918944,27.67335 C604.892513,26.9052574 605.62636,25.8680877 606.120483,24.561841 C606.614607,23.2555943 606.861668,21.8001322 606.861668,20.1954546 C606.861668,18.6103462 606.619499,17.1793456 606.13516,15.9024528 C605.650822,14.6255599 604.921867,13.6128518 603.948298,12.8643284 C602.974728,12.115805 601.754097,11.7415434 600.286404,11.7415434 C598.877419,11.7415434 597.69348,12.0962358 596.734587,12.8056207 C595.775694,13.5150056 595.051632,14.5032522 594.562402,15.7703604 C594.073171,17.0374686 593.828555,18.5125 593.828555,20.1954546 Z" id="Shape"></path>
                <path d="M622.24309,31.9957056 C620.814536,31.9957056 619.518073,31.7241824 618.353704,31.1811361 C617.189334,30.6380897 616.264687,29.8504278 615.579764,28.8181505 C614.894841,27.7858731 614.552379,26.535888 614.552379,25.0681951 C614.552379,23.7766253 614.806779,22.7272249 615.315579,21.9199937 C615.82438,21.1127626 616.504411,20.4792085 617.355673,20.0193314 C618.206934,19.5594543 619.148704,19.2145465 620.180981,18.9846079 C621.213259,18.7546694 622.252875,18.5712077 623.299829,18.4342231 C624.669676,18.2580999 625.782676,18.1235614 626.63883,18.0306075 C627.494984,17.9376536 628.1212,17.7786536 628.517477,17.5536073 C628.913754,17.3285611 629.111893,16.9371763 629.111893,16.379453 L629.111893,16.2620375 C629.111893,14.8139139 628.718062,13.6886826 627.9304,12.8863438 C627.142738,12.084005 625.951461,11.6828356 624.356568,11.6828356 C622.702967,11.6828356 621.406505,12.0448666 620.467182,12.7689284 C619.527858,13.4929902 618.867396,14.2659752 618.485796,15.0878832 L615.198164,13.9137289 C615.785241,12.5438821 616.570457,11.4749125 617.553811,10.7068198 C618.537165,9.93872722 619.613473,9.40057315 620.782735,9.09235763 C621.951998,8.78414212 623.104136,8.63003436 624.239152,8.63003436 C624.963214,8.63003436 625.797353,8.71564978 626.741569,8.88688062 C627.685785,9.05811147 628.600646,9.40791161 629.486155,9.93628106 C630.371663,10.4646505 631.107955,11.262097 631.695032,12.3286205 C632.28211,13.395144 632.575648,14.8236985 632.575648,16.6142838 L632.575648,31.4673362 L629.111893,31.4673362 L629.111893,28.4145349 L628.93577,28.4145349 C628.700939,28.9037659 628.309554,29.427243 627.761615,29.9849663 C627.213677,30.5426896 626.484722,31.0172437 625.574753,31.4086285 C624.664783,31.8000132 623.554229,31.9957056 622.24309,31.9957056 Z M622.771459,28.8841966 C624.141306,28.8841966 625.298337,28.6151196 626.242553,28.0769655 C627.186769,27.5388115 627.901046,26.8441035 628.385385,25.9928416 C628.869723,25.1415797 629.111893,24.246287 629.111893,23.3069636 L629.111893,20.1367468 C628.965124,20.31287 628.644677,20.4718701 628.150554,20.613747 C627.656431,20.755624 627.088923,20.8779318 626.44803,20.9806703 C625.807138,21.0834088 625.185814,21.1714704 624.58406,21.244855 C623.982306,21.3182396 623.495521,21.3793935 623.123706,21.4283166 C622.223521,21.5457321 621.38449,21.734086 620.606612,21.9933784 C619.828735,22.2526708 619.202519,22.6391633 618.727965,23.1528558 C618.253411,23.6665483 618.016134,24.3637025 618.016134,25.2443182 C618.016134,26.4478264 618.463781,27.3553499 619.359073,27.9668886 C620.254366,28.5784273 621.391828,28.8841966 622.771459,28.8841966 Z" id="Shape"></path>
                <path d="M642.379837,17.9058536 L642.379837,31.4673362 L638.916082,31.4673362 L638.916082,8.92357295 L642.262421,8.92357295 L642.262421,12.446036 L642.55596,12.446036 C643.084329,11.3012355 643.886668,10.3790351 644.962976,9.6794348 C646.039284,8.97983451 647.4287,8.63003436 649.131224,8.63003436 C650.657625,8.63003436 651.993225,8.94069603 653.138026,9.56201937 C654.282826,10.1833427 655.173227,11.1226662 655.809227,12.3799898 C656.445227,13.6373134 656.763227,15.2248679 656.763227,17.1426533 L656.763227,31.4673362 L653.299472,31.4673362 L653.299472,17.3774842 C653.299472,15.606468 652.839595,14.2243905 651.919841,13.2312517 C651.000087,12.2381128 649.737871,11.7415434 648.133193,11.7415434 C647.027531,11.7415434 646.041731,11.9812665 645.175792,12.4607129 C644.309853,12.9401592 643.627376,13.6397595 643.12836,14.5595138 C642.629345,15.479268 642.379837,16.5947146 642.379837,17.9058536 Z" id="Path"></path>
                <path d="M663.103661,31.4673362 L663.103661,8.92357295 L666.567416,8.92357295 L666.567416,31.4673362 L663.103661,31.4673362 Z M664.864892,5.16627908 C664.189754,5.16627908 663.610015,4.93634052 663.125676,4.4764634 C662.641338,4.01658629 662.399168,3.46375529 662.399168,2.8179704 C662.399168,2.17218552 662.641338,1.61935452 663.125676,1.15947741 C663.610015,0.699600291 664.189754,0.469661734 664.864892,0.469661734 C665.540031,0.469661734 666.11977,0.699600291 666.604108,1.15947741 C667.088447,1.61935452 667.330616,2.17218552 667.330616,2.8179704 C667.330616,3.46375529 667.088447,4.01658629 666.604108,4.4764634 C666.11977,4.93634052 665.540031,5.16627908 664.864892,5.16627908 Z" id="Shape"></path>
                <path d="M682.359792,31.9369979 C680.187606,31.9369979 678.316298,31.4551054 676.745867,30.4913204 C675.175435,29.5275354 673.967035,28.1772579 673.120665,26.4404879 C672.274295,24.703718 671.851111,22.6807479 671.851111,20.3715777 C671.851111,18.0624075 672.274295,16.0247605 673.120665,14.2586367 C673.967035,12.4925129 675.150974,11.1128816 676.672482,10.1197427 C678.19399,9.1266038 679.972345,8.63003436 682.007546,8.63003436 C683.1817,8.63003436 684.341177,8.82572675 685.485978,9.21711153 C686.630778,9.60849631 687.67284,10.2420504 688.612164,11.1177739 C689.551487,11.9934973 690.300011,13.1505286 690.857734,14.5888676 C691.415457,16.0272067 691.694319,17.7982228 691.694319,19.901916 L691.694319,21.3696089 L674.316835,21.3696089 L674.316835,18.3755153 L688.171856,18.3755153 C688.171856,17.1035148 687.919902,15.968499 687.415994,14.9704678 C686.912086,13.9724366 686.197809,13.1847747 685.273162,12.6074822 C684.348516,12.0301896 683.259977,11.7415434 682.007546,11.7415434 C680.627914,11.7415434 679.436637,12.0815589 678.433713,12.7615899 C677.43079,13.441621 676.660251,14.3246829 676.122097,15.4107756 C675.583943,16.4968684 675.314866,17.6612381 675.314866,18.9038848 L675.314866,20.8999472 C675.314866,22.602471 675.610851,24.0432562 676.20282,25.2223028 C676.79479,26.4013495 677.619144,27.2966421 678.675883,27.9081809 C679.732622,28.5197196 680.960591,28.8254889 682.359792,28.8254889 C683.269762,28.8254889 684.094116,28.6958427 684.832854,28.4365503 C685.571593,28.1772579 686.21004,27.7858731 686.748194,27.262396 C687.286348,26.7389188 687.702194,26.0857955 687.995733,25.3030259 L691.342073,26.2423494 C690.989826,27.3773652 690.397857,28.3729503 689.566164,29.2291045 C688.734471,30.0852587 687.707086,30.7506128 686.484009,31.2251669 C685.260932,31.6997209 683.886193,31.9369979 682.359792,31.9369979 Z" id="Path"></path>
                <path d="M712.946512,13.9724366 L709.835003,14.8530523 C709.639311,14.3344675 709.353111,13.8281135 708.976403,13.3339902 C708.599695,12.8398669 708.088449,12.431359 707.442664,12.1084666 C706.796879,11.7855741 705.970079,11.6241279 704.962263,11.6241279 C703.582632,11.6241279 702.435385,11.9396819 701.520523,12.5707899 C700.605661,13.2018978 700.14823,14.0017904 700.14823,14.9704678 C700.14823,15.8315143 700.461338,16.5115453 701.087554,17.0105609 C701.713769,17.5095765 702.692231,17.9254229 704.022939,18.2580999 L707.369279,19.0800079 C709.384911,19.5692389 710.88685,20.3153162 711.875097,21.3182396 C712.863343,22.3211631 713.357466,23.6102868 713.357466,25.1856105 C713.357466,26.4771803 712.988097,27.6317654 712.249358,28.6493658 C711.510619,29.6669662 710.480788,30.469305 709.159865,31.0563822 C707.838941,31.6434593 706.302756,31.9369979 704.551309,31.9369979 C702.251923,31.9369979 700.348815,31.4379823 698.841983,30.4399511 C697.335152,29.44192 696.381152,27.9840117 695.979982,26.0662262 L699.267614,25.2443182 C699.580722,26.457611 700.175138,27.3675806 701.050861,27.974227 C701.926585,28.5808734 703.073831,28.8841966 704.492601,28.8841966 C706.107063,28.8841966 707.391295,28.5392888 708.345295,27.8494731 C709.299295,27.1596575 709.776296,26.330411 709.776296,25.3617336 C709.776296,24.5789641 709.502326,23.9209484 708.954388,23.3876867 C708.406449,22.8544249 707.564972,22.4557017 706.429956,22.1915169 L702.672662,21.3109012 C700.608107,20.8216702 699.093937,20.060916 698.130152,19.0286387 C697.166367,17.9963613 696.684475,16.7023454 696.684475,15.1465909 C696.684475,13.8745904 697.04406,12.7493592 697.763229,11.7708972 C698.482399,10.7924353 699.465753,10.0243426 700.713292,9.46661933 C701.960831,8.90889602 703.377155,8.63003436 704.962263,8.63003436 C707.193156,8.63003436 708.947049,9.11926534 710.223942,10.0977273 C711.500835,11.0761892 712.408358,12.367759 712.946512,13.9724366 Z" id="Path"></path>
            </g>
        </g>
    </g>
</svg>