<?xml version="1.0" standalone="no"?>
<!DOCTYPE svg PUBLIC "-//W3C//DTD SVG 20010904//EN"
 "http://www.w3.org/TR/2001/REC-SVG-20010904/DTD/svg10.dtd">
<svg version="1.0" xmlns="http://www.w3.org/2000/svg"
 width="400.000000pt" height="400.000000pt" viewBox="0 0 400.000000 400.000000"
 preserveAspectRatio="xMidYMid meet">
<metadata>
Created by potrace 1.14, written by Peter Selinger 2001-2017
</metadata>
<g transform="translate(0.000000,400.000000) scale(0.100000,-0.100000)"
fill="#000000" stroke="none">
<path d="M1838 3985 c-2 -2 -30 -6 -63 -10 -84 -9 -123 -15 -175 -27 -25 -5
-52 -11 -60 -13 -49 -10 -168 -46 -215 -65 -11 -5 -38 -15 -60 -23 -315 -118
-646 -373 -862 -664 -201 -272 -328 -586 -377 -933 -17 -120 -27 -389 -16
-405 4 -5 10 -39 14 -75 20 -207 98 -471 196 -664 230 -456 624 -810 1089
-980 245 -90 427 -121 701 -121 330 0 581 58 878 202 176 86 445 276 485 343
19 32 14 77 -13 105 -46 49 -91 37 -190 -50 -156 -136 -424 -284 -620 -341
-23 -6 -22 -4 13 36 85 93 222 334 277 487 13 35 29 63 39 65 9 3 181 4 383 3
201 -2 370 0 375 4 8 5 51 67 100 146 63 99 156 329 197 485 28 105 31 122 51
260 13 92 14 432 1 490 -3 14 -10 56 -16 94 -15 95 -55 244 -92 346 -143 390
-420 744 -755 964 -48 32 -99 66 -113 75 -40 27 -229 116 -305 144 -239 88
-457 126 -717 125 -81 -1 -149 -2 -150 -3z m339 -210 c91 -41 160 -97 254
-205 42 -48 127 -186 172 -277 56 -113 110 -253 102 -261 -6 -7 -1356 -5
-1362 2 -7 6 61 175 107 266 40 80 112 201 135 227 5 6 28 33 49 60 85 103
201 184 301 210 70 18 177 8 242 -22z m-647 -29 c0 -2 -14 -19 -30 -37 -101
-112 -235 -355 -310 -561 l-43 -118 -315 0 -314 0 18 28 c64 99 228 270 354
369 114 89 297 196 415 244 22 9 203 72 223 78 1 1 2 -1 2 -3z m1071 -37 c144
-47 326 -143 478 -251 100 -71 317 -286 378 -373 l41 -60 -296 0 c-283 1 -296
2 -303 21 -5 10 -25 64 -45 119 -39 110 -124 285 -180 373 -44 70 -114 163
-134 179 -21 17 -13 16 61 -8z m-1505 -874 c-6 -16 -45 -213 -52 -260 -2 -16
-6 -43 -8 -60 -18 -118 -34 -315 -35 -442 l-1 -53 -406 0 -407 0 6 83 c19 247
76 469 175 675 l35 72 349 0 c305 0 349 -2 344 -15z m1675 -12 c10 -27 55
-254 64 -323 3 -25 8 -67 11 -95 3 -27 7 -66 10 -85 2 -19 6 -95 10 -167 l6
-133 -847 0 -847 0 7 128 c10 194 18 280 37 392 5 36 12 74 13 85 7 46 37 179
45 201 l9 24 737 -2 736 -2 9 -23z m832 18 c5 0 28 -43 52 -93 92 -197 142
-398 161 -645 l6 -83 -386 0 -386 0 -1 63 c-2 122 -15 287 -33 417 -12 83 -35
216 -56 325 -1 6 -2 12 -1 15 1 5 615 6 644 1z m-2597 -1038 c1 -41 10 -161
20 -258 3 -33 17 -118 30 -190 26 -145 26 -144 48 -235 9 -36 16 -70 16 -75 0
-7 -114 -10 -326 -10 l-326 0 -18 25 c-39 54 -128 245 -165 355 -16 48 -51
178 -59 220 -11 56 -26 160 -26 183 l0 22 403 0 403 0 0 -37z m1858 2 c-6
-120 -31 -345 -49 -440 -18 -94 -23 -117 -46 -208 -11 -45 -23 -91 -26 -102
-4 -20 -12 -20 -716 -20 l-711 0 -18 59 c-10 33 -20 70 -22 83 -3 13 -7 31
-10 41 -3 9 -7 30 -10 46 -3 16 -10 52 -15 80 -16 78 -21 107 -26 161 -3 28
-8 61 -11 74 -3 12 -7 59 -10 104 -3 44 -6 98 -8 119 l-3 38 841 -2 841 -3 -1
-30z m942 -32 c-22 -212 -109 -476 -221 -668 l-41 -70 -311 0 -310 0 17 65
c50 182 86 422 105 695 2 22 4 41 4 43 1 1 173 2 382 2 l382 0 -7 -67z m-2591
-998 c63 -161 169 -351 254 -455 70 -86 69 -81 4 -61 -228 71 -440 187 -634
347 -85 71 -242 232 -235 242 2 4 134 7 292 7 l288 0 31 -80z m1449 74 c14
-14 -96 -235 -175 -349 -275 -400 -596 -423 -882 -65 -41 52 -107 151 -107
161 0 3 -8 18 -18 32 -25 38 -103 212 -98 220 5 9 1272 9 1280 1z"/>
</g>
</svg>
