<svg viewBox="0 0 90 16" xmlns="http://www.w3.org/2000/svg"><g fill-rule="nonzero" fill="none"><path d="m16.186 12.335-5.277-9.14L15.55.514l8.647 14.975c-.103.007-.177.015-.252.015-1.901.001-3.803-.002-5.704.006-.176 0-.263-.06-.346-.206-.562-.987-1.132-1.969-1.71-2.969Z" fill="#010101"/><path d="M76.146 15.391 74.68 6.62l-.048-.011-1.774 8.883h-2.244L73.595.538h1.89l1.477 8.83.06.006L78.704.543h2.244l-2.984 14.962c-.57 0-1.113.002-1.656-.004-.052 0-.104-.057-.162-.11ZM49.185 2.64l.42-2.103h1.89l1.49 8.909.033.004L54.715.539h2.243l-2.982 14.956h-1.803L50.69 6.622l-.05-.01-1.774 8.879h-2.244L49.185 2.64ZM62.185 6.52l.483 2.87.051.01L64.405.548h2.24c-.13.667-.26 1.332-.393 1.998l-1.815 9.108c-.245 1.225-.488 2.451-.743 3.675-.014.07-.125.167-.193.168-.534.014-1.069.008-1.634.008l-1.492-8.924-.035-.006-1.78 8.915h-2.245L59.297.54h1.892l.996 5.982ZM34.727 9.723c.175 1.422.345 2.82.515 4.22l.186 1.548h-2.24l-.675-6.192c-.402 0-.793-.008-1.183.009-.051.002-.125.123-.14.199-.356 1.749-.705 3.5-1.056 5.25-.05.247-.103.494-.154.739h-2.239L30.725.529h.264c1.148 0 2.297-.008 3.444.005.33.004.666.043.988.116 1.024.232 1.704 1.005 1.82 2.05.139 1.254-.158 2.452-.496 3.641-.078.276-.197.541-.313.804-.321.732-.833 1.293-1.56 1.634-.2.094-.25.2-.21.4.035.17.042.347.065.544m.208-5.314c.015-.305.057-.612.04-.915-.031-.568-.353-.915-.895-.946-.496-.028-.995-.006-1.512-.006l-.961 4.808c.451 0 .87-.006 1.288.001.629.012 1.091-.255 1.395-.804.362-.652.53-1.362.645-2.138ZM39.342 4.427c.262-1.307.521-2.591.782-3.885h2.237c-.099.506-.192 1-.291 1.494-.657 3.266-1.318 6.532-1.97 9.799a3.17 3.17 0 0 0-.058.782c.04.733.49 1.105 1.221 1.04.694-.064 1.154-.463 1.39-1.082.174-.453.268-.94.364-1.418.58-2.888 1.152-5.779 1.726-8.67.128-.642.252-1.286.38-1.943h2.241c-.083.437-.164.87-.249 1.3-.662 3.346-1.325 6.692-1.989 10.037-.136.689-.323 1.363-.707 1.96-.737 1.149-1.776 1.8-3.156 1.812-.52.005-1.058-.018-1.555-.153-1.212-.33-1.94-1.345-1.9-2.695.024-.78.182-1.562.33-2.332.385-2.011.799-4.016 1.204-6.046ZM81.73 6.515c.267-1.244.53-2.467 1.017-3.625.433-1.028 1.103-1.86 2.169-2.271.977-.376 1.991-.381 2.985-.046 1.05.354 1.533 1.183 1.668 2.22.068.522.012 1.061.012 1.611h-2.2c0-.294.006-.581-.001-.867-.012-.443-.073-.9-.538-1.08-.508-.195-1.02-.129-1.453.245-.435.375-.67.88-.803 1.417-.352 1.426-.708 2.852-.99 4.292-.239 1.218-.383 2.454-.55 3.684a2.38 2.38 0 0 0 .035.758c.127.657.66.94 1.392.764.457-.11.765-.406.994-.798.294-.5.392-1.061.5-1.62.13-.669.272-1.336.414-2.029h-1.367c.105-.565.2-1.107.311-1.646.014-.067.11-.166.168-.167 1.147-.01 2.294-.007 3.469-.007-.113.57-.215 1.119-.329 1.665-.242 1.163-.456 2.335-.747 3.486-.228.9-.648 1.722-1.387 2.33-.879.722-1.916.89-3.012.829-1.815-.1-2.65-1.423-2.693-2.905-.035-1.184.191-2.336.393-3.49.16-.913.357-1.82.543-2.75ZM14.525 12.994l1.441 2.494c-.107.007-.182.016-.256.016-1.902.001-3.804 0-5.706.003-.141 0-.239-.023-.318-.162-1.35-2.349-2.704-4.694-4.069-7.06l4.642-2.68c1.42 2.46 2.839 4.916 4.266 7.39ZM66.637 12.355c.397-2.004.789-3.986 1.183-5.968.38-1.912.763-3.824 1.144-5.735.007-.034.017-.066.029-.11h2.24l-2.98 14.95h-2.246l.63-3.137Z" fill="#020202"/><path d="m4.398 11.042.583-.334 2.759 4.776c-.084.008-.147.02-.21.02-1.919.001-3.838.003-5.757-.004-.095 0-.236-.048-.28-.12-.39-.651-.763-1.313-1.154-1.995l4.059-2.343Z" fill="#030303"/><path d="M34.932 4.432c-.112.753-.28 1.463-.642 2.115-.304.549-.766.816-1.395.804-.418-.007-.837-.001-1.288-.001l.96-4.808c.518 0 1.017-.022 1.513.006.542.031.864.378.895.946.017.303-.025.61-.043.938Z" fill="#FDFDFD"/></g></svg>