<?xml version="1.0" encoding="UTF-8"?>
<svg width="352px" height="115px" viewBox="0 0 352 115" version="1.1" xmlns="http://www.w3.org/2000/svg" xmlns:xlink="http://www.w3.org/1999/xlink">
    <title>billiv-logo</title>
    <g id="Page-1" stroke="none" stroke-width="1" fill="none" fill-rule="evenodd">
        <g id="billiv-logo" fill-rule="nonzero">
            <polygon id="Path" fill="#000000" points="118.9647 40.7168086 96.4177 40.7168086 96.4177 114.001009 118.9647 114.001009"></polygon>
            <path d="M107.6917,4.52344861 C104.0797,4.52344861 101.0107,5.80104861 98.4427,8.37719861 C95.8747,10.9533086 94.6017,14.0322086 94.6017,17.6555086 C94.6017,21.2789086 95.8747,24.3577086 98.4427,26.9339086 C100.9897,29.4891086 104.0797,30.7876086 107.6917,30.7876086 C111.3027,30.7876086 114.3717,29.5100086 116.9397,26.9339086 C119.5077,24.3577086 120.7817,21.2789086 120.7817,17.6555086 C120.7817,14.0322086 119.5077,10.9533086 116.9397,8.37719861 C114.3927,5.82199861 111.3027,4.52344861 107.6917,4.52344861 Z" id="Path" fill="#000000"></path>
            <path d="M137.7497,114.000009 L160.2977,114.000009 L160.2977,11.3099086 C160.2977,5.06853861 155.2447,8.61497006e-06 149.0237,8.61497006e-06 C142.8027,8.61497006e-06 137.7497,5.06853861 137.7497,11.3099086 L137.7497,114.000009 Z" id="Path" fill="#000000"></path>
            <path d="M191.7897,0 C185.5687,0 180.5167,5.06853861 180.5167,11.3099086 L180.5167,114 L203.0637,114 L203.0637,11.3099086 C203.0637,5.06853861 198.0117,0 191.7897,0 Z" id="Path" fill="#000000"></path>
            <polygon id="Path" fill="#000000" points="244.4467 40.7168086 221.8997 40.7168086 221.8997 114.001009 244.4467 114.001009"></polygon>
            <path d="M233.1727,4.52344861 C229.5617,4.52344861 226.4927,5.80104861 223.9247,8.37719861 C221.3567,10.9533086 220.0837,14.0322086 220.0837,17.6555086 C220.0837,21.2789086 221.3567,24.3577086 223.9247,26.9339086 C226.4717,29.4891086 229.5617,30.7876086 233.1727,30.7876086 C236.7847,30.7876086 239.8537,29.5100086 242.4217,26.9339086 C244.9897,24.3577086 246.2627,21.2789086 246.2627,17.6555086 C246.2627,14.0322086 244.9897,10.9533086 242.4217,8.37719861 C239.8747,5.82199861 236.7847,4.52344861 233.1727,4.52344861 Z" id="Path" fill="#000000"></path>
            <path d="M338.4647,87.7559086 C334.8537,87.7559086 331.7847,89.0335086 329.2167,91.6096086 C326.6487,94.1858086 325.3747,97.2646086 325.3747,100.888009 C325.3747,104.511009 326.6487,107.590009 329.2167,110.166009 C331.7637,112.721009 334.8537,114.020009 338.4647,114.020009 C342.0767,114.020009 345.1457,112.742009 347.7137,110.166009 C350.2817,107.590009 351.5547,104.511009 351.5547,100.888009 C351.5547,97.2646086 350.2817,94.1858086 347.7137,91.6096086 C345.1667,89.0544086 342.0767,87.7559086 338.4647,87.7559086 Z" id="Path" fill="#00A48E"></path>
            <path d="M309.6767,40.7168086 L292.5367,90.4805086 L292.2437,90.4805086 L276.4607,47.9845086 C274.8327,43.6281086 270.6777,40.7168086 266.0437,40.7168086 C258.1307,40.7168086 252.7447,48.7804086 255.7717,56.1318086 L279.6337,114.001009 L303.5387,114.001009 L332.3907,40.7168086 L309.6977,40.7168086 L309.6767,40.7168086 Z" id="Path" fill="#000000"></path>
            <path d="M0,15.1250086 C0,10.7067086 3.5817,7.12500861 8,7.12500861 L39.4756,7.12500861 C44.0648,7.12500861 48.6748,7.46043861 53.3055,8.11031861 C57.9362,8.76020861 62.1101,10.0809086 65.7857,12.0306086 C69.482,14.0012086 72.4515,16.7266086 74.7564,20.2485086 C77.0407,23.7705086 78.2035,28.4455086 78.2035,34.2945086 C78.2035,40.1435086 76.5423,45.3426086 73.199,49.3048086 C69.882,53.2567086 65.5224,56.0736086 60.1001,57.7965086 C60.0237,57.8208086 59.9713,57.8917086 59.9713,57.9718086 C59.9713,58.0630086 60.0384,58.1403086 60.1286,58.1537086 C63.5549,58.6636086 66.6591,59.6409086 69.4612,61.0656086 C72.3061,62.5331086 74.7357,64.3780086 76.7915,66.6421086 C78.8265,68.9062086 80.4047,71.5477086 81.5053,74.5665086 C82.6059,77.5853086 83.1458,80.8138086 83.1458,84.2310086 C83.1458,89.8703086 81.9414,94.5663086 79.5533,98.3398086 C77.1653,102.113009 74.0712,105.153009 70.2918,107.480009 C66.4917,109.786009 62.2347,111.463009 57.5002,112.470009 C52.7656,113.476009 48.0518,113.979009 43.3795,113.979009 L8,113.979009 C3.5817,113.979009 0,110.397009 0,105.979009 L0,15.1250086 Z M23.3561,49.8316086 C23.347,49.8361086 23.3503,49.8498086 23.3604,49.8498086 L40.2231,49.8498086 C42.009,49.8498086 43.7948,49.6402086 45.5391,49.2419086 C47.2835,48.8436086 48.8409,48.1937086 50.2529,47.2713086 C51.6442,46.3698086 52.7656,45.1539086 53.617,43.6445086 C54.4684,42.1351086 54.8837,40.3321086 54.8837,38.2148086 C54.8837,36.0974086 54.4061,34.1687086 53.4716,32.7012086 C52.5164,31.2547086 51.312,30.1226086 49.8169,29.3050086 C48.3217,28.5084086 46.619,27.9214086 44.7293,27.5650086 C42.8396,27.2086086 40.9915,27.0409086 39.2056,27.0409086 L31.3614,27.0409086 C26.9431,27.0409086 23.3614,30.6226086 23.3614,35.0409086 L23.3614,49.8229086 C23.3614,49.8266086 23.3593,49.8299086 23.3561,49.8316086 Z M23.3094,94.0735086 C23.3161,94.0803086 23.3252,94.0841086 23.3347,94.0841086 L44.2517,94.0841086 C46.0375,94.0841086 47.8649,93.8745086 49.713,93.4761086 C51.5612,93.0778086 53.2224,92.3650086 54.7176,91.3588086 C56.2127,90.3525086 57.4379,89.0527086 58.3723,87.4385086 C59.3275,85.8242086 59.7844,83.8746086 59.7844,81.5476086 C59.7844,79.0319086 59.1614,76.9984086 57.9155,75.4260086 C56.6695,73.8747086 55.0913,72.6797086 53.2017,71.8831086 C51.312,71.0865086 49.2562,70.5204086 47.0758,70.2269086 C44.8746,69.9334086 42.8396,69.7657086 40.9499,69.7657086 L31.2991,69.7657086 C26.8808,69.7657086 23.2991,73.3475086 23.2991,77.7657086 L23.2991,94.0485086 C23.2991,94.0579086 23.3028,94.0669086 23.3094,94.0735086 Z" id="Shape" fill="#000000"></path>
        </g>
    </g>
</svg>