<?xml version="1.0" encoding="UTF-8"?>
<svg viewBox="0 0 114 37" version="1.1" xmlns="http://www.w3.org/2000/svg" xmlns:xlink="http://www.w3.org/1999/xlink">
    <title>bolero-logo</title>
    <g id="Page-1" stroke="none" stroke-width="1" fill="none" fill-rule="evenodd">
        <g id="Artboard" transform="translate(-1569.000000, -1653.000000)" fill="#000000" fill-rule="nonzero">
            <g id="bolero-logo" transform="translate(1569.000000, 1653.000000)">
                <path d="M2.32274,28.138688 C1.64278,28.451188 1.33941,29.259788 1.71509,29.906988 C2.766,31.717388 4.20611,33.278988 5.9375,34.475188 C8.04156,35.928788 10.4982,36.789188 13.0494,36.965888 C15.6007,37.142688 18.1525,36.629288 20.4369,35.479688 C22.7213,34.329988 24.6541,32.586588 26.0323,30.432388 C27.4104,28.278088 28.1832,25.792588 28.2695,23.236588 C28.3558,20.680688 27.7523,18.148688 26.5225,15.906488 C25.2926,13.664188 23.4818,11.794388 21.2801,10.493388 C19.4684,9.422818 17.447,8.769868 15.3628,8.574558 C14.6177,8.504748 14.0107,9.119108 14.012,9.867488 L14.0297,20.322888 C14.0305,20.791488 14.4366,21.153388 14.8401,21.391788 C15.085,21.536588 15.2865,21.744588 15.4234,21.994088 C15.5602,22.243588 15.6273,22.525288 15.6177,22.809688 C15.6081,23.094088 15.5222,23.370588 15.3688,23.610288 C15.2155,23.849988 15.0004,24.043988 14.7463,24.171888 C14.4921,24.299788 14.2082,24.356888 13.9243,24.337188 C13.6404,24.317588 13.3671,24.221788 13.133,24.060088 C12.7475,23.793688 12.2487,23.576688 11.8229,23.772388 L2.32274,28.138688 Z" id="Path"></path>
                <path d="M0,1.354988 C0,0.606648 0.606651,0 1.35499,0 L10.716,0 C11.4643,0 12.071,0.606648 12.071,1.354988 L12.071,20.618188 C12.071,21.147288 11.763,21.628088 11.2823,21.849188 L1.92125,26.155288 C1.02356,26.568188 0,25.912388 0,24.924288 L0,1.354988 Z" id="Path"></path>
                <path d="M37.0533,28.212388 L37.0533,8.776858 L43.4393,8.776858 C47.0488,8.776858 51.0192,9.359928 51.0192,14.052188 C51.0192,16.051288 50.0196,17.495088 48.437,18.244788 C50.4917,19.022188 51.6856,20.465988 51.6856,22.825988 C51.6856,27.684888 47.7984,28.212388 43.7447,28.212388 L37.0533,28.212388 Z M40.4962,25.435888 L43.6337,25.435888 C46.3269,25.435888 48.326,25.352588 48.326,22.659388 C48.326,19.744088 45.8826,19.688588 43.7725,19.688588 L40.4962,19.688588 L40.4962,25.435888 Z M40.4962,16.911988 L43.2172,16.911988 C45.605,16.911988 47.6319,16.856488 47.6319,14.246588 C47.6319,11.664388 45.5772,11.581088 43.245,11.581088 L40.4962,11.581088 L40.4962,16.911988 Z" id="Shape"></path>
                <path d="M59.6424,28.545588 C55.2,28.545588 52.5623,25.796888 52.5623,21.271188 C52.5623,17.050888 55.2278,13.996688 59.6424,13.996688 C64.0015,13.996688 66.7225,17.078588 66.7225,21.271188 C66.7225,25.630288 63.9183,28.545588 59.6424,28.545588 Z M56.0885,21.271188 C56.0885,23.103688 56.3939,24.408588 57.1158,25.185988 C57.6711,25.824588 58.5041,26.130088 59.6424,26.130088 C60.8363,26.130088 61.6693,25.796888 62.2246,25.130488 C62.9187,24.325288 63.1964,23.048088 63.1964,21.271188 C63.1964,19.494188 62.8909,18.216988 62.2246,17.411788 C61.6415,16.745488 60.8086,16.412288 59.6424,16.412288 C58.5041,16.412288 57.6711,16.717688 57.088,17.356288 C56.3939,18.133688 56.0885,19.438688 56.0885,21.271188 Z" id="Shape"></path>
                <polygon id="Path" points="66.6581 28.212388 66.6581 25.574788 69.3791 25.574788 69.3791 11.414588 67.1301 11.414588 67.1301 8.776858 72.6554 8.776858 72.6554 25.574788 75.1265 25.574788 75.1265 28.212388"></polygon>
                <path d="M81.9758,28.545588 C79.8101,28.545588 78.1442,27.851488 76.9503,26.629788 C75.6731,25.324888 75.09,23.492388 75.09,21.243388 C75.09,19.105488 75.7009,17.272988 76.9503,15.940288 C78.1719,14.663088 79.8379,13.996688 81.948,13.996688 C84.1414,13.996688 86.0017,14.829688 87.1678,16.301188 C88.2784,17.689488 88.8337,19.799588 88.7505,22.187388 L78.4218,22.187388 C78.4774,24.769588 79.6435,26.074488 81.948,26.074488 C83.9749,26.074488 85.0299,25.213788 85.3353,23.520088 L88.5283,23.769988 C87.8064,26.962988 85.5297,28.545588 81.9758,28.545588 Z M78.4496,19.716288 L85.3909,19.716288 C85.3353,18.938888 85.0855,18.133688 84.6135,17.550588 C84.0026,16.800988 83.1697,16.467788 81.948,16.467788 C80.643,16.467788 79.699,16.911988 79.1437,17.689488 C78.6995,18.300288 78.5051,19.049988 78.4496,19.716288 Z" id="Shape"></path>
                <path d="M90.8014,28.212388 L90.8014,14.329888 L94.0499,14.329888 L94.0499,17.050888 C94.5774,15.440488 96.16,14.246588 98.7144,14.024488 C99.0199,13.996688 99.6029,13.996688 100.047,13.996688 L99.9639,16.995288 C99.5474,16.967588 99.242,16.967588 98.9088,16.967588 C95.9657,16.967588 94.0777,18.078188 94.0777,21.965288 L94.0777,28.212388 L90.8014,28.212388 Z" id="Path"></path>
                <path d="M106.886,28.545588 C102.444,28.545588 99.8064,25.796888 99.8064,21.271188 C99.8064,17.050888 102.472,13.996688 106.886,13.996688 C111.246,13.996688 113.967,17.078588 113.967,21.271188 C113.967,25.630288 111.162,28.545588 106.886,28.545588 Z M103.333,21.271188 C103.333,23.103688 103.638,24.408588 104.36,25.185988 C104.915,25.824588 105.748,26.130088 106.886,26.130088 C108.08,26.130088 108.913,25.796888 109.469,25.130488 C110.163,24.325288 110.44,23.048088 110.44,21.271188 C110.44,19.494188 110.135,18.216988 109.469,17.411788 C108.886,16.745488 108.053,16.412288 106.886,16.412288 C105.748,16.412288 104.915,16.717688 104.332,17.356288 C103.638,18.133688 103.333,19.438688 103.333,21.271188 Z" id="Shape"></path>
            </g>
        </g>
    </g>
</svg>