<svg viewBox="0 0 54 32" fill="none" xmlns="http://www.w3.org/2000/svg">
<path fill-rule="evenodd" clip-rule="evenodd" d="M14.696 11.1173C16.7976 7.6942 15.7506 3.2072 12.3575 1.08706C11.2188 0.377772 9.89669 0 8.5593 0H0V23.5914H9.62921C13.6185 23.5914 16.8511 20.3303 16.8511 16.3059C16.8511 14.3553 16.0793 12.4896 14.696 11.1173ZM5.50241 5.55093H8.5593C9.50693 5.55093 10.2788 6.3296 10.2788 7.28559C10.2788 8.24159 9.50693 9.02026 8.5593 9.02026H5.50241V5.55093ZM9.62921 18.0405H5.50241V14.5712H9.62921C10.5768 14.5712 11.3487 15.3499 11.3487 16.3059C11.3487 17.2618 10.5768 18.0405 9.62921 18.0405ZM43.4461 0V23.5914H37.9437V1.17957L43.4461 0ZM27.3974 6.69965C22.7127 6.69965 18.9069 10.5313 18.9069 15.265C18.9069 19.991 22.7051 23.8304 27.3974 23.8304C32.0821 23.8304 35.8879 19.9988 35.8879 15.265C35.8803 10.539 32.0821 6.69965 27.3974 6.69965ZM27.3974 18.0405C25.8766 18.0405 24.6462 16.7993 24.6462 15.265C24.6462 13.7308 25.8766 12.4896 27.3974 12.4896C28.9182 12.4896 30.1486 13.7308 30.1486 15.265C30.1486 16.7993 28.9182 18.0405 27.3974 18.0405ZM30.1486 28.6027C30.1486 30.1355 28.9168 31.3782 27.3974 31.3782C25.878 31.3782 24.6462 30.1355 24.6462 28.6027C24.6462 27.0698 25.878 25.8272 27.3974 25.8272C28.9168 25.8272 30.1486 27.0698 30.1486 28.6027ZM53.9923 7.01576V12.559H51.2488V16.9226C51.2488 18.241 51.6691 19.2124 52.7696 19.2124C53.1899 19.2201 53.6026 19.1661 54 19.0505V23.1366C53.1746 23.5914 52.2576 23.8304 51.3176 23.8304H51.2488C51.2134 23.8304 51.178 23.8284 51.1436 23.8264C51.1112 23.8245 51.0798 23.8227 51.0501 23.8227H50.9966L50.8972 23.815C47.8251 23.6531 45.7387 21.7026 45.7387 18.3181V18.3026V18.2795V12.5667V3.95504L51.2411 2.77546V7.01576H53.9923Z" fill="#000"/>
</svg>
