<?xml version="1.0" encoding="UTF-8"?>
<svg width="1080px" height="271px" viewBox="0 0 1080 271" version="1.1" xmlns="http://www.w3.org/2000/svg" xmlns:xlink="http://www.w3.org/1999/xlink">
    <title>ethereum-logo</title>
    <g id="Page-1" stroke="none" stroke-width="1" fill="none" fill-rule="evenodd">
        <g id="ethereum-logo" fill="#000000" fill-rule="nonzero" stroke="#000000" stroke-width="5">
            <path d="M306.2,155.7 C306.167116,157.658337 304.558486,159.222283 302.6,159.2 L236.3,159.2 C238,175.6 250.3,190.6 267.7,190.6 C279.6,190.6 288.4,186.1 295,176.6 C295.623985,175.586508 296.710847,174.949382 297.9,174.9 C298.782674,174.874885 299.636714,175.214491 300.261111,175.838889 C300.885509,176.463286 301.225115,177.317326 301.2,178.2 C301.202291,178.803245 301.028524,179.394053 300.7,179.9 C294,191.5 280.7,197.2 267.7,197.2 C245.4,197.2 229.4,177.2 229.4,155.9 C229.4,134.6 245.3,114.6 267.7,114.6 C290.1,114.6 306.1,134.4 306.2,155.7 L306.2,155.7 Z M299.1,152.6 C297.7,136.2 285.1,121.2 267.7,121.2 C250.3,121.2 238,136.2 236.3,152.6 L299.1,152.6 Z" id="Shape"></path>
            <path d="M386.8,116.2 C388.600466,116.25222 390.04778,117.699534 390.1,119.5 C390.125115,120.382674 389.785509,121.236714 389.161111,121.861111 C388.536714,122.485509 387.682674,122.825115 386.8,122.8 L369,122.8 L369,192.7 C368.983714,194.515751 367.515751,195.983714 365.7,196 C363.899534,195.94778 362.45222,194.500466 362.4,192.7 L362.4,122.8 L345.3,122.8 C344.417326,122.825115 343.563286,122.485509 342.938889,121.861111 C342.314491,121.236714 341.974885,120.382674 342,119.5 C342.016286,117.684249 343.484249,116.216286 345.3,116.2 L362.4,116.2 L362.4,90.7 C362.403509,88.9544364 363.675509,87.4704364 365.4,87.2 C366.344234,87.074592 367.296217,87.3671337 368.007083,88.0011491 C368.717949,88.6351645 369.11703,89.5476263 369.1,90.5 L369.1,116.2 L386.8,116.2 Z" id="Path"></path>
            <path d="M495.3,150 L495.3,192.3 C495.24778,194.100466 493.800466,195.54778 492,195.6 C491.117326,195.625115 490.263286,195.285509 489.638889,194.661111 C489.014491,194.036714 488.674885,193.182674 488.7,192.3 L488.7,150 C488.7,135.7 480.6,121.5 464.7,121.5 C444.3,121.5 435.5,139.3 436.7,157.6 C436.7,158.1 436.9,160.2 436.9,160.5 L436.9,192.2 C436.896491,193.945564 435.624491,195.429564 433.9,195.7 C432.955766,195.825408 432.003783,195.532866 431.292917,194.898851 C430.582051,194.264835 430.18297,193.352374 430.199476,192.4 L430.199476,53.3 C430.216286,51.4842489 431.684249,50.0162857 433.5,50 C435.300466,50.05222 436.74778,51.4995341 436.8,53.3 L436.8,131.9 C442.5,121.7 452.7,114.8 464.6,114.8 C484.2,114.8 495.3,131.9 495.3,150 L495.3,150 Z" id="Path"></path>
            <path d="M614.4,155.7 C614.367116,157.658337 612.758486,159.222283 610.8,159.2 L544.5,159.2 C546.2,175.6 558.5,190.6 575.9,190.6 C587.8,190.6 596.6,186.1 603.2,176.6 C603.823985,175.586508 604.910847,174.949382 606.1,174.9 C606.982674,174.874885 607.836714,175.214491 608.461111,175.838889 C609.085509,176.463286 609.425115,177.317326 609.4,178.2 C609.402291,178.803245 609.228524,179.394053 608.9,179.9 C602.2,191.5 588.9,197.2 575.9,197.2 C553.6,197.2 537.6,177.2 537.6,155.9 C537.6,134.6 553.5,114.6 575.9,114.6 C598.1,114.6 614.3,134.4 614.4,155.7 L614.4,155.7 Z M607.2,152.6 C605.8,136.2 593.2,121.2 575.8,121.2 C558.4,121.2 546.1,136.2 544.4,152.6 L607.2,152.6 Z" id="Shape"></path>
            <path d="M695.9,119.3 C696.032041,121.148162 694.647289,122.756261 692.8,122.9 C673.3,125.8 664.5,141.7 664.5,160.2 L664.5,191.9 C664.496491,193.645564 663.224491,195.129564 661.5,195.4 C660.555766,195.525408 659.603783,195.232866 658.892917,194.598851 C658.182051,193.964835 657.78297,193.052374 657.8,192.1 L657.8,119.8 C657.803509,118.054436 659.075509,116.570436 660.8,116.3 C661.744234,116.174592 662.696217,116.467134 663.407083,117.101149 C664.117949,117.735165 664.51703,118.647626 664.5,119.6 L664.5,134.3 C670,125 680.9,116.2 692.3,116.2 C694,116.2 695.9,117.4 695.9,119.3 Z" id="Path"></path>
            <path d="M804.9,155.7 C804.867116,157.658337 803.258486,159.222283 801.3,159.2 L735,159.2 C736.7,175.6 749,190.6 766.4,190.6 C778.3,190.6 787.1,186.1 793.7,176.6 C794.323985,175.586508 795.410847,174.949382 796.6,174.9 C797.482674,174.874885 798.336714,175.214491 798.961111,175.838889 C799.585509,176.463286 799.925115,177.317326 799.9,178.2 C799.902291,178.803245 799.728524,179.394053 799.4,179.9 C792.7,191.5 779.4,197.2 766.4,197.2 C744.1,197.2 728.1,177.2 728.1,155.9 C728.1,134.6 744,114.6 766.4,114.6 C788.8,114.6 804.8,134.4 804.9,155.7 L804.9,155.7 Z M797.8,152.6 C796.4,136.2 783.8,121.2 766.4,121.2 C749,121.2 736.7,136.2 735,152.6 L797.8,152.6 Z" id="Shape"></path>
            <path d="M912.100009,120.1 L912.100009,192.7 C912.04778,194.500466 910.600466,195.94778 908.8,196 C907.917326,196.025115 907.063286,195.685509 906.438889,195.061111 C905.814491,194.436714 905.474885,193.582674 905.5,192.7 L905.5,178.9 C900,189.8 890.3,197.7 877.9,197.7 C858.2,197.7 847.3,180.6 847.3,162.5 L847.3,120 C847.316286,118.184249 848.784249,116.716286 850.6,116.7 C852.400466,116.75222 853.84778,118.199534 853.9,120 L853.9,162.5 C853.9,176.8 862,191 877.9,191 C900.2,191 905.5,170.1 905.5,147 L905.5,119.9 C905.515008,118.814439 906.055154,117.803462 906.949207,117.187559 C907.84326,116.571656 908.980347,116.427205 910,116.8 C911.283475,117.396542 912.103192,118.684669 912.100009,120.1 L912.100009,120.1 Z" id="Path"></path>
            <path d="M1080,149.7 L1080,192.2 C1079.94778,194.000466 1078.50047,195.44778 1076.7,195.5 C1075.81733,195.525115 1074.96329,195.185509 1074.33889,194.561111 C1073.71449,193.936714 1073.37488,193.082674 1073.4,192.2 L1073.4,149.7 C1073.4,135.4 1065.3,121.4 1049.4,121.4 C1029.4,121.4 1021.8,142.8 1021.8,159.4 L1021.8,192.2 C1021.74778,194.000466 1020.30047,195.44778 1018.5,195.5 C1017.61733,195.525115 1016.76329,195.185509 1016.13889,194.561111 C1015.51449,193.936714 1015.17488,193.082674 1015.2,192.2 L1015.2,149.7 C1015.2,135.4 1007.1,121.4 991.2,121.4 C971,121.4 962.7,137.3 963.4,158.5 C963.4,159 963.6,159.9 963.4,160.2 L963.4,192.1 C963.396491,193.845564 962.124491,195.329564 960.4,195.6 C959.455766,195.725408 958.503783,195.432866 957.792917,194.798851 C957.082051,194.164835 956.68297,193.252374 956.699476,192.3 L956.699476,119.8 C956.703509,118.054436 957.975509,116.570436 959.7,116.3 C960.644234,116.174592 961.596217,116.467134 962.307083,117.101149 C963.017949,117.735165 963.41703,118.647626 963.4,119.6 L963.4,131.7 C969.1,121.5 979.3,114.8 991.2,114.8 C1004.7,114.8 1015.2,123.4 1019.5,135.9 C1025,123.5 1035.7,114.8 1049.4,114.8 C1068.9,114.8 1080,131.7 1080,149.7 L1080,149.7 Z" id="Path"></path>
            <polygon id="Path" opacity="0.600000024" points="83 100.1 0 137.8 83 186.9 166.1 137.8"></polygon>
            <polygon id="Path" opacity="0.449999988" points="0 137.8 83 186.9 83 0"></polygon>
            <polygon id="Path" opacity="0.800000012" points="83 0 83 186.9 166.1 137.8"></polygon>
            <polygon id="Path" opacity="0.449999988" points="0 153.6 83 270.6 83 202.6"></polygon>
            <polygon id="Path" opacity="0.800000012" points="83 202.6 83 270.6 166.1 153.6"></polygon>
        </g>
    </g>
</svg>