<?xml version="1.0" encoding="UTF-8"?>
<svg viewBox="0 0 254 53" version="1.1" xmlns="http://www.w3.org/2000/svg" xmlns:xlink="http://www.w3.org/1999/xlink">
    <title>hashicorp-logo</title>
    <g id="Page-1" stroke="none" stroke-width="1" fill="none" fill-rule="evenodd">
        <g id="hashicorp-logo" fill="#000000" fill-rule="nonzero">
            <polygon id="Path" points="63.1489 12.2698 68.4785 12.2698 68.4785 23.758 80.6975 23.758 80.6975 12.2698 86.0791 12.2698 86.0791 40.4042 80.6975 40.4042 80.6975 28.5773 68.4785 28.5773 68.4785 40.4042 63.1489 40.4042"></polygon>
            <path d="M89.511,34.9597 C89.511,30.7395 92.4748,29.3328 96.0885,28.4731 L102.198,27.0664 L102.198,26.5714 C102.198,24.5134 100.872,23.237 98.7403,23.237 C96.6084,23.237 95.3605,24.4092 94.9706,26.337 L90.3949,25.816 C91.0709,21.9605 94.3206,19.4597 98.9482,19.4597 C103.576,19.4597 107.372,22.6899 107.372,27.379 L107.372,35.6109 C107.372,36.1319 107.528,36.2882 107.892,36.2882 L109.009,36.2882 L109.009,40.3781 L105.89,40.3781 C103.914,40.3781 103.03,39.7269 103.03,38.1378 C103.03,36.5487 103.108,37.0958 103.316,36.3664 L102.874,36.2101 C101.418,39.3361 99.3122,40.7168 96.2965,40.7168 C93.2807,40.7168 89.511,38.4244 89.511,34.9336 L89.511,34.9597 Z M97.6743,36.9655 C100.326,36.9655 102.198,35.0378 102.198,31.9899 L102.198,30.3748 L97.8303,31.4168 C95.6205,31.9378 94.7106,32.6933 94.7106,34.3865 C94.7106,36.0798 95.8805,36.9655 97.6743,36.9655 Z" id="Shape"></path>
            <path d="M110.907,34.8554 L115.795,33.8916 C116.315,36.0538 118.031,37.1479 120.318,37.1479 C122.606,37.1479 123.88,36.2101 123.88,34.647 C123.88,33.084 122.346,32.7454 119.461,32.2243 C115.821,31.6512 111.089,30.9739 111.089,25.9201 C111.089,20.8664 114.339,19.4336 119.643,19.4336 C124.946,19.4336 127.988,21.4134 128.82,25.3731 L123.88,26.1807 C123.438,24.1748 121.8,23.1328 119.617,23.1328 C117.433,23.1328 116.133,24.1487 116.133,25.5033 C116.133,26.858 117.693,27.405 120.578,27.926 C124.192,28.4991 128.924,29.1764 128.924,34.2302 C128.924,39.284 125.7,40.8731 120.292,40.8731 C114.885,40.8731 111.739,38.8672 110.855,34.8294 L110.907,34.8554 Z" id="Path"></path>
            <path d="M137.347,40.4302 L132.122,40.4302 L132.122,11.4882 L137.347,11.4882 L137.347,20.5017 C137.347,21.5437 137.139,22.5596 136.853,24.0445 L137.347,24.2008 C138.595,21.2311 140.467,19.4857 143.977,19.4857 C147.486,19.4857 150.788,22.2991 150.788,27.0924 L150.788,40.4302 L145.563,40.4302 L145.563,27.2487 C145.563,24.9042 144.393,23.6277 142.079,23.6277 C139.765,23.6277 137.347,25.6336 137.347,29.1765 L137.347,40.4302 Z" id="Path"></path>
            <path d="M161.499,35.2202 C161.499,36.0277 161.785,36.2622 162.383,36.2622 L164.671,36.2622 L164.671,40.4042 L159.939,40.4042 C157.574,40.4042 156.3,39.0756 156.3,36.6269 L156.3,24.0966 L153.414,24.0966 L153.414,19.9546 L161.525,19.9546 L161.525,35.2202 L161.499,35.2202 Z M155.572,14.484 C155.572,12.7126 157.028,11.2538 158.743,11.2538 C160.459,11.2538 161.915,12.7126 161.915,14.484 C161.915,16.2555 160.511,17.6622 158.743,17.6622 C156.976,17.6622 155.572,16.2555 155.572,14.484 Z" id="Shape"></path>
            <path d="M166.387,26.363 C166.387,17.9227 171.925,11.8269 179.932,11.8269 C187.939,11.8269 191.293,15.7345 192.515,21.0227 L187.211,22.2992 C186.197,18.6 183.754,16.516 179.906,16.516 C176.058,16.516 171.925,20.5798 171.925,26.363 C171.925,32.1462 175.148,36.2101 180.114,36.2101 C185.079,36.2101 186.457,34.074 187.471,30.1403 L192.489,30.7135 C191.293,37.0177 186.639,40.9252 180.062,40.9252 C173.484,40.9252 166.387,34.8034 166.387,26.3891 L166.387,26.363 Z" id="Path"></path>
            <path d="M194.673,30.1664 C194.673,23.9403 199.04,19.4857 205.098,19.4857 C211.155,19.4857 215.523,23.9403 215.523,30.1664 C215.523,36.3924 211.155,40.8992 205.098,40.8992 C199.04,40.8992 194.673,36.3924 194.673,30.1664 Z M210.323,30.1664 C210.323,26.3109 208.27,23.7319 205.098,23.7319 C201.926,23.7319 199.872,26.3109 199.872,30.1664 C199.872,34.0219 201.952,36.6529 205.098,36.6529 C208.244,36.6529 210.323,34.074 210.323,30.1664 Z" id="Shape"></path>
            <path d="M218.825,19.9547 L223.634,19.9547 L223.634,20.7622 C223.634,21.8563 223.582,22.742 223.27,24.3832 L223.764,24.5135 C224.518,21.8303 225.922,19.9807 229.224,19.9807 L230.706,19.9807 L230.706,25.0605 L228.574,25.0605 C225.636,25.0605 224.05,26.832 224.05,30.0883 L224.05,40.4563 L218.825,40.4563 L218.825,20.0068 L218.825,19.9547 Z" id="Path"></path>
            <path d="M233.15,19.9546 L238.297,19.9546 L238.297,20.8925 C238.297,21.8303 238.219,22.5336 237.933,24.2009 L238.427,24.3311 C239.675,21.0748 241.989,19.5118 245.005,19.5118 C249.97,19.5118 253.922,23.6017 253.922,30.1925 C253.922,36.7832 249.996,40.9252 245.005,40.9252 C240.013,40.9252 239.779,39.3622 238.505,36.0538 L238.063,36.2101 C238.297,37.8252 238.375,38.5807 238.375,39.4664 L238.375,48.6622 L233.15,48.6622 L233.15,19.9546 Z M248.722,30.1664 C248.722,26.1807 246.565,23.732 243.497,23.732 C240.429,23.732 238.271,26.1807 238.271,30.1664 C238.271,34.1521 240.429,36.653 243.497,36.653 C246.565,36.653 248.722,34.2042 248.722,30.1664 Z" id="Shape"></path>
            <polygon id="Path" points="20.7984 0 0 12.0353 0 40.8992 7.79939 45.4059 7.79939 16.542 20.7984 9.0395"></polygon>
            <polygon id="Path" points="29.0916 0 29.0916 23.0025 20.7983 23.0025 20.7983 14.4059 12.9729 18.9387 12.9729 48.4017 20.7983 52.9084 20.7983 29.984 29.0916 29.984 29.0916 38.5286 36.917 33.9958 36.917 4.53277"></polygon>
            <polygon id="Path" points="29.0918 52.9345 49.8902 40.8992 49.8902 12.0353 42.0648 7.52856 42.0648 36.3924 29.0918 43.895"></polygon>
        </g>
    </g>
</svg>