<svg fill="none" viewBox="0 0 391 76" xmlns="http://www.w3.org/2000/svg"><path clip-rule="evenodd" d="M300.78 76L367.749 0V0.00190041H390.08L366.472 76H300.78ZM339.401 61.8469C341.308 61.8735 342.6 61.6759 342.6 61.6759C342.6 61.6759 344.7 57.3762 345.021 56.639C341.194 56.8974 337.735 57.5434 335.816 58.7689C335.392 59.0444 335.063 59.3598 334.911 59.7702C334.708 60.3212 335.282 61.0527 335.96 61.3149C336.737 61.6208 337.774 61.826 339.401 61.8469ZM352.015 54.7029C357.42 55.2064 360.16 54.9765 362.93 51.7047L362.927 51.7028C365.024 49.0257 366.915 44.8723 366.915 44.8723C366.915 44.8723 366.231 45.676 363.575 46.2403C362.467 46.4759 361.296 46.4607 360.384 46.4075C359.223 46.3402 358.218 46.1267 357.067 45.8822C355.748 45.6022 354.238 45.2814 352.081 45.0927C346.6 44.6063 342.479 46.1871 339.906 47.8819C339.796 47.9625 339.694 48.0307 339.596 48.0958C339.134 48.4022 338.772 48.6425 338.211 49.8066C337.605 51.1674 337.027 52.4159 336.489 53.5793C335.959 54.7257 335.467 55.7895 335.023 56.7967C334.742 57.418 334.653 57.8512 334.653 57.8512C334.67 57.8321 334.691 57.808 334.715 57.7794C335.329 57.0617 338.38 53.497 352.015 54.7029ZM361.944 44.2054C364.158 44.1351 365.286 43.6335 366.164 43.1262H366.166C367.285 42.4859 368.266 41.5036 369.615 39.3015C370.258 38.0974 371.428 35.6571 372.111 34.2327C372.33 33.7758 372.499 33.4235 372.584 33.25C372.584 33.25 370.641 35.2032 364.772 35.2279C362.902 35.2053 361.436 34.9142 359.897 34.6085C358.201 34.2718 356.417 33.9175 353.905 33.8846C348.584 33.82 344.54 35.6193 343.326 38.1007C342.595 39.7404 339.764 46.1054 339.764 46.1054C339.764 46.1054 341.502 44.5987 344.29 43.7152C348.116 42.5049 351.681 42.7291 355.344 43.3143C356.144 43.4438 356.837 43.5816 357.48 43.7095C358.997 44.0114 360.233 44.2575 361.944 44.2054ZM29.7978 39.4801C32.758 39.4801 35.8759 40.6942 37.6904 43.0635C37.7132 43.0939 42.2314 37.9335 42.2314 37.9335C39.0622 34.7149 34.5478 32.5679 29.7959 32.5679C20.8317 32.5679 14.1342 39.254 14.1342 47.5C14.1342 55.746 20.8317 62.4321 29.7959 62.4321C34.677 62.4321 39.0071 60.2756 42.1763 56.9924C42.1763 56.9924 37.755 51.946 37.736 51.9726C36.0184 54.397 33.0335 55.5199 29.7959 55.5199C24.9813 55.5199 21.9451 51.9004 21.9451 47.4715C21.9451 43.0426 24.9813 39.4801 29.7959 39.4801H29.7978ZM8.8103 33.2593H0V61.7403H8.8103V33.2593ZM79.8191 33.2593H88.4356V55.0181H102.142V61.7403H79.8191V33.2593ZM168.959 49.1281L154.708 33.2593H145.164V61.7403H152.857V42.8486L152.979 42.7175L169.864 61.7403H176.639V33.2593H168.959V49.1281ZM263.27 33.2593H254.608V61.7403H263.27V33.2593ZM289.115 33.2593C295.416 33.2593 300.202 36.324 300.202 42.2463V42.2482C300.202 46.8804 297.909 49.434 294.025 50.9274L300.77 61.7403H291.642L285.564 51.5297H278.578V61.7403H269.924V33.2593H289.115ZM278.578 46.0558H287.696L287.698 46.0539C290.407 46.0539 292.051 44.7619 292.051 42.5028C292.051 40.5306 291.036 38.8529 287.248 38.8529H278.578V46.0558ZM198.17 33.2593H183.291V61.7403H198.345C209.15 61.7403 214.248 55.5957 214.248 47.4827C214.248 38.6629 208.707 33.2593 198.17 33.2593ZM197.104 55.4513H191.921V39.4419H197.104C202.884 39.4419 205.428 41.8872 205.428 47.4808C205.428 52.6982 203.372 55.4494 197.104 55.4494V55.4513ZM215.386 61.7403L228.184 33.2593H237.945L250.806 61.7403H242.683L240.24 56.274H225.977L223.497 61.7403H215.386ZM233.103 39.3754L228.42 50.8058H237.785L233.103 39.3754ZM118.741 33.2593L105.942 61.7403H114.053L116.533 56.274H130.796L133.239 61.7403H141.362L128.501 33.2593H118.741ZM118.976 50.8058L123.66 39.3754L128.341 50.8058H118.976ZM68.8883 50.2339H55.4971V55.7154H73.739V61.7403H46.9224V33.2593H73.6383V39.1588H55.4971V44.3686H68.8883V50.2339Z" fill="currentColor" fill-rule="evenodd"></path></svg>