<svg viewBox="0 0 367 100" fill="none" xmlns="http://www.w3.org/2000/svg"><path d="M35.843 18H22.947v12.81h12.896zm51.635 0H74.582v12.81h12.896zm-38.74 12.81h-25.79v12.81h25.79zm38.74 0H61.687v12.81h25.791z" fill="#000"/><path d="M87.478 43.57h-64.53v12.81h64.53zM35.843 56.38H22.947v12.81h12.896zm25.792 0H48.739v12.81h12.896zm25.843 0H74.582v12.81h12.896z" fill="#000"/><path d="M48.739 69.19H10V82h38.739zm51.635 0h-38.74V82h38.74zM35.843 18H22.947v12.81h12.896zm51.635 0H74.582v12.81h12.896zm-38.74 12.81h-25.79v12.81h25.79zm38.74 0H61.687v12.81h25.791z" fill="#000"/><path d="M87.478 43.57h-64.53v12.81h64.53zM35.843 56.38H22.947v12.81h12.896zm25.792 0H48.739v12.81h12.896zm25.843 0H74.582v12.81h12.896zM48.739 69.19H10V82h38.739zm51.635 0h-38.74V82h38.74zm24.296-1.188V29.52h11.606l6.964 26.241 6.912-26.24h11.658v38.482h-7.222v-30.27l-7.634 30.27h-7.48l-7.583-30.27v30.27zm44.773-31.613v-6.818h7.377v6.818zm0 31.613V40.109h7.377v27.893zm12.329-7.955 7.377-1.136c.31 1.446.928 2.531 1.908 3.254s2.322 1.136 4.025 1.136c1.702 0 3.352-.361 4.28-1.033.672-.465.98-1.136.98-1.962s-.153-1.034-.516-1.395c-.36-.362-1.185-.672-2.475-.982-5.932-1.29-9.699-2.53-11.296-3.615-2.22-1.498-3.303-3.616-3.303-6.25s.93-4.443 2.838-6.096 4.849-2.48 8.872-2.48c4.024 0 6.654.62 8.512 1.86 1.857 1.24 3.145 3.1 3.817 5.527l-6.965 1.292q-.464-1.628-1.702-2.48c-.825-.568-2.012-.878-3.56-.878-1.547 0-3.352.259-4.177.827-.568.361-.825.878-.825 1.498s.257.981.722 1.343c.67.465 2.94 1.188 6.86 2.066s6.655 1.963 8.202 3.306c1.548 1.291 2.322 3.15 2.322 5.475s-1.084 4.752-3.199 6.612-5.262 2.738-9.44 2.738c-4.177 0-6.809-.775-9.027-2.325s-3.662-3.616-4.332-6.25zM226.96 40.16v5.89h-5.055v11.26c0 2.273 0 3.616.155 3.977.103.362.308.672.67.93.36.258.773.361 1.238.361s1.65-.258 2.939-.723l.62 5.734c-1.702.723-3.662 1.085-5.829 1.085s-2.528-.207-3.61-.672c-1.085-.465-1.858-1.033-2.322-1.756-.465-.723-.825-1.653-1.033-2.893-.153-.878-.257-2.582-.257-5.217V45.997h-3.405V40.11h3.405v-5.527l7.377-4.288v9.866zm12.172 27.842h-7.375V40.11h6.86v3.977c1.187-1.86 2.217-3.1 3.147-3.72.928-.619 2.01-.877 3.197-.877s3.303.465 4.85 1.395l-2.27 6.456c-1.237-.826-2.372-1.188-3.457-1.188-1.082 0-1.908.31-2.63.878q-1.083.852-1.702 3.1c-.413 1.497-.62 4.597-.62 9.35v8.625zm19.344-19.37-6.705-1.188c.773-2.687 2.062-4.701 3.869-5.992 1.856-1.292 4.538-1.963 8.2-1.963 3.663 0 5.727.413 7.327 1.188q2.397 1.162 3.403 2.944c.672 1.188.98 3.41.98 6.612l-.103 8.626c0 2.428.103 4.236.362 5.424a14.8 14.8 0 0 0 1.341 3.72h-7.273c-.207-.466-.412-1.24-.722-2.17-.103-.414-.207-.724-.258-.879-1.239 1.24-2.579 2.17-4.024 2.738s-2.94.93-4.59.93c-2.89 0-5.107-.775-6.757-2.325q-2.477-2.325-2.477-5.888c0-2.376.362-2.996 1.134-4.236.775-1.24 1.805-2.17 3.148-2.84q2.01-1.008 5.879-1.706c3.457-.67 5.83-1.24 7.17-1.807v-.724c0-1.394-.36-2.427-1.03-3.047-.723-.62-2.012-.93-3.972-.93s-2.323.258-3.045.775c-.722.516-1.34 1.446-1.805 2.738zm9.854 5.992c-.93.31-2.425.671-4.49 1.136-2.062.413-3.402.878-4.022 1.291-.98.672-1.445 1.55-1.445 2.583s.362 1.911 1.135 2.686c.775.775 1.755 1.136 2.94 1.136 1.187 0 2.58-.413 3.817-1.29.878-.672 1.497-1.499 1.755-2.429.205-.62.31-1.808.31-3.616zm14.494 13.378V29.52h7.375v38.483zm62.569 0h-8.459l-3.353-8.73H318.21l-3.147 8.73h-8.253l14.959-38.483h8.202l15.372 38.483zm-14.287-15.186-5.314-14.257-5.21 14.257zm18.157 15.186V29.52H357v38.483z" fill="#000"/></svg>