<svg viewBox="0 0 149 23" xmlns="http://www.w3.org/2000/svg" xmlns:xlink="http://www.w3.org/1999/xlink"><defs><path id="a" d="M0 0h149v22.142H0z"/></defs><g fill="none" fill-rule="evenodd"><mask id="b" fill="#fff"><use xlink:href="#a"/></mask><g mask="url(#b)" fill="#000" fill-rule="nonzero"><path d="m25.033 17.458-4.087 4.382a.95.95 0 0 1-.692.302H.879a.476.476 0 0 1-.348-.798l4.082-4.382a.95.95 0 0 1 .692-.302H24.68a.473.473 0 0 1 .353.798m-4.087-8.827a.96.96 0 0 0-.692-.302H.879a.475.475 0 0 0-.348.798l4.082 4.385c.18.191.43.3.692.302H24.68a.476.476 0 0 0 .346-.798l-4.08-4.385ZM.879 5.483h19.375a.95.95 0 0 0 .692-.302L25.033.798A.475.475 0 0 0 24.68 0H5.305a.95.95 0 0 0-.692.302L.531 4.685a.475.475 0 0 0 .348.798M48.653 9.365H38.288V5.95h13.06V2.538H38.252a3.407 3.407 0 0 0-3.425 3.388v3.46a3.406 3.406 0 0 0 3.425 3.392h10.38v3.414H35.075v3.413h13.578a3.41 3.41 0 0 0 3.425-3.388v-3.46a3.406 3.406 0 0 0-3.425-3.392m20.08-6.827H58.33a3.408 3.408 0 0 0-3.434 3.388v10.291a3.405 3.405 0 0 0 3.434 3.39h10.405a3.408 3.408 0 0 0 3.425-3.39V5.926a3.4 3.4 0 0 0-3.425-3.388h-.002Zm-.025 13.654H58.354V5.952h10.35l.004 10.24Zm36.468-13.654H95.028a3.407 3.407 0 0 0-3.425 3.388v13.68h3.46v-5.607h10.102v5.607h3.46V5.926a3.41 3.41 0 0 0-3.449-3.389v.001Zm-.025 8.047H95.049V5.951h10.102v4.634Zm40.424-8.047h-10.149a3.406 3.406 0 0 0-3.425 3.388v13.68h3.46v-5.607h10.079v5.607H149V5.926a3.42 3.42 0 0 0-1.011-2.403 3.4 3.4 0 0 0-2.414-.985m-.035 8.047h-10.102V5.951h10.102v4.634Zm-20.066 5.607h-1.384l-4.948-12.224a2.27 2.27 0 0 0-2.113-1.43h-3.07a2.27 2.27 0 0 0-2.283 2.26v14.808h3.46V5.95h1.384l4.945 12.225a2.285 2.285 0 0 0 2.122 1.42h3.07a2.27 2.27 0 0 0 2.283-2.26V2.538h-3.466v13.654Zm-46.8-13.654h-3.46v13.68a3.405 3.405 0 0 0 3.438 3.388H89.03v-3.414H78.675l-.001-13.654Z"/></g></g></svg>