<svg viewBox="0 0 229 40" xmlns="http://www.w3.org/2000/svg"><path d="M.01 19.305h19.304V0C8.653 0 .01 8.643.01 19.305m30.201-.003c5.33 0 9.651-4.32 9.651-9.65S35.542 0 30.211 0 20.56 4.321 20.56 9.651s4.32 9.651 9.651 9.651M9.661 39.854a9.651 9.651 0 1 0 0-19.303 9.651 9.651 0 0 0 0 19.303m10.899 0c10.662 0 19.304-8.642 19.304-19.304H20.56zm41.726-22.156c-3.888-.675-6.272-1.207-6.272-3.585 0-2.132 1.702-3.404 4.554-3.404s4.878 1.646 5.153 4.096l.016.147h4.298l-.008-.174c-.22-4.61-4.109-7.829-9.46-7.829s-8.93 3.064-8.93 7.449c0 5.002 3.89 6.364 8.092 7.092 3.933.71 6.343 1.272 6.343 3.725 0 2.165-1.867 3.512-4.87 3.512-3.308 0-5.578-1.841-5.786-4.69l-.011-.15-4.3-.076.004.172c.11 5.086 4.153 8.504 10.057 8.504 5.379 0 9.283-3.236 9.283-7.694.036-4.923-3.903-6.319-8.165-7.093zm42.097 5.29c0 3.66-1.675 5.845-4.482 5.845s-4.025-1.765-4.025-5.244v-9.747h-4.131v10.136c0 2.96.728 5.192 2.164 6.635 1.237 1.242 2.957 1.874 5.112 1.874 2.288 0 4.079-.754 5.463-2.304l.385 2.092h3.646V13.842h-4.132v9.146M120.2 13.63c-2.42 0-4.28.776-5.674 2.37l-.384-2.158h-3.612v18.431h4.131v-9.286c0-3.593 1.741-5.739 4.659-5.739 2.741 0 4.13 1.717 4.13 5.102v9.922h4.166V22.136c0-7.402-4.647-8.509-7.416-8.509zm33.789-6.392h-4.166v19.957c0 3.466 1.619 5.08 5.093 5.08h5.116v-3.689h-4.34c-1.271 0-1.701-.448-1.701-1.778v-9.274h6.041v-3.689h-6.041V7.238zm18.665 6.604h-1.01c-2.402 0-4.072.776-5.22 2.435l-.378-2.435h-3.685v18.431h4.132v-9.25c0-4.594 2.698-5.279 4.306-5.279h1.855v-3.902m55.994.013h-5.087l-7.232 8.495V7.197h-4.133v25.078h4.133V23.78l7.232 8.496h5.087l-7.807-9.21zm-147.654-.183c-5.28 0-9.405 4.024-9.405 9.412s4.021 9.378 9.405 9.378 9.475-4.06 9.475-9.412c0-5.354-4.02-9.378-9.475-9.378m.036 14.908c-3.007 0-5.21-2.346-5.21-5.494 0-3.148 2.167-5.528 5.174-5.528s5.243 2.378 5.243 5.528c0 3.15-2.202 5.494-5.209 5.494zm62.411-13.404c-1.432-.955-3.194-1.504-5.196-1.504-5.28 0-9.405 4.024-9.405 9.412s4.022 9.378 9.405 9.378c2.112 0 3.974-.627 5.458-1.71l.255 1.522h3.613V7.196h-4.132v7.978zm-5.16 13.404c-3.006 0-5.21-2.346-5.21-5.494s2.168-5.529 5.174-5.529c3.007 0 5.244 2.38 5.244 5.529s-2.203 5.494-5.209 5.494zm63.499-11.074c2.214 0 3.971 1.372 4.637 3.411h4.463c-.809-4.36-4.394-7.315-9.066-7.315-5.306 0-9.452 4.045-9.452 9.462s4.041 9.426 9.452 9.426c4.568 0 8.222-2.954 9.031-7.351h-4.428c-.633 2.04-2.389 3.447-4.604 3.447-3.058 0-5.201-2.357-5.201-5.521 0-3.201 2.11-5.559 5.166-5.559zm-14.769-2.14c-1.47-1.05-3.31-1.656-5.415-1.656-5.278 0-9.403 4.025-9.403 9.41s4.019 9.377 9.403 9.377c2.094 0 3.939-.616 5.416-1.68l.224 1.456h3.651v-18.43h-3.613l-.263 1.521zm-5.379 13.248c-3.006 0-5.209-2.344-5.209-5.493 0-3.15 2.168-5.527 5.173-5.527s5.243 2.379 5.243 5.527-2.2 5.493-5.207 5.493"/></svg>