<svg width="130" height="23" viewBox="0 0 130 23" fill="none" xmlns="http://www.w3.org/2000/svg">
<path fill-rule="evenodd" clip-rule="evenodd" d="M8.43253 6.89803C9.37662 5.51841 10.1953 4.83625 11.4211 5.21519C12.1629 5.4445 12.4673 6.39138 12.1629 7.57948C11.6275 9.66853 11.4211 10.8677 11.4211 12.2949C13.3041 8.34824 16.7848 3.10279 18.2934 1.33851C19.3361 0.119074 20.8307 0.274584 21.3933 0.546585C22.3075 0.988543 22.3558 1.94685 22.0402 2.86333C19.8571 9.20388 19.7811 12.5903 19.513 15.8802C20.8698 12.2315 22.5194 8.79934 24.5115 6.38214C25.3509 5.22278 26.8219 4.85884 27.7511 5.23546C28.6803 5.61208 28.8921 6.51314 28.6803 7.64229C28.128 10.5868 27.8539 11.9669 27.8539 13.1076C28.8629 12.3359 29.6663 11.6839 31.5031 11.5349C33.3399 11.3859 37.1359 12.1171 37.1359 12.1171C37.1359 12.1171 34.9445 12.4895 33.787 12.7733C31.4142 13.3551 30.5856 14.0356 29.0496 16.2852C28.6033 16.9388 27.8539 17.4407 27.0097 17.3769C26.1654 17.313 25.5985 16.7819 25.3509 16.0646C25.0066 15.0677 24.9043 13.5765 25.3509 10.3495C23.1625 13.6789 22.0402 18.2015 20.5408 21.2007C20.1574 21.9675 19.5027 22.8413 18.6154 22.8413C17.7281 22.8413 16.5774 22.4972 16.428 19.8609C16.0453 13.1076 17.3211 7.73361 17.3211 7.73361C14.8362 11.6736 14.0426 13.9702 13.1783 15.1678C12.3139 16.3654 11.4752 17.4025 10.455 17.3769C9.43478 17.3512 8.84103 16.2107 8.71194 15.1678C8.58284 14.1249 8.54569 12.7929 8.92275 10.3495C7.94125 11.331 7.07823 11.9957 5.53265 12.4119C3.98707 12.8282 2.14146 12.5633 0 12.1171C2.14146 12.1171 5.74519 10.8251 8.43253 6.89803Z" fill="#000"/>
<path d="M122.211 8.12396L125.324 16.9422L124.048 19.3595L119.716 8.12396H122.211ZM119.968 22.1055V20.1523H121.379C121.689 20.1523 121.96 20.1137 122.192 20.0363C122.424 19.9719 122.63 19.8429 122.81 19.6496C123.004 19.4562 123.165 19.1725 123.294 18.7987L127.258 8.12396H129.695L125.015 19.8043C124.667 20.6809 124.229 21.3191 123.7 21.7187C123.171 22.1184 122.514 22.3182 121.727 22.3182C121.392 22.3182 121.076 22.2989 120.78 22.2602C120.496 22.2344 120.226 22.1829 119.968 22.1055Z" fill="#000"/>
<path d="M113.298 8.12393H119.293V10.0964H113.298V8.12393ZM119.313 3.38606V5.39723C119.184 5.39723 119.048 5.39723 118.906 5.39723C118.778 5.39723 118.642 5.39723 118.5 5.39723C117.907 5.39723 117.508 5.53905 117.301 5.82268C117.108 6.1063 117.011 6.48662 117.011 6.96363V17.677H114.671V6.96363C114.671 6.08697 114.813 5.38434 115.097 4.85576C115.38 4.31429 115.78 3.92108 116.296 3.67613C116.811 3.41829 117.411 3.28937 118.094 3.28937C118.288 3.28937 118.487 3.29581 118.694 3.30871C118.913 3.3216 119.119 3.34738 119.313 3.38606Z" fill="#000"/>
<path d="M109.449 17.677V8.12391H111.809V17.677H109.449ZM110.61 6.20942C110.21 6.20942 109.868 6.07405 109.585 5.80332C109.314 5.51969 109.179 5.17805 109.179 4.77839C109.179 4.37873 109.314 4.04354 109.585 3.7728C109.868 3.50207 110.21 3.3667 110.61 3.3667C111.009 3.3667 111.345 3.50207 111.615 3.7728C111.899 4.04354 112.041 4.37873 112.041 4.77839C112.041 5.17805 111.899 5.51969 111.615 5.80332C111.345 6.07405 111.009 6.20942 110.61 6.20942Z" fill="#000"/>
<path d="M100.421 17.677H98.0615V3.28937H100.44V9.36157C100.737 8.89746 101.149 8.53003 101.678 8.2593C102.219 7.97567 102.838 7.83385 103.534 7.83385C104.707 7.83385 105.597 8.18839 106.203 8.89746C106.822 9.60653 107.131 10.5734 107.131 11.7982V17.677H104.772V12.359C104.772 11.8175 104.688 11.3728 104.52 11.0247C104.353 10.6766 104.121 10.4187 103.824 10.2511C103.528 10.0706 103.18 9.9804 102.78 9.9804C102.29 9.9804 101.865 10.09 101.504 10.3091C101.156 10.5154 100.885 10.8055 100.692 11.1794C100.511 11.5532 100.421 11.9787 100.421 12.4557V17.677Z" fill="#000"/>
<path d="M86.8687 12.8811C86.8687 11.9013 87.0685 11.0311 87.4681 10.2704C87.8807 9.50978 88.4415 8.91674 89.1506 8.4913C89.8725 8.05297 90.7041 7.8338 91.6452 7.8338C92.9473 7.8338 94.0109 8.17544 94.836 8.85873C95.674 9.52912 96.1575 10.438 96.2864 11.5854H93.9271C93.7853 11.0439 93.521 10.6378 93.1342 10.3671C92.7604 10.0835 92.2898 9.94167 91.7226 9.94167C91.2326 9.94167 90.7943 10.0641 90.4076 10.3091C90.0337 10.5412 89.7436 10.8764 89.5373 11.3147C89.3311 11.753 89.2279 12.2752 89.2279 12.8811C89.2279 13.487 89.3246 14.0091 89.518 14.4475C89.7114 14.8858 89.9886 15.2275 90.3495 15.4724C90.7234 15.7045 91.1617 15.8205 91.6645 15.8205C92.2576 15.8205 92.7475 15.6787 93.1342 15.3951C93.5339 15.1114 93.7982 14.7053 93.9271 14.1767H96.3057C96.2026 14.9245 95.9383 15.582 95.5128 16.1492C95.1003 16.7036 94.5653 17.1419 93.9078 17.4642C93.2503 17.7737 92.5025 17.9284 91.6645 17.9284C90.6976 17.9284 89.8532 17.7221 89.1312 17.3095C88.4093 16.8841 87.8485 16.2975 87.4488 15.5498C87.062 14.7891 86.8687 13.8996 86.8687 12.8811Z" fill="#000"/>
<path d="M80.9386 17.9284C79.9974 17.9284 79.1594 17.7156 78.4246 17.2902C77.7026 16.8519 77.1354 16.2588 76.7228 15.5111C76.3103 14.7504 76.104 13.8802 76.104 12.9004C76.104 11.9077 76.3038 11.0311 76.7035 10.2704C77.1031 9.50978 77.664 8.91674 78.3859 8.4913C79.1079 8.05297 79.933 7.8338 80.8612 7.8338C81.8281 7.8338 82.6597 8.04008 83.3558 8.45262C84.052 8.85228 84.587 9.41309 84.9609 10.1351C85.3477 10.857 85.5411 11.7208 85.5411 12.7264V13.4419L77.3417 13.4612L77.3803 11.9528H83.2011C83.2011 11.2953 82.9884 10.7668 82.563 10.3671C82.1504 9.96745 81.5896 9.76762 80.8805 9.76762C80.3262 9.76762 79.8556 9.88366 79.4689 10.1157C79.095 10.3478 78.8114 10.6959 78.618 11.16C78.4246 11.6241 78.3279 12.1913 78.3279 12.8617C78.3279 13.8931 78.5471 14.6731 78.9854 15.2017C79.4366 15.7302 80.1006 15.9945 80.9772 15.9945C81.6218 15.9945 82.1504 15.8721 82.563 15.6271C82.9884 15.3822 83.2656 15.0341 83.3945 14.5828H85.5797C85.3735 15.6271 84.8578 16.4458 84.0327 17.0388C83.2205 17.6318 82.1891 17.9284 80.9386 17.9284Z" fill="#000"/>
<path d="M70.1744 17.9284C69.2333 17.9284 68.3953 17.7156 67.6604 17.2902C66.9385 16.8519 66.3712 16.2588 65.9587 15.5111C65.5461 14.7504 65.3398 13.8802 65.3398 12.9004C65.3398 11.9077 65.5397 11.0311 65.9393 10.2704C66.339 9.50978 66.8998 8.91674 67.6218 8.4913C68.3437 8.05297 69.1688 7.8338 70.0971 7.8338C71.064 7.8338 71.8955 8.04008 72.5917 8.45262C73.2879 8.85228 73.8229 9.41309 74.1968 10.1351C74.5835 10.857 74.7769 11.7208 74.7769 12.7264V13.4419L66.5775 13.4612L66.6162 11.9528H72.437C72.437 11.2953 72.2243 10.7668 71.7988 10.3671C71.3863 9.96745 70.8255 9.76762 70.1164 9.76762C69.562 9.76762 69.0915 9.88366 68.7047 10.1157C68.3308 10.3478 68.0472 10.6959 67.8538 11.16C67.6604 11.6241 67.5637 12.1913 67.5637 12.8617C67.5637 13.8931 67.7829 14.6731 68.2212 15.2017C68.6725 15.7302 69.3364 15.9945 70.2131 15.9945C70.8577 15.9945 71.3863 15.8721 71.7988 15.6271C72.2243 15.3822 72.5014 15.0341 72.6304 14.5828H74.8156C74.6093 15.6271 74.0936 16.4458 73.2685 17.0388C72.4563 17.6318 71.4249 17.9284 70.1744 17.9284Z" fill="#000"/>
<path d="M53.9272 22.1054V8.12388H56.1125L56.2672 9.57424C56.5508 9.01988 56.9891 8.59444 57.5822 8.29792C58.1752 7.98851 58.8263 7.8338 59.5353 7.8338C60.4507 7.8338 61.2371 8.04008 61.8946 8.45262C62.565 8.86517 63.0871 9.43888 63.461 10.1737C63.8349 10.9086 64.0218 11.7788 64.0218 12.7844C64.0218 13.7771 63.8478 14.6602 63.4997 15.4337C63.1516 16.2073 62.6423 16.8196 61.972 17.2709C61.3145 17.7092 60.5087 17.9284 59.5547 17.9284C58.8456 17.9284 58.1946 17.793 57.6015 17.5223C57.0214 17.2515 56.583 16.8777 56.2865 16.4006V22.1054H53.9272ZM56.3058 12.9004C56.3058 13.4677 56.4154 13.9705 56.6346 14.4088C56.8538 14.8471 57.1632 15.1952 57.5628 15.4531C57.9754 15.698 58.4524 15.8205 58.9939 15.8205C59.5482 15.8205 60.0252 15.698 60.4249 15.4531C60.8246 15.1952 61.1275 14.8471 61.3338 14.4088C61.5401 13.9705 61.6432 13.4677 61.6432 12.9004C61.6432 12.3332 61.5401 11.8304 61.3338 11.392C61.1275 10.9537 60.8246 10.6121 60.4249 10.3671C60.0252 10.1093 59.5482 9.98035 58.9939 9.98035C58.4524 9.98035 57.9754 10.1028 57.5628 10.3478C57.1632 10.5927 56.8538 10.9344 56.6346 11.3727C56.4154 11.811 56.3058 12.3203 56.3058 12.9004Z" fill="#000"/>
<path d="M42.0191 7.48583C42.0191 6.66073 42.2318 5.93232 42.6572 5.3006C43.0827 4.66889 43.6693 4.17899 44.417 3.8309C45.1776 3.46992 46.0543 3.28943 47.047 3.28943C48.001 3.28943 48.8261 3.45703 49.5223 3.79222C50.2314 4.12742 50.7793 4.60443 51.1661 5.22325C51.5657 5.84208 51.7784 6.57693 51.8042 7.42781H49.3289C49.3031 6.82188 49.084 6.35132 48.6714 6.01612C48.2589 5.66803 47.7045 5.49399 47.0083 5.49399C46.2477 5.49399 45.6353 5.66803 45.1712 6.01612C44.72 6.35132 44.4944 6.81543 44.4944 7.40847C44.4944 7.91127 44.6297 8.31092 44.9005 8.60744C45.1841 8.89107 45.6224 9.10379 46.2155 9.24561L48.4394 9.7484C49.6512 10.0062 50.5537 10.451 51.1467 11.0827C51.7398 11.7016 52.0363 12.5396 52.0363 13.5967C52.0363 14.4605 51.8236 15.2211 51.3981 15.8786C50.9727 16.5361 50.3667 17.0454 49.5803 17.4063C48.8068 17.7544 47.8979 17.9285 46.8536 17.9285C45.8609 17.9285 44.9907 17.7609 44.243 17.4257C43.4952 17.0776 42.9086 16.5941 42.4832 15.9753C42.0706 15.3565 41.8515 14.6281 41.8257 13.7901H44.301C44.3139 14.3831 44.5459 14.8537 44.9972 15.2018C45.4613 15.537 46.0865 15.7046 46.873 15.7046C47.6981 15.7046 48.3491 15.537 48.8261 15.2018C49.316 14.8537 49.561 14.396 49.561 13.8288C49.561 13.3389 49.4321 12.9521 49.1742 12.6685C48.9164 12.372 48.4974 12.1657 47.9172 12.0497L45.674 11.5469C44.475 11.289 43.5661 10.8249 42.9473 10.1545C42.3285 9.47122 42.0191 8.58166 42.0191 7.48583Z" fill="#000"/>
</svg>
