<svg  viewBox="0 0 142 31" fill="none" xmlns="http://www.w3.org/2000/svg">
<path d="M26.4388 9.36447C27.7858 9.36447 28.9155 8.25561 28.9155 7.039C28.9155 5.43132 28.4375 3.91055 26.6126 3.91055C25.3751 3.91055 23.2443 5.30097 23.2443 6.49673C23.2443 7.90801 24.7877 9.36447 26.4388 9.36447ZM65.6869 9.99364C65.6869 9.53827 64.6962 8.66231 63.4187 8.39639C62.6366 8.23476 61.778 8.22954 60.9177 8.22954C60.9612 7.62123 60.8969 6.45154 60.9177 5.42959C60.9177 5.27664 60.9838 4.99508 60.9838 4.64748C60.9838 4.29987 60.9177 3.90882 60.6796 3.56121C60.7665 3.32136 60.81 3.10585 60.81 2.9529C60.81 2.12734 59.5725 1.80233 58.4202 1.80233C57.4208 1.80233 56.4649 2.17079 56.1399 3.25879C55.5976 5.19148 55.4447 6.01878 55.3143 8.03836C54.0977 8.1044 51.7323 8.13395 51.7827 8.87435C51.9148 10.8053 53.7884 11.4275 55.1127 11.471C54.9563 16.765 50.5313 25.3543 49.1426 25.3543C48.8819 25.3543 48.7742 24.9406 48.7742 24.0508C48.7742 22.3127 49.1426 19.9873 49.1426 17.5123C49.1426 15.9916 48.9897 14.6011 48.5135 13.7113C47.926 12.6476 45.9725 12.1262 44.45 12.1262C43.8625 12.1262 43.3637 12.1922 42.9935 12.3434C40.4525 13.3654 38.3217 19.1426 37.5187 20.4252C37.908 16.9283 38.4729 14.2083 38.4729 12.7779C38.4729 11.9732 37.7586 11.2572 36.9539 11.2572C36.6497 11.2572 36.3664 11.3649 36.1057 11.6048C34.9551 12.0184 33.4326 11.6048 33.1719 13.235C33.1059 13.6696 33.0155 14.1892 32.9773 14.7784C32.6922 19.0175 28.4532 26.8785 26.2859 26.8785C25.7436 26.8785 25.6341 26.1833 25.6341 25.2935C25.6341 22.3388 27.1549 16.1254 27.1983 14.8653C27.2852 14.6707 27.3287 14.4517 27.3287 14.257C27.3287 13.0838 25.9383 11.9315 24.5044 11.9315C24.0907 11.9315 23.7883 11.8446 23.4616 11.8446C23.2443 11.8446 23.0271 11.8881 22.7872 12.0393C21.2021 13.0387 19.8117 18.8176 19.8117 22.3579C19.8117 26.2685 22.092 29.3969 25.7002 29.3969C28.2863 29.3969 30.4797 27.0297 32.3481 23.7692C32.3481 24.2698 32.2403 26.7238 32.3481 28.1143C32.4141 29.0702 33.4118 28.6565 34.6075 29.1362C35.0629 29.5273 35.4765 29.7011 35.845 29.7011C36.4533 29.7011 36.9313 29.1588 37.2789 28.2238C38.7127 24.3132 42.1453 15.5362 43.1221 15.5362C43.8608 15.5362 43.1012 21.1848 43.1012 23.9865C43.1012 25.5941 43.2542 26.962 43.8173 27.5494C44.8393 28.6357 45.9464 29.1571 47.0761 29.1571C49.6171 29.1571 52.2902 26.4423 54.4836 21.402C54.3532 23.5537 54.3306 24.2263 54.3306 24.965C54.3306 26.225 54.3967 27.6155 54.5705 28.6148C54.6782 29.0928 54.7234 29.4404 55.1579 29.7654C55.7454 30.0921 56.2876 30.2868 56.5918 30.504C57.2661 30.8308 57.2209 31.0046 58.156 31.0046C58.4827 31.0046 58.9381 30.7004 59.0042 29.9409C59.8297 21.6853 60.6987 11.497 60.6987 11.497C61.2636 11.4762 62.8295 11.0729 64.3051 10.9096C64.936 10.8401 65.6869 10.4542 65.6869 9.99711V9.99364ZM19.2486 0C18.9219 0 18.5099 0.28156 17.4445 1.21662C17.0535 1.34697 16.6416 1.26007 16.1619 1.99873C13.4245 5.95273 11.2746 20.7033 9.44963 24.9615C9.08117 23.1157 8.31992 11.1234 8.01576 7.84196C7.97231 7.23365 8.05921 6.4724 8.05921 6.01704C8.05921 2.99635 7.40746 1.45473 4.36591 1.45473C2.84514 1.45473 1.32437 2.01958 0.521407 3.01895C0.130352 3.54035 0 3.93141 0 4.86473C0 11.1425 1.49818 21.4194 3.17189 28.1316C3.6933 30.2381 5.56168 30.6309 7.34315 30.6309C8.16871 30.6309 9.01513 30.5232 10.19 29.9357C14.2952 27.937 15.3832 22.4831 16.4469 17.1821C16.6416 16.2262 17.5992 11.5996 18.0546 9.16634C18.6629 5.84324 19.3581 2.08389 19.7718 0.716065C19.9021 0.302416 19.6414 0 19.2503 0H19.2486ZM133.729 10.2092C129.248 10.2092 125.355 13.6209 125.355 19.8587C125.355 26.0964 129.043 29.5082 133.729 29.5082C138.414 29.5082 142 26.0964 142 19.8587C142 13.6209 138.14 10.2092 133.729 10.2092ZM133.729 26.4753C130.833 26.4753 128.662 24.235 128.662 19.8587C128.662 15.4823 130.833 13.2768 133.729 13.2768C136.624 13.2768 138.691 15.5866 138.691 19.8587C138.691 24.1307 136.555 26.4753 133.729 26.4753ZM94.4824 0.500551C93.6569 0.500551 92.6784 0.9142 92.0701 1.43561C91.3314 1.2618 90.3755 1.82666 90.2451 2.47842C89.616 5.4122 89.3327 8.4746 88.9851 10.9947C84.7704 11.3858 81.5776 13.7095 80.0134 17.5123C79.7527 18.1415 79.4485 18.7498 79.1009 19.3372C76.8849 23.1174 74.1041 25.3126 71.3667 25.3126C69.368 25.3126 68.2174 23.9013 68.0853 21.9895C68.8014 22.1633 69.4757 22.2502 70.1049 22.2502C74.6238 22.2502 76.9267 17.9712 76.9267 15.0808C76.9267 12.1905 75.0583 10.8661 72.2774 10.8661C67.1937 10.9096 62.979 16.9492 62.979 22.4674C62.979 26.3988 64.7379 29.5064 68.7354 29.5064C71.8203 29.5064 76.1011 27.8118 79.0105 23.4233C78.8159 26.5309 79.6397 29.5725 82.2919 29.8749C83.7901 30.0052 86.5066 29.0719 88.309 25.3995C88.4393 28.4619 89.4178 29.9392 90.1999 29.9392C91.6112 29.9392 92.5028 29.4386 93.5891 29.3743C93.9367 29.3535 94.0444 29.0476 94.0444 28.766C94.0444 28.3107 93.523 26.6369 93.523 24.2472C93.523 20.5765 94.2617 14.841 95.8033 3.15277C95.8468 2.89207 95.9563 2.30462 95.9563 1.87011C95.9563 1.13145 95.5009 0.500551 94.479 0.500551H94.4824ZM73.2351 13.5357C73.6262 13.5357 73.8225 13.7756 73.7774 14.3613C73.647 16.2071 72.2792 19.2712 68.2817 19.6831C68.824 17.2499 71.1495 13.5357 73.2351 13.5357ZM83.8579 26.2667C83.1835 26.2667 82.8359 25.4846 82.8359 24.5287C82.8359 21.8139 84.6817 16.36 88.8982 15.013C88.3333 19.1617 86.2251 26.2667 83.8579 26.2667ZM113.955 19.5875H119.757C119.793 23.731 117.45 26.1451 113.632 26.1451C109.814 26.1451 106.607 23.0462 106.607 16.0924C106.607 9.64255 109.885 6.61666 113.632 6.61666C117.379 6.61666 118.856 9.24628 119.468 12.2739L123.144 11.6256C122.352 6.58189 118.604 3.23099 113.595 3.23099C108.119 3.23099 102.858 7.55519 102.858 16.0941C102.858 25.7141 107.902 29.5325 113.63 29.5325C119.359 29.5325 123.287 25.7488 123.287 19.12V16.3809H113.955V19.5875Z" fill="#000"/>
</svg>
