<?xml version="1.0" encoding="UTF-8"?>
<svg viewBox="0 0 171 36" version="1.1" xmlns="http://www.w3.org/2000/svg" xmlns:xlink="http://www.w3.org/1999/xlink">
    <g id="Page-1" stroke="none" stroke-width="1" fill="none" fill-rule="evenodd">
        <g id="watershed-logo" transform="translate(2.000000, 2.000000)">
            <g id="Group" transform="translate(38.079740, 7.049796)" fill="#000000" fill-rule="nonzero">
                <path d="M29.4051985,18.0161069 C26.7391832,18.0161069 24.6564885,16.4955802 24.6564885,13.6214122 C24.6564885,10.4764122 27.1557481,9.26837405 29.8841832,9.26837405 L32.1127405,9.26837405 C33.4874046,9.26837405 34.1122519,8.72683969 34.1122519,7.76887023 C34.1122519,6.51917557 32.9666336,5.91522137 31.4878931,5.91522137 C29.7175573,5.91522137 28.5928321,6.7691145 28.4887557,8.28951145 L25.1978931,8.28951145 C25.4061756,5.33203053 27.322374,3.41584504 31.4462366,3.41584504 C35.5700992,3.41584504 37.2571221,5.41534351 37.2571221,8.18543511 L37.2571221,14.0796336 C37.2571221,14.7461374 37.5070611,14.9960763 38.1735649,14.9960763 L38.6943359,14.9960763 L38.6943359,17.5786489 L36.5490916,17.5786489 C35.049458,17.5786489 34.2163282,16.8288321 34.2163282,15.5376107 L34.2163282,15.0168397 L34.1746718,15.0168397 C33.2998855,17.0580076 31.5295496,18.0161069 29.4051985,18.0161069 Z M30.3840611,15.4750611 C32.2584733,15.4750611 34.1122519,14.3086794 34.1122519,11.4552748 L34.1122519,10.1848168 L34.0705954,10.1848168 C33.6540305,11.0387099 32.8416641,11.4552748 31.4254733,11.5178244 L30.4048244,11.5594809 C28.759458,11.6011374 28.0512977,12.4342672 28.0512977,13.5172061 C28.0512977,14.6002748 28.759458,15.4959542 30.4048244,15.4959542 L30.3840611,15.4750611 Z" id="Shape"></path>
                <path d="M40.8388015,13.8713511 L40.8388015,6.4358626 L38.1936794,6.4358626 L38.1936794,3.85322519 L40.8388015,3.85322519 L40.8388015,0.104245038 L44.0045649,0.104245038 L44.0045649,3.85322519 L48.1493206,3.85322519 L48.1493206,6.4358626 L44.0045649,6.4358626 L44.0045649,13.4131298 C44.0045649,14.5795115 44.6086489,15.0377328 45.6499313,15.0377328 L48.2117405,15.0377328 L48.2117405,17.6203053 L44.5669924,17.6203053 C42.1092595,17.6203053 40.8179084,16.3915038 40.8179084,13.8921145 L40.8388015,13.8713511 Z" id="Path"></path>
                <path d="M48.9821908,10.7262214 C48.9821908,6.16503053 51.8147023,3.43659542 55.7719389,3.43659542 C59.7293053,3.43659542 62.3742977,5.79012214 62.3742977,10.2055802 L62.3742977,11.6219008 L52.3354733,11.6219008 C52.4395496,13.9754275 53.7516641,15.5167176 55.8552519,15.5167176 C57.3757786,15.5167176 58.5212672,14.6835878 58.9585954,13.3713435 L62.2078015,13.3713435 C61.6037176,16.1206718 59.2085344,18.0159771 55.8135954,18.0159771 C51.7522824,18.0159771 49.0029542,15.2667786 49.0029542,10.7262214 L48.9821908,10.7262214 Z M59.2085344,9.35168702 C59.2085344,7.35217557 58.0004962,5.93585496 55.8552519,5.93585496 C53.7100076,5.93585496 52.5645191,7.43548855 52.3562366,9.35168702 L59.2085344,9.35168702 Z" id="Shape"></path>
                <path d="M64.5406947,3.85290076 L67.6440382,3.85290076 L67.6440382,6.01903817 L67.6856947,6.01903817 C68.3314351,4.64437405 69.2060916,3.85290076 71.0389771,3.85290076 L72.3719847,3.85290076 L72.3719847,6.43547328 L70.4766794,6.43547328 C68.581374,6.43547328 67.7065878,7.45612214 67.7065878,9.70544275 L67.7065878,17.5991527 L64.5615878,17.5991527 L64.5615878,3.85290076 L64.5406947,3.85290076 Z" id="Path"></path>
                <path d="M73.1208931,13.0382214 L76.3699695,13.0382214 C76.4532824,14.7669008 77.5363511,15.5165878 79.1609542,15.5165878 C80.7854275,15.5165878 81.7851832,14.7252443 81.7851832,13.496313 C81.7851832,12.413374 81.1186794,11.7676336 79.4108931,11.7676336 L77.9112595,11.7676336 C75.0369618,11.7676336 73.3708321,10.1848168 73.3708321,7.87294656 C73.3708321,5.24858779 75.4951832,3.43659542 79.0984046,3.43659542 C82.701626,3.43659542 84.8259771,5.39445038 84.9092901,8.31027481 L81.6811069,8.31027481 C81.5977939,6.76898473 80.7646641,5.93585496 79.0776412,5.93585496 C77.5780076,5.93585496 76.6615649,6.64401527 76.6615649,7.76874046 C76.6615649,8.78925954 77.432145,9.2891374 78.7027328,9.2891374 L80.3480992,9.2891374 C83.6388321,9.2891374 85.1384656,11.1427863 85.1384656,13.3922366 C85.1384656,16.1206718 82.9932214,18.0367405 79.1609542,18.0367405 C75.3285573,18.0367405 73.183313,16.0790153 73.1,13.0589847 L73.1208931,13.0382214 Z" id="Path"></path>
                <path d="M87.3253664,0.145745802 L90.4710153,0.145745802 L90.4710153,3.68645649 C90.4710153,4.31127786 90.4710153,4.79036641 90.4281908,5.95661832 L90.4710153,5.95661832 C91.1990305,4.4571145 92.6161298,3.43651756 94.5938397,3.43651756 C97.4059771,3.43651756 99.343458,5.39432061 99.343458,8.72670992 L99.343458,17.5994122 L96.1978092,17.5994122 L96.1978092,9.35155725 C96.1978092,6.8939542 95.1570458,5.95661832 93.5946031,5.95661832 C92.0321603,5.95661832 90.4710153,6.97726718 90.4710153,9.72646565 L90.4710153,17.5994122 L87.3253664,17.5994122 L87.3253664,0.145745802 Z" id="Path"></path>
                <path d="M101.488573,10.7262214 C101.488573,6.16503053 104.30071,3.43659542 108.278191,3.43659542 C112.256969,3.43659542 114.880939,5.79012214 114.880939,10.2055802 L114.880939,11.6219008 L104.841855,11.6219008 C104.945672,13.9754275 106.257656,15.5167176 108.361244,15.5167176 C109.88216,15.5167176 111.028038,14.6835878 111.465366,13.3713435 L114.714832,13.3713435 C114.110099,16.1206718 111.714527,18.0159771 108.319718,18.0159771 C104.23842,18.0159771 101.509336,15.2667786 101.509336,10.7262214 L101.488573,10.7262214 Z M111.714527,9.35168702 C111.714527,7.35217557 110.507656,5.93585496 108.361244,5.93585496 C106.21613,5.93585496 105.07155,7.43548855 104.862618,9.35168702 L111.714527,9.35168702 Z" id="Shape"></path>
                <path d="M116.443382,10.7262214 C116.443382,5.95661832 119.358038,3.43651756 122.565977,3.43651756 C124.669565,3.43651756 126.335824,4.51953435 127.168954,6.26910687 L127.210481,6.26910687 C127.168954,5.78999237 127.168954,5.37355725 127.168954,4.87367939 L127.168954,0.145745802 L130.314603,0.145745802 L130.314603,17.5992824 L127.189718,17.5992824 L127.189718,16.6829695 C127.189718,16.1830916 127.189718,15.7248702 127.210481,15.2040992 L127.168954,15.2040992 C126.335824,16.9536718 124.669565,18.0367405 122.565977,18.0367405 C119.358038,18.0367405 116.443382,15.5165878 116.443382,10.7469847 L116.443382,10.7262214 Z M123.502924,15.5165878 C125.794679,15.5165878 127.168954,13.6212824 127.168954,10.7262214 C127.168954,7.83116031 125.794679,5.93585496 123.502924,5.93585496 C121.212466,5.93585496 119.817427,7.83116031 119.817427,10.7262214 C119.817427,13.6212824 121.191702,15.5165878 123.502924,15.5165878 Z" id="Shape"></path>
                <polygon id="Path" points="23.0766565 -1.77635684e-15 17.5572366 13.0173282 17.4948168 13.0173282 12.0170534 -1.77635684e-15 8.35141221 -1.77635684e-15 16.2451221 17.4744427 18.8276947 17.4744427 26.7006412 -1.77635684e-15"></polygon>
                <polygon id="Path" points="12.2049618 6.62325191 9.1849313 13.7254885 9.14327481 13.7254885 3.64474809 -1.77635684e-15 -7.10542736e-15 -1.77635684e-15 7.89358015 17.4744427 10.4553893 17.4744427 13.9961908 9.60162595 12.2049618 6.64401527"></polygon>
            </g>
            <g id="Group" stroke="#000000">
                <path d="M0.442285496,13.5942771 C1.97819008,11.986155 3.64875802,9.23183053 9.73412214,10.6653847 C16.8750305,12.3463992 16.6675267,20.1144908 22.6837099,22.4685366 C30.068458,25.3574985 31.4660916,19.6086435 31.4660916,19.6086435" id="Path" stroke-width="2.99519237"></path>
                <path d="M15.9644275,31.9223534 C24.7811985,31.9223534 31.9287252,24.7771626 31.9287252,15.962987 C31.9287252,7.1487855 24.7811985,0.0034778626 15.9644275,0.0034778626 C7.14750076,0.0034778626 8.8817842e-16,7.1487855 8.8817842e-16,15.962987 C8.8817842e-16,24.7771626 7.14750076,31.9223534 15.9644275,31.9223534 Z" id="Path" stroke-width="3.0300229"></path>
                <path d="M16.0792748,31.9224832 C20.4529466,31.9224832 23.9985496,24.7916969 23.9985496,15.9953 C23.9985496,7.19907176 20.4529466,0.0682725191 16.0792748,0.0682725191 C11.7056031,0.0682725191 8.16011679,7.19907176 8.16011679,15.9953 C8.16011679,24.7916969 11.7056031,31.9224832 16.0792748,31.9224832 Z" id="Path" stroke-width="3.01214046"></path>
                <line x1="15.9641679" y1="6.66133815e-16" x2="15.9641679" y2="31.9224832" id="Path" stroke-width="3.01214046"></line>
            </g>
        </g>
    </g>
</svg>